<?xml version="1.0" encoding="UTF-8" standalone="no"?>
<svg
   xmlns:dc="http://purl.org/dc/elements/1.1/"
   xmlns:cc="http://creativecommons.org/ns#"
   xmlns:rdf="http://www.w3.org/1999/02/22-rdf-syntax-ns#"
   xmlns:svg="http://www.w3.org/2000/svg"
   xmlns="http://www.w3.org/2000/svg"
   xmlns:xlink="http://www.w3.org/1999/xlink"
   viewBox="0 0 4000 4000"
   height="4000"
   width="4000"
   xml:space="preserve"
   id="svg2"
   version="1.1"><metadata
     id="metadata8"><rdf:RDF><cc:Work
         rdf:about=""><dc:format>image/svg+xml</dc:format><dc:type
           rdf:resource="http://purl.org/dc/dcmitype/StillImage" /></cc:Work></rdf:RDF></metadata><defs
     id="defs6"><clipPath
       id="clipPath18"
       clipPathUnits="userSpaceOnUse"><path
         id="path16"
         d="M 0,3000 H 3000 V 0 H 0 Z" /></clipPath><clipPath
       id="clipPath26"
       clipPathUnits="userSpaceOnUse"><path
         id="path24"
         d="M 0,3000 H 3000 V 0 H 0 Z" /></clipPath><clipPath
       id="clipPath44"
       clipPathUnits="userSpaceOnUse"><path
         id="path42"
         d="M 0,3000 H 3000 V 0 H 0 Z" /></clipPath><clipPath
       id="clipPath88"
       clipPathUnits="userSpaceOnUse"><path
         id="path86"
         d="M 0,3000 H 3000 V 0 H 0 Z" /></clipPath></defs><g
     transform="matrix(1.3333333,0,0,-1.3333333,0,4000)"
     id="g10"><g
       id="g12"><g
         clip-path="url(#clipPath18)"
         id="g14"><g
           transform="translate(1684.333,2837.6665)"
           id="g46"><path
             id="path48"
             style="fill:#c486ab;fill-opacity:1;fill-rule:nonzero;stroke:none"
             d="M 0,0 C -7.745,12.526 -53.333,-1.333 -65.333,-12 -77.333,-22.667 -84,-70.667 -80,-70 c 4,0.667 62.667,26 71.334,26.667 C 0,-42.667 2.889,-4.67 0,0" /></g><g
           transform="translate(1652,2692)"
           id="g50"><path
             id="path52"
             style="fill:#c486ab;fill-opacity:1;fill-rule:nonzero;stroke:none"
             d="M 0,0 C -7.745,12.526 -44,-1.667 -56,-12.333 -68,-23 -74.667,-71 -70.667,-70.333 c 4,0.666 48.86,21.803 57.527,22.47 C -4.474,-47.197 2.888,-4.671 0,0" /></g><g
           transform="translate(1622,2539.1279)"
           id="g54"><path
             id="path56"
             style="fill:#c486ab;fill-opacity:1;fill-rule:nonzero;stroke:none"
             d="m 0,0 c -7.745,9.895 -44,-1.317 -56,-9.743 -12,-8.426 -18.667,-46.344 -14.667,-45.818 4,0.527 48,-0.532 56.667,-0.005 C -5.333,-55.04 2.888,-3.69 0,0" /></g><g
           transform="translate(1331.1758,1622.6997)"
           id="g58"><path
             id="path60"
             style="fill:#f4e6ab;fill-opacity:1;fill-rule:nonzero;stroke:none"
             d="m 0,0 c -23.941,68.001 -242.92,84.239 -242.92,60.672 10e-4,-23.566 30.066,-793.88 81.859,-809.462 51.794,-15.58 191.126,-76.036 185.811,5.757 C 19.435,-661.24 25.115,-71.338 0,0" /></g><g
           transform="translate(1985.8682,2268.2578)"
           id="g62"><path
             id="path64"
             style="fill:#c486ab;fill-opacity:1;fill-rule:nonzero;stroke:none"
             d="m 0,0 c -38.612,42.893 -147.016,48.005 -147.016,24.002 0,-24.002 -24.002,-472.453 0,-569.26 24.003,-96.806 90.01,-118.429 114.012,28.896 C -9.001,-369.037 44.985,-49.974 0,0" /></g><g
           transform="translate(1879.2822,770.043)"
           id="g66"><path
             id="path68"
             style="fill:#cbf7ee;fill-opacity:1;fill-rule:nonzero;stroke:none"
             d="m 0,0 c -73.717,73.378 -104.265,-47.924 -301.69,-40.039 -197.426,7.884 -315.72,10.54 -326.986,-50.535 -11.266,-61.075 0.588,-174.69 323.598,-164.756 C 15.663,-244.763 34.39,-34.23 0,0" /></g><g
           transform="translate(1183,2359)"
           id="g70"><path
             id="path72"
             style="fill:#fcbbc0;fill-opacity:1;fill-rule:nonzero;stroke:none"
             d="m 0,0 c -63.89,-10.987 -118,-28 -118,-92 0,-64 26.04,-172 63.02,-146 36.98,26 110.98,124 118.98,8 8,-116 -28,-406 12,-406 40,0 120,50 138,102 18,52 -28,318 24,354 52,36 168,12 172,78 C 414,-36 314,54 0,0" /></g><g
           transform="translate(433.6436,611.9541)"
           id="g74"><path
             id="path76"
             style="fill:none;stroke:#000000;stroke-width:5;stroke-linecap:round;stroke-linejoin:round;stroke-miterlimit:10;stroke-dasharray:none;stroke-opacity:1"
             d="m 0,0 c 152.993,53.997 142.083,54.144 499.119,-107.873 357.035,-162.016 411.041,-171.017 429.043,-195.02 18.002,-24.002 0,-75.006 0,-75.006 0,0 -21.002,84.007 60.006,87.008 81.008,3 1257.125,228.023 1278.128,228.023 21.002,0 -786.079,192.019 -819.082,198.019 -33.004,6.001 792.797,-186.149 819.484,-214.647 26.688,-28.499 13.188,-82.496 7.189,-86.996 -6,-4.499 -1315.722,-229.409 -1342.725,-241.41 -27.003,-12.002 -687.069,312.03 -708.071,324.032 -21.002,12.001 -16.109,101.868 34.896,104.869 51.005,3 502.475,37.498 508.159,72.148 10.482,63.914 -127.821,-95.096 190.21,-140.101 318.033,-45.005 415.85,47.092 430.852,77.095 15.001,30.003 1.72,94.351 19.722,106.352 18.002,12.001 -79.496,-71.996 -358.482,-61.497 -271.295,10.21 -307.485,46.498 -322.484,199.49 -14.999,152.993 -82.831,1498.829 -73.83,1528.832 9.001,30.003 155.222,61.728 323.222,67.728 168,6 180,2 186,14 6,12 80,332 84,352 4,20 -46,16 -68,-14 -22,-30 -82,-434 -82,-452 0,-18 244,-16 372,-56 128,-40 -18,70 -394,66 -376,-4 -402,-30 -406,-78 -4,-48 77.788,-1429.881 104.79,-1474.885 27.003,-45.005 618.062,-63.007 639.064,15.001 21.002,78.008 48.005,1449.145 54.006,1410.141 6,-39.004 33.003,-204.02 -36.004,-174.017 -69.007,30.003 -78.008,90.009 -144.015,36.004 -66.007,-54.006 -72.007,-27.003 -72.007,126.012 0,153.015 -264.026,-45.004 -294.029,-84.008 -30.003,-39.004 0,-237.024 -12.001,-252.025 -12.002,-15.002 -117.012,-114.012 -120.013,-48.005 -3,66.007 -3,282.028 -18.001,318.031 -15.001,36.004 -88.519,-38.882 -93.695,52.535 -5.177,91.417 -38.127,172.436 150.7,208.492 188.828,36.055 449.205,22.724 565.205,-3.276 116,-26 135.337,-44.854 133.668,-81.427 -1.668,-36.573 -81.668,-1430.573 -87.668,-1500.573 -6,-70 -16.712,-105.843 -30.426,-114.553" /></g><g
           transform="translate(1404.4028,1604.728)"
           id="g78"><path
             id="path80"
             style="fill:#fcbbc0;fill-opacity:1;fill-rule:nonzero;stroke:none"
             d="m 0,0 c -19.315,-15.601 -20.999,-64.497 -15,-92.995 6,-28.499 199.491,44.997 212.99,76.496 13.499,31.499 16.499,110.994 0,104.995 C 181.491,82.496 38.998,31.499 0,0" /></g></g></g><g
       id="g82"><g
         clip-path="url(#clipPath88)"
         id="g84"><g
           transform="translate(0,705.0996)"
           id="g90"><path
             id="path92"
             style="fill:none;stroke:#000000;stroke-width:5;stroke-linecap:round;stroke-linejoin:round;stroke-miterlimit:10;stroke-dasharray:none;stroke-opacity:1"
             d="m 0,0 c 0,0 494.72,45.011 575.73,57.011 81,12 60,24 69,24 3.25,0 230.95,22.359 521.18,52.309" /></g><g
           transform="translate(1172.1899,810.2998)"
           id="g94"><path
             id="path96"
             style="fill:none;stroke:#000000;stroke-width:5;stroke-linecap:round;stroke-linejoin:round;stroke-miterlimit:10;stroke-dasharray:none;stroke-opacity:1"
             d="m 0,0 c -258.58,-28.189 -451.24,-47.479 -455.45,-51.189 -20.61,-18.161 -727.54,-86.861 -697.74,-91.441 43.33,-6.67 -19,-43.58 -19,-43.58 0,0 629.73,72.01 689.74,81.01 60,9 75.01,21 90.01,30 4.48,2.69 171.71,20.36 403.82,44.78" /></g><g
           transform="translate(1870.1201,853.2598)"
           id="g98"><path
             id="path100"
             style="fill:none;stroke:#000000;stroke-width:5;stroke-linecap:round;stroke-linejoin:round;stroke-miterlimit:10;stroke-dasharray:none;stroke-opacity:1"
             d="m 0,0 c 400.66,44.221 757.67,87.58 755.02,103.49 -6,35.99 0,2043.25 0,2043.25" /></g><g
           transform="translate(1873.1104,893.4502)"
           id="g102"><path
             id="path104"
             style="fill:none;stroke:#000000;stroke-width:5;stroke-linecap:round;stroke-linejoin:round;stroke-miterlimit:10;stroke-dasharray:none;stroke-opacity:1"
             d="m 0,0 c 411.54,52.37 587.77,72.92 598.81,75.68 3.28,0.82 16.69,0.74 33.81,0.259 22.76,-0.649 52.1,-2.009 72.96,-2.939 h 0.05 c 9.029,0.18 16.779,0.22 22.189,-0.32 10.861,-1.09 -1.469,-0.6 -22.189,0.32 h -0.05 c -21.79,-0.41 -51.03,-1.57 -72.96,2.939 -19.431,3.991 -33.12,12.42 -30.81,29.741 6,45.009 -3,1953.53 -3,1977.2 0,23.67 -60.01,33 -63.01,-36.01 -3,-69 -0.571,-1924.04 -11.91,-1953.32 C 519.8,82.99 291.699,53.89 1.35,21.01" /></g><g
           transform="translate(2716.2998,3000)"
           id="g106"><path
             id="path108"
             style="fill:none;stroke:#000000;stroke-width:5;stroke-linecap:round;stroke-linejoin:round;stroke-miterlimit:10;stroke-dasharray:none;stroke-opacity:1"
             d="m 0,0 c 0,0 22.811,-2151.23 0,-2157.23 -8.069,-2.12 -350.49,-47.8 -789.649,-105.95 -1.031,-0.14 -2.071,-0.28 -3.101,-0.41" /></g><g
           transform="translate(0,482.8398)"
           id="g110"><path
             id="path112"
             style="fill:none;stroke:#000000;stroke-width:5;stroke-linecap:round;stroke-linejoin:round;stroke-miterlimit:10;stroke-dasharray:none;stroke-opacity:1"
             d="M 0,0 C 0,0 272.64,35.83 645.17,84.88" /></g><g
           transform="translate(35.7349,2330.6719)"
           id="g114"><path
             id="path116"
             style="fill:none;stroke:#000000;stroke-width:5;stroke-linecap:round;stroke-linejoin:round;stroke-miterlimit:10;stroke-dasharray:none;stroke-opacity:1"
             d="m 0,0 c 42.476,37.9 91.265,-21.672 87.265,28.328 -4,50 58,-14 76,16 18,30 -52,3.65 -2,-29.175 50,-32.825 110,49.14 146,16.158 36,-32.983 82,11.017 118,-42.983 36,-54 190,16 196,-72 6,-88 70,-44 144,-66 74,-22 48,-58 84,-64 36,-6 38,-12 60,-26 22,-14 -2,18 -58,0 -56,-18 -116,-46 -174,-58 -58,-12 -54,26 -128,-18 -74,-44 -20,18 26,40 46,22 74,-10 104,22 30,32 -34,52 -90,16 -56,-36 -66,34 -120,24 -54,-10 -72,4 -28,36 44,32 -22,61.734 -62,40.867 -40,-20.867 -48,37.133 -110,11.133 -62,-26 -240,-102 -194,-64 46,38 -112,-22 -68,18 44,40 56,-8 118,32 62,40 40,128 -50,96 -90,-32 2,56 -66,18 -68,-38 -36.53,1.344 -9.265,25.672 z" /></g><g
           transform="translate(18.3335,2497.6665)"
           id="g118"><path
             id="path120"
             style="fill:none;stroke:#000000;stroke-width:5;stroke-linecap:round;stroke-linejoin:round;stroke-miterlimit:10;stroke-dasharray:none;stroke-opacity:1"
             d="m 0,0 c -35.932,-25.095 42,-2.667 27.333,-23.333 -14.666,-20.667 51.334,-8 74,11.666 C 124,8 26.667,-22 41.333,2.667 56,27.333 10.827,7.562 0,0 Z" /></g><g
           transform="translate(4.1768,1543)"
           id="g122"><path
             id="path124"
             style="fill:none;stroke:#000000;stroke-width:5;stroke-linecap:round;stroke-linejoin:round;stroke-miterlimit:10;stroke-dasharray:none;stroke-opacity:1"
             d="m 0,0 c 0,0 133.823,5 155.823,0 22,-5 22,-83 16,-84 -6,-1 -1.178,312 3.411,321 4.589,9 143.589,17 149.589,16 6,-1 170,-11 170,-11 0,0 -2,-314 0,-320 2,-6 -40,-3.005 -48,-6.002 -8,-2.998 3,114.002 -3,116.002 -6,2 -55,9 -59,2 -4,-7 -2,-121 -6,-130 -4,-9 -52,-10 -60,-10 -8,0 -38,3 -37,9 1,6 7,104 4,108 -3,4 -28.754,8 -38.377,9 -9.623,1 -25.623,58.085 -30.623,53.542 -5,-4.542 1,-159.542 -7,-167.542 -8,-8 -24,-0.5 -27,4.5 -3,5 3,311.5 4,315.5 1,4 131,14 135,10 4,-4 2,-349 -1,-374 -3,-25 -138,-16 -172,-20 -34,-4 -42,-22 -56,-30 -14,-8 186,-8 178,-18 -8,-10 -26.754,-24 -23.377,-50 3.377,-26 208.665,24 182.021,-16 -26.644,-40 19.356,-64 79.356,-74 60,-10 46,62 118,30 72,-32 -41.66,-82 12.17,-104 53.83,-22 111.83,-12 143.83,-28 32,-16 -494,-42 -534,-54 -40,-12 171.288,-46 180.644,-48 9.356,-2 202.089,8.871 244.093,0 42.004,-8.871 90.009,-23.872 78.008,-32.873 -12.001,-9.001 -57.006,-30.003 -78.008,-27.003 -21.002,3.001 -63.893,27.003 -85.952,24.003 -22.059,-3.001 -331.089,-6.582 -331.089,-24.294 0,-17.711 123.875,-59.715 172.948,-59.715 49.074,0 217.091,27.003 229.092,27.003 12.001,0 48.004,-60.395 33.003,-61.701 -15.001,-1.306 -230.161,-18.931 -262.095,-28.12 -31.934,-9.189 -142.946,20.425 -175.949,28.12 -33.003,7.695 12.002,58.701 -42.004,58.701 -54.006,0 -171.017,-30.004 -156.015,-45.005 15.001,-15.002 60.005,-33.003 -18.002,-60.006" /></g><g
           transform="translate(1132.6089,899.9395)"
           id="g126"><path
             id="path128"
             style="fill:none;stroke:#000000;stroke-width:5;stroke-linecap:round;stroke-linejoin:round;stroke-miterlimit:10;stroke-dasharray:none;stroke-opacity:1"
             d="m 0,0 c -3,-28.498 -85.496,-22.499 -104.995,-20.999 -19.499,1.5 -7.5,-11.999 -13.499,-23.999 -6,-11.999 -115.494,-25.498 -127.494,-16.522 -11.999,8.977 -11.999,171.014 -3,172.514 9,1.5 239.988,6 227.989,19.499 -12,13.5 -152.992,85.496 -157.492,77.996 -4.5,-7.499 7.499,-46.497 -14.999,-44.997 -22.499,1.5 -175.491,46.497 -179.991,61.497 -4.5,14.999 -7.5,52.497 -4.5,67.496 3,14.999 151.492,1.5 127.494,16.46 -23.999,14.96 -85.496,10.539 -104.995,28.538 -19.499,17.999 -95.996,74.996 -65.997,74.996 29.999,0 133.493,25.5 124.494,-18.321 -9,-43.82 43.498,-37.176 91.495,-32.676 47.998,4.499 22.499,-50.998 70.497,-52.498 47.997,-1.5 106.494,40.498 88.495,53.998 -17.999,13.499 -170.991,65.997 -176.991,74.997 -6,8.999 23.999,19.499 35.998,20.999 12,1.5 149.993,4.499 157.492,8.999 7.5,4.5 -53.997,26.999 -65.996,29.999 -12,2.999 -124.494,-29.999 -139.493,-15 -14.999,15 -58.497,62.997 -67.497,68.997 -8.999,6 22.499,4.5 26.999,4.5 4.5,0 25.499,-25.499 37.498,-26.999 11.999,-1.5 127.493,23.999 125.993,29.998 -1.499,6 -75.607,49.511 -71.924,71.872 3.683,22.361 -7.81,205.292 -10.81,211.291 -3,6 -127.255,15.322 -127.255,1.823 0,-13.5 1.5,-199.49 1.5,-233.988 0,-34.498 9,-34.498 -41.998,-28.499 -50.997,6 29.999,-5.999 40.498,-5.999 10.5,0 130.494,10.499 133.493,17.999 3,7.499 0,260.987 -5.999,262.487 -6,1.499 -119.994,1.499 -127.494,1.499 -7.499,0 -56.997,-8.999 -59.997,-10.499 -3,-1.5 -4.5,-260.987 -4.5,-260.987 0,0 13.5,44.998 0,46.132 -13.499,1.135 -247.484,-10.547 -247.484,-10.547" /></g><g
           transform="translate(2371,3000)"
           id="g130"><path
             id="path132"
             style="fill:none;stroke:#000000;stroke-width:5;stroke-linecap:round;stroke-linejoin:round;stroke-miterlimit:10;stroke-dasharray:none;stroke-opacity:1"
             d="m 0,0 c 0,0 -4.38,-874.41 -6.77,-1468.93 -0.01,-0.17 -0.01,-0.34 0,-0.51 -0.77,-188.44 -1.33,-348.72 -1.49,-444.03 5.6,-33.44 1.67,-82.97 0.26,-93.53 -0.29,-2.14 -0.35,32.28 -0.26,93.53 -2.89,17.22 -8.3,30.18 -17.88,31.36 -26.02,-15.25 -72.31,-7.96 -82.81,-10.96 -10.5,-3 7.5,-69 13.5,-84 6,-15 52.5,-1.5 66,1.5 13.5,3 9,-18 0,-30 -9,-11.99 -436.48,-50.99 -442.48,-49.49 -6,1.5 -4.5,49.49 -1.5,50.99 3,1.5 73.5,0 78,6 4.5,6 7.5,72 1.5,79.5 -6,7.5 -57,6 -61.5,10.5 -4.5,4.5 4.5,103.49 7.98,103.49 3.48,0 79.02,1.5 85.02,1.5 5.99,0 17.99,-38.99 28.49,-46.49 10.5,-7.5 226.49,3 232.49,9 6,6 -34.5,58.49 -42,67.49 -7.5,9 -82.49,0 -92.99,3 -10.5,3 -9,49.5 -12,60 -3,10.5 -30,-3 -40.5,6.78 -10.5,9.78 -6,39.72 3,38.22 9,-1.5 112.5,1.5 120,-1.5 7.49,-3 1.5,-67.5 10.49,-73.5 9,-6 45,28.5 51,36.78 6,8.28 3,62.22 -4.5,63.72 -7.5,1.5 -155.99,-1.5 -166.49,0 -10.5,1.5 -10.5,27 -1.5,31.49 9,4.5 185.99,-1.49 194.99,0 9,1.5 13.5,27 3,36 -10.5,9 -154.49,27 -161.99,33 -7.5,6 3,36 12,39.09 8.19,2.81 212.36,26.15 222.17,30.56 0.48,0.22 0.5,0.39 0,0.51 -0.51,0.12 -1.58,0.2 -3.23,0.21 -13.27,0.11 -208.6,0.13 -450.01,0.13" /></g><g
           transform="translate(948.1899,1531.2798)"
           id="g134"><path
             id="path136"
             style="fill:none;stroke:#000000;stroke-width:5;stroke-linecap:round;stroke-linejoin:round;stroke-miterlimit:10;stroke-dasharray:none;stroke-opacity:1"
             d="M 0,0 C 0,0 67.86,0.01 173.83,0.03" /></g></g></g></g></svg>