<svg id="Layer_2" data-name="Layer 2" xmlns="http://www.w3.org/2000/svg" viewBox="0 250 3000 3000"><defs><style>.cls-1{fill:none;stroke:#000;stroke-linecap:round;stroke-linejoin:round;stroke-width:3px;}</style></defs><title>snivets-FO52907EE56C7</title><path d="M761.31,2969c-6.62-11.43-12.87-23.08-18.56-35a367.21,367.21,0,0,1-15-36.69,320.1,320.1,0,0,1-10.69-38.2,334,334,0,0,1-5.78-39.24c-.58-6.58-1-13.17-1.36-19.76s-.65-13.16-1.12-19.7a142.91,142.91,0,0,0-2.47-19.39,49.44,49.44,0,0,0-7.16-17.72,48.33,48.33,0,0,0-6.13-7.41,77.44,77.44,0,0,0-7.25-6.45,90.18,90.18,0,0,0-16.46-10.32,41.78,41.78,0,0,0-8.95-3.27c-1.35-.4-3.38-.18-3.22,0-.23.08.53,2,1.44,3.06a52.22,52.22,0,0,0,6.6,7c2.41,2.19,4.91,4.29,7.47,6.34,10.24,8.17,21.07,15.65,32,23s22.07,14.32,33.27,21.23l33.74,20.57c5.61,3.46,11.26,6.85,16.83,10.37L805.12,2818l8.32,5.34,8.21,5.51,16.4,11,16.16,11.4c2.68,1.91,5.4,3.78,8.06,5.73l7.94,5.89c21.22,15.66,41.91,32.05,61.67,49.55,9.83,8.8,19.57,17.7,28.89,27s18.44,18.89,27.34,28.6l3.35,3.62,3.39,3.56c.76,1.15,3.11,2.54,2.38,2.52a34.76,34.76,0,0,0-.47-3.6c-.67-3.13-1.63-6.28-2.6-9.4s-2-6.24-3.1-9.35c-4.3-12.43-8.87-24.78-13.36-37.16-9-24.75-17.94-49.56-26.16-74.61s-15.84-50.32-21.92-76c-3-12.84-5.65-25.79-7.52-38.88q-.7-4.91-1.23-9.84l-1-9.83c-.7-6.53-1.5-13.06-2.62-19.51-.57-3.22-1.22-6.43-2.09-9.54a36.18,36.18,0,0,0-1.55-4.54,11.17,11.17,0,0,0-2.36-3.76,2.67,2.67,0,0,0-3.38-.29,14.35,14.35,0,0,0-3.52,2.9,95.8,95.8,0,0,0-6.13,7.59c-3.95,5.26-7.92,10.61-12.69,15.32a42.86,42.86,0,0,1-7.92,6.27A24,24,0,0,1,868,2707a20,20,0,0,1-5.18-.09,21.79,21.79,0,0,1-5-1.3,68.78,68.78,0,0,1-9.07-4.27A176.11,176.11,0,0,1,832,2690.55c-10.75-7.69-21.08-15.89-31.35-24.14-20.53-16.52-40.82-33.32-62-49-10.58-7.82-21.36-15.36-32.48-22.35a255.6,255.6,0,0,0-34.68-18.53c-1.49-.69-3-1.25-4.55-1.85s-3-1.22-4.59-1.74c-3.11-1-6.2-2.12-9.34-2.87a36.6,36.6,0,0,0-9.52-1.06,16.42,16.42,0,0,0-8.82,2.61,13.7,13.7,0,0,0-3.3,3.18,17.56,17.56,0,0,0-2.2,4.11,31.21,31.21,0,0,0-1.82,9.35,77.8,77.8,0,0,0,1.83,19.36c2.65,12.81,7.07,25.24,12.11,37.34a325.44,325.44,0,0,0,17.48,35.27,228.22,228.22,0,0,0,22.09,32.49c2.11,2.5,4.3,4.92,6.63,7.19A45.93,45.93,0,0,0,695,2726c1.3.75,2.79,1.28,3.84.84s1.8-1.77,2.23-3.21a34.6,34.6,0,0,0,.88-9.5,166.14,166.14,0,0,0-1.81-19.54c-.92-6.5-2-13-3.2-19.45-2.37-12.94-5-25.83-7.78-38.71-5.48-25.76-11.25-51.47-16.55-77.28-2.65-12.91-5.2-25.84-7.51-38.82s-4.39-26-5.93-39.12c-.76-6.56-1.39-13.13-1.76-19.74a159.14,159.14,0,0,1,0-19.87c.27-3.34.64-6.58.93-9.84.15-1.63.22-3.27.33-4.9s.21-3.27.24-4.91c.29-6.55.18-13.12,0-19.68-1-26.27-5.27-52.3-8.35-78.48-1.56-13.09-2.79-26.25-3.22-39.46q-.29-9.91.11-19.83c.07-1.65.2-3.3.3-5s.21-3.3.39-4.95l.49-4.94.65-4.92a173.1,173.1,0,0,1,3.85-19.48c1.59-6.44,3.75-12.71,5.78-19l12.29-37.56c4.12-12.51,8.22-25,12.52-37.49,1.09-3.12,2.17-6.22,3.38-9.32-1.42-1.52,4.39-4.18,3.3-.9-.28,1.68-.64,3.28-1,4.9-.76,3.25-1.5,6.36-1.93,9.6-.22,1.61-.39,3.24-.56,4.86s-.27,3.26-.36,4.89a194.54,194.54,0,0,0-.07,19.65c.05,1.64.13,3.28.25,4.91l.33,4.91c.31,3.27.54,6.54,1,9.8a347.13,347.13,0,0,0,6.67,38.81q4.43,19.2,10.72,37.92c4.2,12.45,9,24.71,14.26,36.74,2.59,6,5.46,12,8.29,17.89l4.46,8.79c.73,1.47,1.5,2.92,2.29,4.36l2.35,4.33,2.35,4.33c.79,1.44,1.64,2.85,2.45,4.28,1.65,2.84,3.27,5.7,5,8.53,3.45,5.59,6.82,11.24,10.49,16.7s7.33,10.91,11.07,16.32c1.86,2.71,3.87,5.31,5.8,8s3.85,5.33,5.91,7.89c4,5.18,8.05,10.39,12.25,15.47s8.34,10.18,12.55,15.23c16.92,20.16,34.53,39.74,53,58.47,4.6,4.7,9.26,9.35,13.92,14s9.32,9.33,13.82,14.18c2.26,2.42,4.44,4.91,6.53,7.5,1.06,1.28,2,2.65,3,4s1.92,2.74,2.71,4.23a46.17,46.17,0,0,1,4.17,9.16,45.66,45.66,0,0,1,1.27,4.88,49.33,49.33,0,0,1,.8,5c.21,1.66.26,3.33.39,5s.08,3.33,0,5-.07,3.32-.18,5-.2,3.31-.34,5c-.5,6.61-1.55,13.13-2,19.65a168.27,168.27,0,0,0,1.27,39.17,121.13,121.13,0,0,0,4.49,19.05,59.24,59.24,0,0,0,3.68,9c1.61,1.44-1,2.61-.89.38-.58-1.48-1.28-3-2-4.41s-1.5-2.9-2.29-4.33-1.63-2.8-2.42-4.35a55.69,55.69,0,0,1-3.5-9.42,180.32,180.32,0,0,1-4.23-19.41c-2.2-13-3.66-26.15-4.89-39.28s-2.15-26.28-2.92-39.44c-1.54-26.32-2.45-52.66-3-79s-.77-52.7-.65-79.05.57-52.7,1.55-79l1.61-39.48.85-19.75c.37-6.58.65-13.17,1.2-19.75,1-13.15,2.45-26.36,5.69-39.24a166.92,166.92,0,0,1,14.41-37l4.73-8.72,5-8.53c1.65-2.87,3.45-5.63,5.2-8.43s3.48-5.61,5.31-8.35L941,2095.16c3.53-5.53,6.91-11.17,10.22-16.85,13.19-22.76,25.35-46.13,37.36-69.55,24-46.91,47-94.31,70.69-141.36,11.9-23.51,23.9-47,36.78-70,6.49-11.49,13.1-22.92,20.79-33.76a91.87,91.87,0,0,1,6.26-7.84,33.72,33.72,0,0,1,3.69-3.53c1.3-1.07,2.6-2.13,4-3.08s2.82-1.85,4.25-2.75,2.95-1.64,4.49-2.32a82,82,0,0,1,9.34-3.66c3.15-1.05,6.29-2,9.37-3.08a82,82,0,0,0,9-3.67,63.7,63.7,0,0,0,8.31-4.91,71.47,71.47,0,0,0,7.45-6.18,107.75,107.75,0,0,0,12.7-14.76c3.83-5.29,7.27-10.86,10.58-16.51a385.29,385.29,0,0,0,17.56-35.22l3.93-9,3.77-9.11c2.5-6.08,4.89-12.2,7.08-18.37,1.09-3.09,2.12-6.19,3-9.31a44.5,44.5,0,0,0,1-4.66c.47-1.35-.28-3.57.28-2.78-.35-.06-2.08,1.15-3.08,2.14-1.16,1.07-2.26,2.25-3.35,3.45-2.16,2.42-4.23,5-6.25,7.53-8.07,10.33-15.64,21.11-23.18,31.89-15,21.61-29.7,43.49-44.61,65.22-7.45,10.86-15,21.7-22.6,32.44s-15.42,21.4-23.75,31.69c-2.09,2.57-4.22,5.11-6.44,7.58a81.74,81.74,0,0,1-7.09,7.14c-5,3.87-7.27,10-8.47,16.28a66.31,66.31,0,0,0-1.11,9.6c-.19,3.23-.16,6.49-.07,9.75.22,6.52.84,13,1.67,19.54,1.68,13,4.16,25.92,6.88,38.77s5.76,25.67,8.87,38.46c6.22,25.58,12.8,51.1,18.65,76.82,2.92,12.86,5.66,25.77,8,38.77a363.83,363.83,0,0,1,5.09,39.34c.21,3.31.37,6.62.41,9.95q.05,2.49,0,5l-.06,4.94-.06,4.91.09,4.91c0,3.27.24,6.54.38,9.81a309.15,309.15,0,0,0,4.93,39c2.43,12.89,5.55,25.65,8.87,38.38s6.83,25.46,9.41,38.48a142.41,142.41,0,0,1,2.59,19.81,70.43,70.43,0,0,1-1.68,20.09,38.9,38.9,0,0,1-1.43,4.89,44.56,44.56,0,0,1-1.89,4.73c-.68,1.58-1.35,3-2,4.47s-1.23,3-1.85,4.5a159.8,159.8,0,0,0-5.71,18.68c-3.12,12.7-5.22,25.69-7.34,38.68s-4.18,26-6.9,39a279.31,279.31,0,0,1-10.54,38.3,180.68,180.68,0,0,1-7.71,18.38c-3,6-6,11.75-8.9,17.61a310.57,310.57,0,0,0-13.93,36.69l-2.8,9.43c-.48,1.57-.92,3.15-1.32,4.74l-1.26,4.76c-1.75,6.33-3.2,12.74-4.74,19.12-5.89,25.62-10.59,51.53-15.31,77.44s-9.31,51.86-14.28,77.75c-1.23,6.48-2.52,12.93-3.66,19.39s-2.2,12.95-3.17,19.45c-1.95,13-3.61,26-5.09,39.11-5.88,52.29-9.24,104.87-12.35,157.45-.79,13.15-1.52,26.3-2.4,39.46-.46,6.59-.89,13.15-1.63,19.79-.2,1.67-.39,3.31-.78,5.11.47,3.88-9.61.63-6-1.18-.3-1.72-.51-3.37-.69-5s-.32-3.35-.43-5c-.8-13.29-.75-26.47-.64-39.67s.51-26.38,1-39.56q3.1-79.06,12.08-157.74c3-26.2,6.58-52.35,10.88-78.39s9.34-52,15.62-77.66c3.15-12.84,6.61-25.61,10.53-38.25s8.27-25.18,13.45-37.42c1.3-3.06,2.6-6.12,4-9.13s2.88-6,4.35-9a191.78,191.78,0,0,1,10-17.37c.9-1.42,1.91-2.77,2.86-4.15s2-2.75,3.1-4.13a42.73,42.73,0,0,1,7.74-7.21,37.29,37.29,0,0,1,9.47-4.92,41,41,0,0,1,10.4-2.12,61.1,61.1,0,0,1,20.53,2.41,93.44,93.44,0,0,1,9.65,3.26c3.15,1.23,6.22,2.62,9.25,4.08a225.12,225.12,0,0,1,34,21.13c21.39,15.81,40.94,33.75,59.73,52.34s36.68,38.06,54.1,57.9,34.29,40.14,50.81,60.71q49.53,61.75,95.07,126.51,22.84,32.31,44.76,65.26c14.57,22,28.87,44.18,42.39,66.93q2.53,4.27,5,8.58l4.89,8.55c3.29,5.61,6.72,11.11,10.43,16.34a87.61,87.61,0,0,0,12.23,14.31c4.47,4.08,9.66,7.21,14.67,7a16,16,0,0,0,7.43-2.28,34.86,34.86,0,0,0,6.9-5.41,97.65,97.65,0,0,0,11.75-14.79c7.14-10.72,13.43-22.24,19.65-33.78,12.35-23.17,24.36-46.7,37.2-69.8s26.34-45.87,40.9-68c7.25-11.07,14.84-22,22.54-32.67s15.55-21.37,23.57-31.88c16.06-21,32.76-41.57,50.57-61.22,8.91-9.82,18.09-19.42,27.68-28.64a347.85,347.85,0,0,1,30.28-26.23,186.21,186.21,0,0,1,16.74-11.45,88.62,88.62,0,0,1,18.93-8.87,40.54,40.54,0,0,1,5.44-1.3,26.47,26.47,0,0,1,6-.36,16.2,16.2,0,0,1,6.83,1.9,11.92,11.92,0,0,1,5.38,6.15,42.08,42.08,0,0,1,1.54,5.46c.39,1.71.72,3.37,1,5,.62,3.33,1.13,6.61,1.65,9.91,2,13.15,3.53,26.26,5,39.37s2.89,26.23,4.25,39.34q4.05,39.34,7.72,78.69c5,52.46,9.7,104.94,14.89,157.33,1.3,13.09,2.64,26.18,4.13,39.21.75,6.51,1.53,13,2.48,19.4.24,1.59.49,3.16.78,4.67-4.54,1.89,11.45,2.29-10,4.46-.44-3.06-1-6.38-1.52-9.6l-13-78c-8.54-52-16.75-104.1-24-156.37-3.59-26.14-7-52.32-9.65-78.64-1.33-13.17-2.5-26.36-3.19-39.67-.34-6.66-.56-13.34-.45-20.14.06-3.41.2-6.83.58-10.38a52.47,52.47,0,0,1,.86-5.5,20.15,20.15,0,0,1,2.46-6.52c1.86-2.52,2.25-2.77,3.3-4.21a25.29,25.29,0,0,0,1.51-2.26c-.57,3.7,4.55,5.83,1.16,4.3a25.86,25.86,0,0,1-6-2,15.58,15.58,0,0,1-5.88-5,18.88,18.88,0,0,1-2.83-6.5,37,37,0,0,1-.57-11.69,80.94,80.94,0,0,1,1.7-10.5c.76-3.39,1.65-6.7,2.62-10s2-6.48,3.13-9.64a37.56,37.56,0,0,0,1.17-4.06,13.47,13.47,0,0,0,.38-3.39c0-.93-.28-1.12-.08-.86s.22,0-.66,0a12.62,12.62,0,0,0-3.29.28,34,34,0,0,0-4.05,1.1,105.64,105.64,0,0,0-16.9,7.84,360.28,360.28,0,0,0-32.64,21.05c-21.23,15.17-41.65,31.65-61.57,48.67s-39.3,34.74-58.16,53-37.17,37-54.72,56.44q-13.16,14.57-25.65,29.69-6.22,7.57-12.22,15.3c-2,2.58-4,5.17-5.92,7.78-.93,1.27-2.08,2.72-3.13,4.08s-2.21,2.72-3.42,4a77.4,77.4,0,0,1-7.61,7.46,62.8,62.8,0,0,1-8.77,6.37,55.75,55.75,0,0,1-20.61,7.55,62.62,62.62,0,0,1-21.72-.68,91.81,91.81,0,0,1-20-6.69c-12.63-5.82-23.91-13.58-34.46-22a344.26,344.26,0,0,1-29.76-27c-18.76-19-35.89-39.29-52.36-60s-32.18-42-47.64-63.38-30.62-43-45.89-64.39-30.6-42.79-46.87-63.2c-8.16-10.15-16.57-20.13-25.69-29-1.15-1.09-2.3-2.17-3.46-3.21l-3.67-3.25-7.39-6.49q-3.7-3.24-7.44-6.43T1255,2423c-10-8.42-20.18-16.63-30.65-24.28-5.24-3.82-10.54-7.53-16-10.91a140,140,0,0,0-16.6-9.08c-5.62-2.51-11.44-4.52-16.92-4.9a21.11,21.11,0,0,0-7.74.65,18.6,18.6,0,0,0-6.54,3.45,27.38,27.38,0,0,0-5.32,6.09,38,38,0,0,0-2.19,3.75c-.68,1.21-1.42,2.82-2.22,4.36,8.51,6.54-15.67-1.46-11.89-4.15.5-1.72,1-3.28,1.52-4.87l3-9.4c8-24.94,15-50.14,19.56-75.69a264.83,264.83,0,0,0,4.21-38.38,142.53,142.53,0,0,0-.66-18.94,80.24,80.24,0,0,0-3.85-17.95,41.55,41.55,0,0,0-8.64-14.86,29.31,29.31,0,0,1-3.78-4.89,25.19,25.19,0,0,1-2.58-5.86,30.11,30.11,0,0,1-.91-12.14,48.31,48.31,0,0,1,2.72-10.89,77.06,77.06,0,0,1,4.4-9.72A141.24,141.24,0,0,1,1165.1,2147a324.27,324.27,0,0,1,26.19-30.54c9.21-9.63,18.74-18.88,28.42-27.93,19.38-18.08,39.35-35.37,59.44-52.48s40.33-34,60.28-51.07c10-8.56,19.86-17.18,29.5-26,4.81-4.41,9.57-8.88,14.18-13.43s9.1-9.21,13.2-14c1-1.2,2-2.41,3-3.64l2.89-3.83q1.47-1.9,2.84-3.89l2.78-3.95c1.79-2.68,3.59-5.36,5.33-8.09s3.48-5.46,5.11-8.27c6.69-11.13,12.91-22.61,18.86-34.25,11.88-23.3,22.68-47.23,33.09-71.34q7.81-18.09,15.37-36.33c5.08-12.15,10.1-24.32,15.35-36.49,2.64-6.09,5.29-12.15,8.3-18.26.76-1.53,1.53-3.06,2.41-4.62a32.39,32.39,0,0,1,3.17-4.86,53.22,53.22,0,0,1,7.76-7.87,117.13,117.13,0,0,1,17.16-11.67c5.91-3.38,12-6.39,18.07-9.18a323.09,323.09,0,0,1,37.59-14.26c6.41-2,12.88-3.78,19.47-5.3a127.1,127.1,0,0,1,20.45-3.24,43.34,43.34,0,0,1,5.66,0,17.76,17.76,0,0,1,7,1.76c2,1.11,3.2,2,4.68,3s2.79,1.92,4.16,2.88c5.46,3.87,10.76,7.82,16.06,11.81q15.85,12,31.29,24.4c10.3,8.29,20.51,16.71,30.53,25.42,5,4.36,10,8.78,14.85,13.36a181.08,181.08,0,0,1,14.23,14.67,47,47,0,0,1,3.36,4.51,36.13,36.13,0,0,1,2.67,5c.75,1.61,1.41,3.19,2,4.75s1.25,3.13,1.87,4.69c2.41,6.23,4.68,12.44,6.92,18.65l13.36,37.19c8.93,24.74,18.14,49.35,28,73.66s20.44,48.31,32.37,71.52c6,11.59,12.33,23,19.33,33.85l5.38,8c1.9,2.58,3.75,5.22,5.69,7.76l3,3.74,3.13,4a50,50,0,0,1,3.13,4.38c1,1.47,1.85,3,2.76,4.57a95.7,95.7,0,0,1,7.93,19.34,152.23,152.23,0,0,1,4.37,20c1,6.7,1.7,13.42,2.14,20.13s.57,13.41.57,20.09c-.1,26.75-2.87,53.22-6.64,79.45s-8.8,52.23-14.37,78.07-11.83,51.5-18.33,77.06c-3.23,12.78-6.56,25.54-9.69,38.26-.77,3.18-1.53,6.35-2.21,9.49l-2.12,9.69q-2.22,9.72-4.7,19.34c-6.58,25.65-14,51-21.48,76.26l-11.32,37.87-5.6,18.91-2.72,9.45-1.3,4.71a17.92,17.92,0,0,0-.8,3.65c1.46,1.41-2.75-3.43-3-2.23a11.78,11.78,0,0,0,2.83-1.23A74.29,74.29,0,0,0,1818,2559c5.13-3.8,10.19-7.95,15.24-12.12,10.1-8.37,20.15-16.95,30.56-25.21,5.21-4.13,10.51-8.19,16-12.06a119.21,119.21,0,0,1,17.72-10.59,47.11,47.11,0,0,1,5.14-2,27.45,27.45,0,0,1,5.91-1.27c2.82-.13,2.78-.07,3.47-.31.34-.22.38-.09.69-.76a9.78,9.78,0,0,0,.6-3.08,31.1,31.1,0,0,0-.07-4.25c-.23-3-.7-6.13-1.26-9.28-1.13-6.32-2.56-12.73-3.95-19.16s-2.8-12.9-4.12-19.39c-2.64-13-5-26.08-6.72-39.26a475.67,475.67,0,0,1-4.14-79.65q.34-10,1.07-19.93t1.91-19.87l2.41-19.59,1-9.77c.35-3.26.68-6.51,1-9.78,2.41-26.11,3.93-52.35,5-78.61,2.15-52.54,2.63-105.2,3.32-157.88.35-26.35.72-52.71,1.51-79.09.4-13.19.93-26.39,1.67-39.6s1.77-26.43,3.44-39.68c.39-3.31,1-6.63,1.44-9.94.28-1.66.62-3.32.92-5s.59-3.32,1-5l1.22-5,1.23-4.7c.43-1.55.8-3.13,1.16-4.71l1.09-4.74c2.72-12.7,4.75-25.6,6.33-38.57a608.49,608.49,0,0,0,4.26-78.28c-.11-13.08-.59-26.15-1.59-39.19s-2.3-26-4.26-39S1924,1587,1921,1574.29c-.68-3.19-1.53-6.34-2.35-9.49s-1.58-6.32-2.56-9.43l-2.78-9.36-3.1-9.25c-1-3.1-2.19-6.12-3.33-9.16s-2.25-6.1-3.58-9.07-2.52-6-3.83-9l-4.19-8.78a262.08,262.08,0,0,0-19.75-33.4c-7.48-10.49-15.8-20.48-25.58-28.41-1.23-1-2.45-2-3.73-2.84s-2.55-1.78-3.87-2.59-2.67-1.52-4-2.29-2.73-1.36-4.13-1.87a35.66,35.66,0,0,0-8.53-2.33,26.56,26.56,0,0,0-16.55,2.87,35.51,35.51,0,0,0-7,5.19,50,50,0,0,0-5.83,6.91,65.8,65.8,0,0,0-4.72,8c-5.61,11.21-8.82,23.8-10.89,36.49-1,6.36-1.76,12.8-2.22,19.27s-.74,13-.77,19.47c-.13,13,.56,26.05,1.73,39.06a598.93,598.93,0,0,0,12.58,77.42c5.75,25.58,12.95,50.77,21,75.83s16.18,50,25.06,74.78c4.4,12.38,9.06,24.66,13.81,36.9s9.81,24.35,15.08,36.35,10.84,23.86,16.82,35.5c3,5.83,6.08,11.58,9.25,17.31l9.71,17.23c1.62,2.91,3.18,5.92,4.64,9.06a52.61,52.61,0,0,1,3.43,10.09,45.1,45.1,0,0,1,.82,5.36,52.22,52.22,0,0,1,.13,5.34c0,1.78-.19,3.49-.33,5.23s-.4,3.32-.6,5-.39,3.31-.62,5l-.71,4.92c-.47,3.28-.94,6.56-1.48,9.82l-1.57,9.79-1.67,9.76c-4.5,26-9.56,51.9-14.87,77.74s-11,51.58-16.86,77.29q-17.75,77.09-38.4,153.46c-13.82,50.88-28.34,101.6-44.94,151.71-8.32,25-17,50-26.68,74.57-4.75,12.32-9.85,24.52-15.07,36.66s-10.84,24.12-16.69,36-12.16,23.53-18.85,35a393.65,393.65,0,0,1-21.7,33.39,282,282,0,0,1-25.61,30.65c-2.32,2.4-4.77,4.68-7.15,7s-5,4.47-7.49,6.69l-3.9,3.16c-1.31,1-2.57,2.15-4,3.11l-4.06,3c-1.31,1-2.76,2-4.25,2.88s-3,1.73-4.54,2.57-3.17,1.46-4.76,2.15a60.11,60.11,0,0,1-10,2.92,67.57,67.57,0,0,1-20.61.87c-13.66-1.44-26.59-6.08-38.59-12.07A205.26,205.26,0,0,1,1522,2722a292.54,292.54,0,0,1-29.6-26.77,333.44,333.44,0,0,1-26-30.25,321,321,0,0,1-22.15-33.15,252.3,252.3,0,0,1-17.32-36c-4.71-12.5-8.33-25.54-9.58-39a100.44,100.44,0,0,1-.38-10.18l.11-5,.07-4.84c.05-1.61,0-3.23-.05-4.86L1417,2527c-.07-3.25-.34-6.51-.58-9.78-.4-6.52-1.14-13-1.76-19.57-.34-3.26-.76-6.52-1.14-9.78s-.74-6.52-1.21-9.77c-3.41-26.06-7.6-52-12.07-78-9-51.86-19.17-103.54-29.77-155.13s-21.74-103.07-33.17-154.49l-8.64-38.55-4.36-19.27-1.09-4.82c-.39-1.79-.71-3.22-.9-3.09a3.25,3.25,0,0,0-2.4.06,19.47,19.47,0,0,0-4,1.7,59.16,59.16,0,0,0-7.84,5.26c-2.53,2-5,4.07-7.37,6.25a174.8,174.8,0,0,0-13.57,13.95,148,148,0,0,0-11.84,15.37,78.26,78.26,0,0,0-4.82,8.25,30.19,30.19,0,0,0-3,8.53,11.7,11.7,0,0,0,.17,4.14c.27,1.52.6,3.12,1,4.7.71,3.18,1.49,6.36,2.27,9.55l4.88,19.12,9.85,38.28c6.49,25.55,12.76,51.16,18.56,76.88s11.22,51.54,16,77.49,8.91,52,12.08,78.24c.42,3.27.77,6.56,1.12,9.84l1,9.85.88,9.87.43,4.94.34,4.94c1,13.19,1.46,26.38,1.6,39.66,0,3.35-.15,6.71-.5,10.1a45.84,45.84,0,0,1-2.1,10.2,18.52,18.52,0,0,1-2.54,5,10.06,10.06,0,0,1-5.1,3.77,10.88,10.88,0,0,1-6.23-.16,20.19,20.19,0,0,1-5-2.37,48.71,48.71,0,0,1-8-6.55c-2.43-2.37-4.68-4.87-6.85-7.42-4.33-5.11-8.28-10.46-12.08-15.9-7.58-10.9-14.49-22.18-21.12-33.61s-12.92-23-19-34.76c-12.17-23.43-23.51-47.27-34.24-71.37s-20.8-48.5-30.13-73.19-17.91-49.68-25-75.16a388.68,388.68,0,0,1-8.84-38.74,168.9,168.9,0,0,1-2.22-19.89,83.6,83.6,0,0,1,.12-10.14,42.59,42.59,0,0,1,1.94-10.22c4.59-12.78,11.82-24.19,19.69-34.86A383.57,383.57,0,0,1,1196,2036c17.91-19.44,36.75-37.88,55.33-56.55q14-14,27.71-28.12c9.13-9.47,18.16-19,27-28.76s17.5-19.61,25.81-29.78c4.24-5,8.24-10.23,12.34-15.35l6-7.84,3-3.92,2.88-4,5.74-8,5.52-8.14,2.76-4.07,2.64-4.15,5.27-8.3,5-8.47,2.49-4.24,2.35-4.32,4.68-8.64,4.37-8.8c.72-1.47,1.47-2.92,2.17-4.41l2-4.48,4.05-9,3.8-9.07c.63-1.51,1.28-3,1.89-4.54l1.76-4.59,3.52-9.18,3.24-9.29,1.62-4.64,1.48-4.69,2.95-9.38a467.53,467.53,0,0,0,16-76.91,398.84,398.84,0,0,0,1.35-78.45,337.25,337.25,0,0,0-15.85-76.72c-.93-3.14-2.14-6.18-3.29-9.24l-3.47-9.18c-1.27-3-2.62-6-3.93-9l-2-4.49q-1-2.26-2.1-4.43l-4.44-8.75-2.23-4.37-2.46-4.25L1398,1427c-.79-1.43-1.66-2.82-2.58-4.17l-2.69-4.11a336.25,336.25,0,0,0-50.16-60.18,407.59,407.59,0,0,0-61.94-48.2,373.55,373.55,0,0,0-69.94-35.49l-4.58-1.76c-1.53-.57-3.11-1-4.66-1.54l-9.34-3c-1.55-.52-3.11-1-4.7-1.38l-4.74-1.23c-3.17-.8-6.31-1.7-9.5-2.42l-9.61-1.92c-1.6-.31-3.2-.65-4.81-.95l-4.85-.67-9.71-1.35-9.76-.78c-1.63-.12-3.25-.28-4.88-.37l-4.9-.1-4.9-.1c-1.63,0-3.26-.13-4.89,0l-9.78.37c-1.63,0-3.26.13-4.88.32l-4.87.47-4.87.47c-1.63.13-3.23.46-4.85.68-3.22.51-6.46.94-9.67,1.52l-9.58,2c-1.61.3-3.18.74-4.75,1.16l-4.73,1.26a244.12,244.12,0,0,0-36.77,13.37,259.57,259.57,0,0,0-34.16,19.15,263.41,263.41,0,0,0-30.92,24,217,217,0,0,0-26.63,28.58,119.19,119.19,0,0,0-9.94,16.64c-3,5.81-5.65,11.78-8.2,17.81-5.11,12.07-9.64,24.4-13.89,36.83-8.5,24.86-15.88,50.12-22.59,75.55s-12.71,51-17.78,76.82c-2.48,12.89-4.77,25.83-6.31,38.77-.38,3.23-.7,6.47-.92,9.68a70.34,70.34,0,0,0-.11,9.41,10.86,10.86,0,0,0,.66,3.43c-.81-.87-1.64-.34-.23-1a17.67,17.67,0,0,0,3-2.71c1-1.12,2-2.32,2.95-3.58a184.55,184.55,0,0,0,10.6-16.2c3.34-5.61,6.56-11.32,9.74-17.06,6.35-11.49,12.55-23.11,18.86-34.7s12.69-23.16,19.55-34.56c3.44-5.69,7-11.34,10.89-16.86,2-2.76,4-5.49,6.25-8.15,1.11-1.33,2.32-2.64,3.59-3.93a49.69,49.69,0,0,1,4-3.58c10.14-8.26,20-16.82,29.5-25.75a358.38,358.38,0,0,0,27-28.08c8.35-9.83,16.06-20.21,22-31.3a82.88,82.88,0,0,0,7-17.08c.34-1.46.79-2.91,1-4.37a39.43,39.43,0,0,0,.65-4.51l.51-4.67c.12-1.56.14-3.11.21-4.67a42,42,0,0,0,.05-4.65l-.14-4.64c-.35-3.05-.52-6.14-1.17-9.13a64.58,64.58,0,0,0-5.43-17.22,50.28,50.28,0,0,0-10.14-14.24,40.92,40.92,0,0,0-3.23-2.81c-1.1-.91-2.33-1.59-3.47-2.42s-2.45-1.33-3.68-1.94c-1.12-.39-2.92-1.22-3.45-1.31a10.33,10.33,0,0,0-5.85.95,34.82,34.82,0,0,0-7.16,4.2,97.08,97.08,0,0,0-13.5,12.59,262.32,262.32,0,0,0-23.29,30.63c-7.15,10.8-13.8,22-20.06,33.38q-4.7,8.55-9.11,17.27c-2.91,5.8-5.86,11.69-8.33,17.55-10.34,23.47-17.65,48.69-24.36,73.95s-12.51,50.94-18.29,76.62c-2.88,12.85-5.79,25.71-8.8,38.57-1.53,6.43-3,12.87-4.66,19.3-.82,3.21-1.57,6.43-2.45,9.65l-2.6,9.64c-3.63,12.9-8,25.54-12.55,37.93-2.21,6.24-4.53,12.4-6.81,18.6s-4.59,12.37-6.92,18.53l-28,73.92c-18.66,49.26-37.42,98.47-55.25,148-4.41,12.39-8.89,24.77-13.13,37.21s-8.41,24.9-12.52,37.38l-5.76,18.81q-.75,2.35-1.35,4.72l-1.27,4.73-2.54,9.46a209.84,209.84,0,0,0-5.63,38.41c-1.35,25.94,2.11,52,8.74,77.28,3.31,12.64,7.45,25.05,11.85,37.45l3.26,9.36a94.69,94.69,0,0,1,2.86,9.77c.14,1.74,1.31,3.91-1.19,7.05-3.94,2.62-6.26,0-7.69-.82a26.3,26.3,0,0,1-6.49-8.71,60.46,60.46,0,0,1-5.47-19.74,99.09,99.09,0,0,1-.15-20.2,162.12,162.12,0,0,1,8.94-39,264.56,264.56,0,0,1,16.24-36.33q4.7-8.76,9.84-17.26c3.44-5.66,7-11.22,10.67-16.72,14.5-22,29.82-43.59,46.36-64.19,8.28-10.29,16.92-20.31,25.77-30.09,4.4-4.9,8.87-9.75,13.05-14.73s8-10.19,10.09-16.07a34.13,34.13,0,0,0,1.84-9.15,65.77,65.77,0,0,0-.19-9.57c-.57-6.69-.61-13.29-.67-19.9-.06-13.21.17-26.38.45-39.56.59-26.35,1.49-52.69,2.49-79s2.13-52.65,3.35-79l1.94-39.48,1.08-19.74.61-9.88c.11-1.65.22-3.29.38-5,5-6.5,3.57,4.22,3.79,2.57a18.13,18.13,0,0,0,2.23,8.63,10.6,10.6,0,0,0,6.67,4.92,18.18,18.18,0,0,0,4.43.49,26.49,26.49,0,0,0,4.57-.53,34,34,0,0,0,8.79-3.21,24,24,0,0,0,7.23-5.56,19.55,19.55,0,0,0,2.17-3.92l1.91-4.5c2.48-6.09,5.09-12.18,7.8-18.21a349.85,349.85,0,0,1,18.47-35.12l2.56-4.25c.86-1.41,1.69-2.85,2.62-4.21l5.45-8.29c1.77-2.8,3.77-5.43,5.68-8.14s3.82-5.4,5.81-8a425.76,425.76,0,0,1,53.62-58.31c4.95-4.36,9.9-8.8,14.85-13.1s9.81-8.7,14.55-13.23a320.69,320.69,0,0,0,26.64-28.89,277.14,277.14,0,0,0,22.59-32.1l2.51-4.22,2.37-4.3c1.62-2.84,3.06-5.78,4.53-8.7.76-1.45,1.43-2.94,2.11-4.43l2-4.46,1.88-4.53c.64-1.5,1.25-3,1.8-4.56l1.7-4.59,1.53-4.65c.53-1.55,1-3.11,1.42-4.68s.9-3.14,1.3-4.71a146,146,0,0,0,3.49-19.2,97.44,97.44,0,0,0,.18-19.41,64,64,0,0,0-4.48-18.68,33.37,33.37,0,0,0-2.07-4.31,35.5,35.5,0,0,0-2.49-4.06,42.14,42.14,0,0,0-2.93-3.75c-1-1.22-2.2-2.41-3.31-3.6-2.25-2.37-4.56-4.7-6.88-7a96.71,96.71,0,0,1-6.83-7.37,15.26,15.26,0,0,1-2.71-4.74,7.28,7.28,0,0,1,.66-5.93,16.08,16.08,0,0,1,3.55-4.11,46.34,46.34,0,0,1,4.05-3.11c5.55-3.78,11.32-7,17.07-10.21,11.53-6.41,23.09-12.69,34.57-19.13s22.93-12.94,34.25-19.64c22.71-13.3,45.14-27.1,67.1-41.59,11-7.28,21.83-14.68,32.47-22.4l7.94-5.84c2.61-2,5.25-3.95,7.83-6,5.18-4,10.34-8.15,15.16-12.47l-.1.11a259.37,259.37,0,0,0,17-21.84,184,184,0,0,0,14.06-23.74,111.47,111.47,0,0,0,5.3-12.67,62.56,62.56,0,0,0,1.87-6.54,22.27,22.27,0,0,0,.67-6.45c-.39-1.28-.09-1.06-.08-.91a7.17,7.17,0,0,0-1.86,2.09c-.56.87-1.23,2-1.88,2.94s-1.33,1.94-2,2.88c-2.74,3.78-5.56,7.46-8.35,11.16-5.58,7.39-11.1,14.82-16.15,22.54-2.52,3.86-4.93,7.79-7.11,11.82a80.38,80.38,0,0,0-5.58,12.48,37.89,37.89,0,0,0-1.62,6.52,20.7,20.7,0,0,0,0,6.52,12.19,12.19,0,0,0,2.54,5.68,44.52,44.52,0,0,0,4.88,4.62c7.06,5.89,14.54,11.43,21.79,17.23,14.54,11.55,28.67,23.79,41.13,37.69a175.27,175.27,0,0,1,17.07,22.18,117.33,117.33,0,0,1,12.39,25.16,86,86,0,0,1,4.82,27.67,80.21,80.21,0,0,1-1.2,14.05,95.45,95.45,0,0,1-3.51,13.62c-2.86,8.81-5.65,17.65-8.21,26.54a218,218,0,0,0-6.35,26.91,54.18,54.18,0,0,0-.53,13.57,36.11,36.11,0,0,0,4.11,12.77c2.1,4.06,4.51,8,6.72,12.15s4.27,8.32,6.16,12.56,3.74,8.49,5.79,12.6a63.24,63.24,0,0,0,3.33,6,25.44,25.44,0,0,0,4.18,5.16,11.53,11.53,0,0,0,5.53,3,12.94,12.94,0,0,0,6.32-.48c4.21-1.32,8.07-3.89,11.67-6.66,7.21-5.64,13.63-12.35,19.83-19.18s12.08-14,17.87-21.24,11.41-14.59,17-22,11.25-14.77,17-22,11.64-14.46,17.51-21.64c2.93-3.59,5.86-7.18,8.72-10.81a134.55,134.55,0,0,0,8.09-11.17,37.81,37.81,0,0,0,3.13-6,14.75,14.75,0,0,0,1.19-6.32,12.86,12.86,0,0,0-2.1-6,30.89,30.89,0,0,0-4.25-5.19,124.55,124.55,0,0,0-10.4-9c-3.62-2.88-7.29-5.71-11-8.54-7.34-5.67-14.65-11.4-21.84-17.27s-14.27-11.9-21.26-18c-14-12.17-27.89-24.49-41.42-37.2s-26.76-25.78-39.16-39.63c-6.19-6.94-12.16-14.09-17.69-21.58a147.33,147.33,0,0,1-14.69-23.8c-1.06-2.09-1.9-4.29-2.81-6.45l-1.17-3.33c-.42-1.1-.66-2.26-1-3.39a48.58,48.58,0,0,1-1.79-14c.1-1.19.1-2.38.28-3.56s.35-2.36.63-3.52.61-2.31,1-3.45a19.85,19.85,0,0,1,1.47-3.35,7.51,7.51,0,0,1,2.65-2.95,4.65,4.65,0,0,1,4.24-.21,10.94,10.94,0,0,1,3.17,2.13,27,27,0,0,1,2.49,2.62,100.24,100.24,0,0,1,7.95,11.59c2.43,4,4.75,8,7.1,12a273.06,273.06,0,0,0,14.86,23.38A77.9,77.9,0,0,0,1403,1114c3.29,3.08,7,5.86,11.29,6.88a13,13,0,0,0,6.39,0,16.11,16.11,0,0,0,5.78-3c1.7-1.34,3.4-3.07,5.27-4.52a29,29,0,0,1,6.09-3.81,17.85,17.85,0,0,1,3.49-1.17,14.7,14.7,0,0,1,3.74-.26,14.4,14.4,0,0,1,3.66.8,18.35,18.35,0,0,1,3.29,1.65c4.09,2.66,7.2,6.28,10.19,9.85s5.76,7.31,8.64,10.93,5.79,7.2,8.87,10.63a117.8,117.8,0,0,0,20.49,18.38,102.74,102.74,0,0,0,24.45,12.53,138,138,0,0,0,26.84,6.32,204.58,204.58,0,0,0,27.58,2.12,126.76,126.76,0,0,0,27.43-2.52,60,60,0,0,0,13-4.28c1-.45,2-1,3-1.57s1.94-1.16,2.82-1.86a24.33,24.33,0,0,0,2.6-2.1c.93-.81,1.21-1.7,1.13-1.05a9.88,9.88,0,0,0-3-.05c-1.12.1-2.26.25-3.39.42-2.27.34-4.55.74-6.83,1.14-4.56.81-9.13,1.63-13.72,2.38a277.19,277.19,0,0,1-27.71,3.27,147.08,147.08,0,0,1-28-.7c-9.26-1.23-18.5-3.65-26.8-8.17-2.08-1.13-4-2.42-6-3.7s-3.86-2.62-5.75-4q-5.68-4.08-11.07-8.52a258.8,258.8,0,0,1-20.56-18.87,251.7,251.7,0,0,1-18.43-21c-2.87-3.67-5.62-7.43-8.19-11.34a80.83,80.83,0,0,1-6.84-12.29,30,30,0,0,1-1.21-3.38,12.15,12.15,0,0,1-.53-3.73,4,4,0,0,1,2.1-3.58,13.69,13.69,0,0,1,3.34-1.62,25.5,25.5,0,0,1,7.13-1.08c2.37,0,4.71,0,7,.2,9.31.69,18.49,2,27.7,3.09s18.4,2.27,27.61,3.3,18.42,1.85,27.66,2.41c18.49,1.12,37,1.53,55.55,1.43s37.07-.69,55.48-2.43c4.6-.46,9.19-1,13.74-1.73,2.27-.39,4.53-.81,6.74-1.36,1.11-.27,2.2-.57,3.26-.94s1.86-.79,3.26-1.3c1.68-1.06,3.85,1.71,3.17,2.84a15.87,15.87,0,0,1-.66,3.64,60.3,60.3,0,0,1-2.42,6.64c-1.82,4.31-3.88,8.49-6,12.62-4.3,8.25-9,16.3-13.89,24.18a242,242,0,0,1-16,22.9c-1.48,1.81-3,3.59-4.66,5.28a32.11,32.11,0,0,1-2.63,2.42,10.43,10.43,0,0,1-3.29,1.93c-1.19.89-4.12-.77-3.42-2.62a11.7,11.7,0,0,1,1.37-3.53,62.67,62.67,0,0,1,3.8-6c5.42-7.6,11.31-14.77,17.15-22,11.74-14.37,23.6-28.62,35.22-43.07s23.05-29,34.1-43.92,21.72-30,31.77-45.6a495.11,495.11,0,0,0,27.66-48.13c8.17-16.58,15.26-33.79,19.49-51.77q3.22-13.52,6.07-27.12c1.87-9.07,3.6-18.17,5.15-27.3a454,454,0,0,0,6.25-55.14,199.3,199.3,0,0,0-.5-27.66,72.35,72.35,0,0,0-2.44-13.48,25.12,25.12,0,0,0-1.2-3.11,6.59,6.59,0,0,0-1.71-2.42,19.17,19.17,0,0,0-2.92-1.48c-1-.45-2.12-.86-3.19-1.27-8.65-3.15-17.57-5.72-26.48-8.23s-17.89-4.81-26.89-7-18-4.24-27.11-6.07c-4.54-.91-9.08-1.77-13.64-2.51a134.81,134.81,0,0,0-13.7-1.65c-1.14-.05-2.27-.08-3.38,0a8,8,0,0,0-2.95.54,8.9,8.9,0,0,0-2,2.23c-.65.91-1.25,1.88-1.85,2.86-2.37,4-4.74,8-7.43,11.83a80.37,80.37,0,0,1-19.7,19.92,78.88,78.88,0,0,1-12.17,7c-2.1,1.05-4.3,1.87-6.46,2.78s-4.4,1.62-6.66,2.24a126.08,126.08,0,0,1-27.54,4.93c-2.33.12-4.66.33-7,.37s-4.67.11-7,.12H1582c-9.28,0-18.55,0-27.83-.19-18.54-.36-37.2-.73-55.59-4.19-9.15-1.78-18.25-4.58-26.44-9.27a66.79,66.79,0,0,1-11.44-8.25c-3.43-3.1-6.94-6.07-10.56-9-7.22-5.78-14.67-11.28-22-16.93-3.68-2.83-7.35-5.68-10.94-8.66a102.77,102.77,0,0,1-10.28-9.58,29.79,29.79,0,0,1-4.24-5.82,11.11,11.11,0,0,1-1.22-3.63,6.28,6.28,0,0,1,.76-4,8.54,8.54,0,0,1,2.79-2.74c1-.68,2-1.28,3-1.87,2.05-1.17,4.16-2.19,6.28-3.18a225.51,225.51,0,0,1,26.16-9.82,204.93,204.93,0,0,1,27.13-6.73,64.77,64.77,0,0,1,7-.79,26.28,26.28,0,0,1,3.61,0,9.33,9.33,0,0,1,3.78.92,7.52,7.52,0,0,1,2.84,2.82,20,20,0,0,1,1.56,3.33c.84,2.24,1.47,4.46,2.22,6.63a37.85,37.85,0,0,0,6.11,12,28.62,28.62,0,0,0,10.49,8.15,46.89,46.89,0,0,0,13,3.78,89.33,89.33,0,0,0,13.69.88c9.14-.09,18.41-1.36,26.61-5.23,1-.48,2-1,3-1.58s1.93-1.16,2.82-1.85a34.76,34.76,0,0,0,5.09-4.41,46,46,0,0,0,7.65-11.17c1-2,2-4.14,3-6.25a25,25,0,0,1,3.81-6.2,6.88,6.88,0,0,1,3.5-2.07,19.46,19.46,0,0,1,3.68-.37,69.56,69.56,0,0,1,7.07.3,248.71,248.71,0,0,1,27.6,4.35,238.39,238.39,0,0,1,27,7.12c2.21.76,4.41,1.58,6.58,2.56a31.83,31.83,0,0,1,3.21,1.64,10,10,0,0,1,3,2.52c1.09,1.67.41,3.09.42,4.17-.15,1.19-.35,2.35-.58,3.5-.45,2.31-1,4.59-1.6,6.85a143,143,0,0,1-9.9,26.2c-4.21,8.34-9.33,16.35-16,23.05a49.67,49.67,0,0,1-11.36,8.51,54.9,54.9,0,0,1-13.39,4.62c-2.28.57-4.58,1-6.88,1.41s-4.6.78-6.92,1.06l-3.47.46-3.47.38c-2.31.28-4.63.46-7,.67a476.67,476.67,0,0,1-55.74,1.08c-9.29-.34-18.57-.91-27.83-1.8s-18.5-2.06-27.66-3.85c-4.58-.9-9.13-2-13.63-3.34l-3.35-1.13c-1.11-.4-2.2-.88-3.3-1.32s-2.15-1.06-3.22-1.58-2-1.2-3-1.81a72.27,72.27,0,0,1-11.1-8.73,120.25,120.25,0,0,1-9.46-10.37c-1.49-1.78-3-3.56-4.48-5.25a31.07,31.07,0,0,0-4.89-4.54,11.41,11.41,0,0,0-5.81-2.26,14.42,14.42,0,0,0-6.29,1,48,48,0,0,0-6.09,3c-2,1.1-4.11,2.19-6.18,3.25-4.15,2.12-8.34,4.15-12.62,6-8.55,3.72-17.44,6.9-26.77,8.41a57.28,57.28,0,0,1-7.06.72,43.18,43.18,0,0,1-7.13-.24,35.86,35.86,0,0,1-7-1.5,31.58,31.58,0,0,1-3.36-1.33c-1.16-.52-2-.94-3.08-1.3-4.1-1.45-8.67-1-12.81.53a31.57,31.57,0,0,0-6,3,41.28,41.28,0,0,0-5.44,4,50.51,50.51,0,0,0-4.86,4.74,53.73,53.73,0,0,0-4.25,5.31,40.73,40.73,0,0,0-6,12,15.22,15.22,0,0,0-.6,6.37c.3,2.36.51,4.65.75,7,.46,4.61.94,9.21,1.48,13.81q1.59,13.79,3.78,27.51,4.35,27.42,11.23,54.36c9.21,35.83,21.91,70.85,39.24,103.53a414.32,414.32,0,0,0,29.45,47c5.38,7.53,10.95,14.91,16.79,22.07a264.59,264.59,0,0,0,18.49,20.58c3.27,3.24,6.66,6.36,10.2,9.27,1.77,1.45,3.58,2.85,5.45,4.17q1.4,1,2.83,1.9c1,.66,1.8,1.06,3.08,1.91-2.28,5.18-2.64,1.36-4,2.53-1.12,0-2.25.06-3.37.16a56.34,56.34,0,0,0-6.71,1,27.26,27.26,0,0,1-3.58.6,24.3,24.3,0,0,1-3.69,0,29.28,29.28,0,0,1-7.12-1.46,50.41,50.41,0,0,1-12.63-6.59,93.72,93.72,0,0,1-10.86-9,174.24,174.24,0,0,1-18.44-21.08A354.74,354.74,0,0,1,1329.19,997c-8.67-16.45-16.42-33.38-23.47-50.57s-13.47-34.64-19-52.41c-.7-2.22-1.47-4.41-2.12-6.64l-1.89-6.71L1279,867.2l-3.24-13.56-1.62-6.78-1.35-6.84-2.7-13.68-2.16-13.78-1.07-6.89-.8-6.93c-.52-4.62-1.1-9.23-1.57-13.86l-1-13.91c-.15-2.32-.41-4.63-.46-7l-.24-7-.24-7c-.07-2.32-.2-4.65-.14-7l.09-14,0-3.49.17-3.48.34-7c.24-4.64.37-9.3.88-13.92l1.26-13.9,1.84-13.83.47-3.46c.15-1.15.3-2.31.53-3.45l1.23-6.87,1.23-6.87.62-3.43.77-3.4,3.09-13.61c1.14-4.51,2.45-9,3.67-13.47l.93-3.36c.3-1.12.62-2.24,1-3.34l2.18-6.63c1.47-4.41,2.84-8.87,4.46-13.22,3.14-8.74,6.36-17.45,9.74-26.1s6.93-17.25,10.79-25.73c1.95-4.23,3.94-8.45,6.13-12.58a100.66,100.66,0,0,1,7.31-12.07,32.61,32.61,0,0,1,4.8-5.47,12.52,12.52,0,0,1,3.3-2.14,6.3,6.3,0,0,1,4.4-.33c3,1,4.38,3.76,5.51,5.56a20.29,20.29,0,0,0,4,5c3.12,2.72,7.67,3,12,2.37a61.54,61.54,0,0,0,13-3.75,209.81,209.81,0,0,0,24.78-12.13c2-1.15,4-2.26,6-3.44l3-1.75c1-.58,2.06-1.13,3.09-1.7s2.06-1.16,3.12-1.67l3.19-1.5c2.11-1,4.3-1.87,6.47-2.76a199.52,199.52,0,0,1,26.78-8.21q13.61-3.24,27.44-5.24a510.56,510.56,0,0,1,55.56-5q27.87-1.06,55.76.41a423.65,423.65,0,0,1,55.45,6.3q6.87,1.3,13.68,3c2.27.55,4.51,1.27,6.77,1.89s4.44,1.39,6.65,2.12q13.26,4.37,26.25,9.49c17.33,6.76,34.23,14.53,51.15,22,4.24,1.86,8.48,3.7,12.76,5.34,2.14.82,4.29,1.58,6.45,2.23a23.11,23.11,0,0,0,6.33,1.13c1.1-.06,1.78-.39,1.27,0a6.77,6.77,0,0,0-.76-2.49,41.22,41.22,0,0,0-3.43-5.72,126.33,126.33,0,0,0-8.54-10.74,255.25,255.25,0,0,0-19.42-19.65q-10.22-9.33-21.2-17.79a334,334,0,0,0-46.41-30.08,277.23,277.23,0,0,0-51-21.21,220.51,220.51,0,0,0-54.29-9.3c-4.59-.2-9.19-.17-13.82-.1-2.31,0-4.62,0-6.93.12l-6.92.26c-2.31.06-4.61.21-6.92.36l-6.91.45-6.89.63-3.45.32-3.43.42a266.78,266.78,0,0,0-53.94,11.7,203.73,203.73,0,0,0-25.52,10.45c-4.16,2-8.17,4.22-12.19,6.45l-5.91,3.56c-2,1.2-3.85,2.52-5.77,3.77a217.79,217.79,0,0,0-21.8,16.89,258.41,258.41,0,0,0-19.52,19.53A343.49,343.49,0,0,0,1332,529.92c-2.44,3.92-4.93,7.81-7.26,11.81-1.17,2-2.38,4-3.53,6l-3.44,6a207.25,207.25,0,0,0-12.22,24.71c-3.41,8.47-6.17,17.31-6.67,26.25a32.78,32.78,0,0,0,1.68,13,21.93,21.93,0,0,0,7.6,10.11,32.63,32.63,0,0,0,12,5.27,62.61,62.61,0,0,0,13.39,1.55,119.82,119.82,0,0,0,27.15-3,135.29,135.29,0,0,0,13.23-3.58c1.1-.35,2.1-.74,3.27-1.11s2.28-.77,3.41-1.06l3.39-1,3.4-.87c9.06-2.27,18.16-4.18,27.28-6,18.24-3.6,36.59-6.57,55-9.19s36.86-4.75,55.38-6.42,37.08-2.82,55.68-3.28,37.24-.23,55.85,1.15c2.32.18,4.65.31,7,.54l7,.73c4.65.41,9.27,1.17,13.9,1.79,2.32.28,4.62.74,6.92,1.15l6.91,1.25,6.86,1.57,3.43.79c1.14.26,2.27.63,3.4.93l6.78,1.94c2.25.69,4.46,1.54,6.69,2.31l3.34,1.18c1.11.41,2.18.93,3.27,1.39,2.17,1,4.35,1.88,6.5,2.86A220.22,220.22,0,0,1,1743,632.62a211.9,211.9,0,0,1,42.44,36.89,265.82,265.82,0,0,1,17.43,22.06c2.72,3.8,5.35,7.65,8,11.48s5.2,7.66,8,11.1c.69.85,1.39,1.67,2.11,2.4a13.19,13.19,0,0,0,2.13,1.86,3.45,3.45,0,0,0,1.58.67,2,2,0,0,0,1.19-.54,9.05,9.05,0,0,0,1.72-1.91,16,16,0,0,0,1.5-2.5,27,27,0,0,0,1.84-5.9,75.17,75.17,0,0,0,1.22-13.24c.05-4.52-.13-9.07-.45-13.62-.66-9.11-1.88-18.23-3.39-27.3s-3.36-18.1-5.45-27.06a418.38,418.38,0,0,0-15.83-52.81,178.55,178.55,0,0,0-11.35-24.75A51.85,51.85,0,0,0,1788,539a24.46,24.46,0,0,0-2.29-2,13.08,13.08,0,0,0-2.17-1.44c-1.44,1.46,4.71-2.63,3-2.1a12.7,12.7,0,0,0,.61,2.49c.65,2,1.52,4.07,2.42,6.14s1.87,4.15,2.85,6.22c2,4.14,4,8.28,6.1,12.42,4.15,8.28,8.35,16.56,12.45,24.91s8.11,16.78,11.84,25.38a193.33,193.33,0,0,1,9.69,26.69,71.37,71.37,0,0,1,1.51,7.21l.5,3.4c.14,1.1.4,2.17.59,3.26a78.48,78.48,0,0,0,3.72,12.71,130.54,130.54,0,0,0,5.57,12.3c2.06,4.09,4.26,8.23,6.25,12.62a70.31,70.31,0,0,1,4.79,13.92,58.1,58.1,0,0,1,1.26,14.87,77.39,77.39,0,0,1-2.15,14.52l-1.77,6.75c-.54,2.16-1,4.37-1.45,6.6-1.74,8.91-2.94,18-4,27.19s-1.9,18.35-2.68,27.57c-1.56,18.43-2.76,36.92-4.06,55.43-.65,9.26-1.3,18.52-2.05,27.8s-1.55,18.54-3,28a69.7,69.7,0,0,1-1.48,7.29,15.22,15.22,0,0,1-1.93,4.55c-.77,1-1.54,2.08-2.32,3-3.11,3.74-6.21,7.08-9.14,10.57a122.69,122.69,0,0,0-8.2,10.68c-1.3,1.81-2.41,3.73-3.59,5.61l-1.6,2.9c-.55,1-1.06,1.94-1.51,2.94l-1.42,3-1.23,3.06a31.26,31.26,0,0,0-1.14,3.09l-1,3.13c-.35,1-.55,2.12-.84,3.18s-.57,2.12-.77,3.2l-.56,3.25c-.19,1.08-.39,2.14-.54,3.33-1.28,9.26-2.82,18.51-4.72,27.71s-4.19,18.34-7,27.36a175.63,175.63,0,0,1-10.54,26.48,95.52,95.52,0,0,1-16.5,23.9,68,68,0,0,1-11.45,9.38,108.19,108.19,0,0,1-12.63,7.08,213.59,213.59,0,0,1-26.45,10.27c-4.45,1.45-8.91,2.81-13.32,4.19s-8.81,2.75-12.76,4.39a27.27,27.27,0,0,0-2.69,1.29,7,7,0,0,0-1.33.92c.5-.15.05-2.62,0-2a4,4,0,0,0,1.28.66,31.69,31.69,0,0,0,5.92,1.29c2.19.31,4.46.56,6.76.81,9.21,1,18.81,2.08,28.15,5.14a57.37,57.37,0,0,1,13.5,6.33,43.75,43.75,0,0,1,11.16,10.34,45.47,45.47,0,0,1,6.91,13.46,58.79,58.79,0,0,1,1.83,7.22l1.13,7a210.73,210.73,0,0,1,2.21,28.23,235,235,0,0,1-1.6,28.21c-2.14,18.71-6.54,37-11.64,54.91l-1.94,6.71c-.31,1.1-.7,2.28-.94,3.3s-.55,2.05-.73,3.11a54.28,54.28,0,0,0-.72,13.11,117.49,117.49,0,0,0,4.91,26.59q1.92,6.56,4.34,13c1.59,4.29,3.36,8.51,5.23,12.69a211.24,211.24,0,0,0,12.82,24.26c2.4,3.88,5,7.65,7.72,11.25a63.91,63.91,0,0,0,9,9.8,22.78,22.78,0,0,0,2.52,1.83,10.89,10.89,0,0,0,2,1c-2.95,1.69-1.19,2-2,.59a28.88,28.88,0,0,0-1.33-2.89c-2.07-4-4.5-7.93-6.89-11.88-9.66-15.81-19.35-31.8-27.17-48.82a160.46,160.46,0,0,1-9.73-26.44,84.8,84.8,0,0,1-2.49-14,50.56,50.56,0,0,1,.69-14.45,36.1,36.1,0,0,1,2.19-7,31.51,31.51,0,0,1,1.66-3.32c.64-1.1,1.28-2.08,1.86-3,2.45-3.86,4.68-7.87,6.81-11.93a212.25,212.25,0,0,0,18.61-51.71,168.06,168.06,0,0,0,3.71-27.22,114.86,114.86,0,0,0-1.63-27.25c-.36-2.25-1-4.43-1.49-6.64-.28-1.1-.66-2.17-1-3.25a33.37,33.37,0,0,0-1.1-3.21L1768,1150l-1.42-3.07a32.85,32.85,0,0,0-1.56-3c-.57-1-1-2-1.7-2.91a60.93,60.93,0,0,0-8.4-10.51c-3.31-3.29-6.56-6.64-9.67-10.16-1.55-1.77-3.08-3.56-4.52-5.49a28.49,28.49,0,0,1-2.07-3.12c-3.26-.09,2.13-6.59,3.61-3.79a22,22,0,0,1,3,2.4c.89.83,1.73,1.69,2.54,2.56,1.63,1.74,3.14,3.56,4.6,5.42a130.65,130.65,0,0,1,14.69,24,138.6,138.6,0,0,1,5.42,13c1.62,4.4,3,8.88,4.25,13.39,5,18.07,7.29,36.65,9.17,55.11,1,9.23,1.78,18.47,3,27.6.62,4.56,1.36,9.1,2.38,13.54.26,1.11.52,2.22.83,3.31s.62,2.18,1,3.25.76,2.11,1.14,3.17l1.36,3.14a55.9,55.9,0,0,1,3.8,13.79c.76,4.67,1.12,9.35,1.4,14,.56,9.3.67,18.57,2,27.6a56.1,56.1,0,0,0,3.33,13.05,30.51,30.51,0,0,0,3.09,5.82,25.54,25.54,0,0,0,4.34,4.84c.88.67,1.65,1.29,2.72,2.07a21.32,21.32,0,0,1,2.75,2.6,18.13,18.13,0,0,1,3.66,6.64c1.48,4.89,1,10-.25,14.62a55.93,55.93,0,0,1-5.58,13.15,72.36,72.36,0,0,1-8.22,11.59,39,39,0,0,1-5.21,5,8.09,8.09,0,0,1-3.93,1.89c-4.88-2.3-.89-4.46-1.33-5.1,1.17-2.13,2.41-4.06,3.61-6s2.39-3.95,3.55-5.94a166.48,166.48,0,0,0,11.89-24.83,143.06,143.06,0,0,0,6.06-81.24,173.55,173.55,0,0,0-7.84-26.41c-1.64-4.3-3.47-8.52-5.36-12.75s-3.84-8.4-5.9-12.53-4.21-8.2-6.54-12.16c-1.16-2-2.37-3.92-3.65-5.81a44.22,44.22,0,0,0-4.11-5.3c-.46-.73-2.17-1.61-1.44-1.48,1.47-1.82.53.6,1.34,1.13a30.47,30.47,0,0,0,3.47,5.61,62.42,62.42,0,0,0,9.41,9.76,87.16,87.16,0,0,0,23.41,13.94,110.94,110.94,0,0,0,26.49,7c4.55.64,9.1,1,13.72,1.22l13.94,1c9.26,1,18.52,2.08,27.67,3.91a266.8,266.8,0,0,1,53.5,15.92,243.52,243.52,0,0,1,48.74,27.22l5.59,4.21c.92.71,1.88,1.38,2.77,2.13l2.69,2.23c1.79,1.5,3.61,3,5.36,4.49l5.18,4.71a238.11,238.11,0,0,1,19.24,20.28c12.09,14.11,23.48,29,32.67,45.27a150.28,150.28,0,0,1,11.55,25.55,103.12,103.12,0,0,1,5.48,27.58,93.47,93.47,0,0,1-.35,14.11c-.46,4.63-1,9.26-1.73,13.89a81.16,81.16,0,0,1-3.19,13.8,24,24,0,0,1-1.48,3.39,9.55,9.55,0,0,1-2.58,3.17,4.6,4.6,0,0,1-4.73.45,10,10,0,0,1-3.16-2.55,33.41,33.41,0,0,1-4-6.08c-1.11-2.1-2.11-4.23-3-6.39-1.86-4.3-3.47-8.71-5-13.06-3.17-8.54-7.52-16.74-12-24.8-9-16.12-19-31.74-29.27-47.17s-20.83-30.65-31.65-45.69-21.82-30-33.33-44.45c-1.44-1.81-2.9-3.6-4.38-5.36-.74-.88-1.48-1.76-2.24-2.6a30.92,30.92,0,0,0-2.3-2.41,9.16,9.16,0,0,0-2.36-1.7c-.84-.08-.14-.43-.62.31a9.25,9.25,0,0,0-.17,2.91,30.65,30.65,0,0,0,.42,3.27,88.61,88.61,0,0,0,3.69,13.14c1.53,4.32,3.26,8.59,5.13,12.79a206.46,206.46,0,0,0,12.91,24.37c2.42,3.92,5,7.7,7.7,11.46s5.26,7.72,7.79,11.63c10,15.71,19.25,31.78,28.53,47.85l27.65,48.28c9.27,16,18.53,32.12,28.49,47.68,2.51,3.87,5.07,7.7,7.79,11.36a48.09,48.09,0,0,0,4.28,5.1,7.63,7.63,0,0,0,2.2,1.73,1.41,1.41,0,0,0,1.53,0,5.24,5.24,0,0,0,1.53-1.94,18.6,18.6,0,0,0,1.16-2.92,48.27,48.27,0,0,0,1.48-6.51c.73-4.47,1.13-9,1.42-13.63.55-9.18.61-18.43.53-27.67,0-4.62-.13-9.25-.22-13.89l-.11-7c1.78-.44-4-3.94,4.1-2.23.08,1.22.12,2.37.16,3.54.54,18.61.5,37.16.15,55.75s-1.12,37.15-2.72,55.71c-.82,9.28-1.84,18.54-3.39,27.78-.79,4.62-1.7,9.23-2.94,13.81-.6,2.29-1.42,4.61-1.91,6.68a25,25,0,0,0-.74,3.24l-.58,3.33a198.72,198.72,0,0,0-1.59,27.43q0,13.83.69,27.69c.86,18.47,2.4,36.93,4.2,55.35s4,36.82,6.31,55.2,5,36.71,7.78,55,5.84,36.57,9.22,54.75q2.51,13.64,5.4,27.16c.48,2.25,1,4.5,1.49,6.73l1.56,6.82a72.12,72.12,0,0,1,1.28,7.35,16.43,16.43,0,0,1-.07,4.95c.32,5.84-13.1,4.73-10.57,2.56a26.68,26.68,0,0,1-2.79-3.28c-.77-1-1.46-2.06-2.14-3.08-1.34-2-2.58-4.08-3.78-6.13-2.4-4.09-4.66-8.2-6.87-12.32-4.41-8.25-8.64-16.55-12.79-24.88-16.53-33.34-32.07-67-47.64-100.71L2027.16,1776c-2-4.19-3.93-8.37-5.93-12.49l-1.5-3.06a22.32,22.32,0,0,1-1.6-4.4,42.48,42.48,0,0,1-1.15-8,104.15,104.15,0,0,1,.37-14.73c.42-4.79,1-9.5,1.74-14.17,1.43-9.35,3.26-18.55,5.27-27.69,4-18.28,8.8-36.31,13.9-54.23s10.58-35.71,16.37-53.41q4.35-13.27,9-26.47c3.13-8.81,6.27-17.54,10-26.35.47-1.11,1-2.22,1.5-3.36a28.58,28.58,0,0,1,2.12-3.89c7-8,15.58,10.87,11,5.9-.2,1.37-.44,2.58-.7,3.78-1,4.75-2.23,9.27-3.43,13.78q-3.6,13.41-7,26.83c-4.47,17.91-8.48,35.9-11.78,54s-5.83,36.31-7.29,54.6c-.82,9.14-1.2,18.3-1.51,27.46-.14,9.16-.2,18.33.23,27.47s1.07,18.27,2,27.38c1.06,9.09,2.24,18.16,3.93,27.15a367,367,0,0,0,13.66,53.09c3,8.64,6.18,17.22,9.78,25.64l5.49,12.71,2.81,6.43,2.67,6.49c3.59,8.64,6.82,17.45,9.92,26.29s5.85,17.82,8.26,26.89a442.27,442.27,0,0,1,11.22,55.08c2.64,18.52,4.22,37.07,6.57,55.31,1.19,9.12,2.6,18.16,4.51,27.07a214.28,214.28,0,0,0,7.32,26.23c.71,2.16,1.54,4.27,2.36,6.38l1.23,3.17,1.34,3.13c.89,2.09,1.77,4.18,2.78,6.22l1.46,3.08,1.48,3.16,3,6.5,2.64,6.58c.92,2.19,1.68,4.41,2.47,6.62s1.61,4.43,2.34,6.65c5.89,17.82,10.58,35.88,14.83,54s8,36.36,11.44,54.62,6.66,36.56,9.67,54.89c12,73.31,21.44,147,30.65,220.57l3.48,27.6,1.76,13.79c.63,4.58,1.22,9.15,1.93,13.7,1.37,9.12,3,18.19,4.88,27.22s4,18,6.43,26.89,5.08,17.72,8,26.46,6.12,17.4,9.41,26.06,6.76,17.28,9.36,26.47a69.66,69.66,0,0,1,1.59,7.06c.21,1.2.32,2.45.46,3.67a37.64,37.64,0,0,1,.07,3.78,23.17,23.17,0,0,1-.39,3.83,26.43,26.43,0,0,1-.94,3.78,26.14,26.14,0,0,1-1.59,3.56,21.44,21.44,0,0,1-2.08,3.29,53,53,0,0,1-10.69,10,124.64,124.64,0,0,1-11.94,7.69,226.69,226.69,0,0,1-25.3,12.31q-13,5.39-26.41,9.5a219.18,219.18,0,0,1-27.35,6.57,129.88,129.88,0,0,1-14.08,1.63,70,70,0,0,1-14.4-.51,34.26,34.26,0,0,1-7.23-1.89,19.76,19.76,0,0,1-3.62-1.82,17,17,0,0,1-3-2.81,78.08,78.08,0,0,1-7.85-12c-4.54-8.23-8.51-16.66-12.37-25.13s-7.52-17-11.11-25.58c-14.31-34.29-27.56-69-40.61-103.7s-25.73-69.61-38.32-104.5l-37.53-104.77c-12.49-34.93-24.91-69.88-37.75-104.66-3.21-8.7-6.49-17.34-9.8-26-1.56-4.41-3.25-8.78-4.52-13.28-.67-2.24-1.39-4.46-2-6.72l-1.74-6.79a346.11,346.11,0,0,1-8.73-55.19,554.07,554.07,0,0,1-1.68-55.78c.33-18.6,1.43-37.17,3.11-55.67a1017.11,1017.11,0,0,1,16.5-110.19,1044.12,1044.12,0,0,1,27.92-107.87,93.22,93.22,0,0,1,5.31-13.11,41,41,0,0,1,3.78-6.15,18.67,18.67,0,0,1,5.59-5.1,10.06,10.06,0,0,1,7.93-.83,17.06,17.06,0,0,1,6.45,4,52.37,52.37,0,0,1,8.64,11.4,181.79,181.79,0,0,1,11.88,25.4c3.39,8.68,6.43,17.47,9.28,26.32,5.68,17.7,10.65,35.61,15.31,53.58s9,36,13.11,54.12c16.57,72.38,29.87,145.37,45.17,218l44.92,218c15.11,72.63,30.24,145.26,46.17,217.71,4,18.1,8,36.21,12.47,54.18l1.77,6.68.89,3.34c.35,1.08.73,2.14,1.09,3.21a39.24,39.24,0,0,0,6.56,11.64,31.82,31.82,0,0,0,2.28,2.4c.81.74,1.7,1.39,2.55,2.07.95.53,1.83,1.2,2.83,1.64a18.41,18.41,0,0,0,3,1.18,23.67,23.67,0,0,0,13,0,42.37,42.37,0,0,0,12.16-5.65,72.6,72.6,0,0,0,10.62-8.55,139.44,139.44,0,0,0,17.59-21.13,252.54,252.54,0,0,0,14.32-23.65c4.34-8.15,8.31-16.5,12.08-24.94l2.72-6.38c.9-2.13,1.83-4.25,2.65-6.39,1.66-4.28,3.08-8.65,4.33-13.07a198.57,198.57,0,0,0,5.53-27,182.9,182.9,0,0,0,1.76-27.52c0-2.29-.17-4.58-.38-6.84a39.57,39.57,0,0,0-1.11-6.6,8.44,8.44,0,0,0-1.15-2.67c-.58-.47,0-.41-.86.1a18.06,18.06,0,0,0-1.8,2.57c-.62.91-1.17,1.92-1.73,2.92-4.45,8-8.46,16.41-12.48,24.74s-7.89,16.77-11.74,25.2q-11.58,25.28-22.75,50.75h0a1.5,1.5,0,0,1-2.77-1.15c8.56-21.73,17.59-43.24,27.31-64.47,4.89-10.6,9.95-21.14,15.52-31.44,2.79-5.15,5.7-10.24,9-15.16a80.56,80.56,0,0,1,5.28-7.18,10.89,10.89,0,0,1,1.85-1.76,5.3,5.3,0,0,1,1.35-.72,3.58,3.58,0,0,1,1.9-.11,3.71,3.71,0,0,1,1.63.91,5.68,5.68,0,0,1,.92,1.18,11.38,11.38,0,0,1,1,2.32,43.8,43.8,0,0,1,1.46,8.94c.24,3,.34,5.89.4,8.83.1,5.87,0,11.72-.21,17.56-.39,11.68-1.09,23.33-1.86,35-1.56,23.28-3.45,46.51-5.13,69.76s-3.3,46.5-3.75,69.74c-.1,5.81-.1,11.62.09,17.4s.3,11.68.36,17.52c.11,11.67,0,23.34-.16,35-.35,23.32-1.05,46.63-1.76,69.94-.35,11.65-.71,23.3-1,34.94-.12,5.82-.23,11.64-.2,17.44,0,1.45,0,2.89.09,4.32,0,.72.06,1.43.12,2.12a13.66,13.66,0,0,0,.24,1.9s0,.11,0,.09a.88.88,0,0,0-.16-.22c-.12-.41-1.54-.6-1.8-.15a.84.84,0,0,0-.2.2,4.45,4.45,0,0,0,.26-.69c.19-.62.35-1.31.51-2q.44-2.07.76-4.2c.84-5.68,1.31-11.48,1.67-17.26s.56-11.6.67-17.41c.21-11.62,0-23.25-.65-34.84-.34-5.79-.82-11.58-1.51-17.32a140.75,140.75,0,0,0-3-17,53.9,53.9,0,0,0-2.62-8.07,23.83,23.83,0,0,0-1.93-3.6,8.12,8.12,0,0,0-2.58-2.53,3.56,3.56,0,0,0-3-.23,9.67,9.67,0,0,0-3.13,2,34.76,34.76,0,0,0-5.22,6.51c-12.88,19.3-23.27,40.19-34.27,60.76-2.75,5.15-5.55,10.28-8.48,15.35s-6,10.08-9.41,14.9-7.17,9.49-12.09,13.19l-1.93,1.29c-.69.38-1.39.73-2.09,1.09s-1.5.56-2.25.83l-2.16.58c-2.87.72-5.76,1.3-8.66,1.82a183.89,183.89,0,0,1-35.1,2.71c-11.74-.28-23.6-1.69-34.84-5.63a59.17,59.17,0,0,1-15.84-8.27l-.91-.66-.86-.74-1.71-1.48c-1.12-1-2.11-2.16-3.17-3.23s-1.9-2.36-2.77-3.59l-1.21-1.92a16,16,0,0,1-1.13-2,43.46,43.46,0,0,1-3.33-8.4,67.56,67.56,0,0,1-1.88-8.73,110.6,110.6,0,0,1-1.09-17.67,325.9,325.9,0,0,1,3-35c1.45-11.58,3-23.11,4-34.67.48-5.78.81-11.57.91-17.35a155.13,155.13,0,0,0-.74-17.28,85,85,0,0,0-9.7-32.71v0a1.5,1.5,0,0,1,2.62-1.45,87.93,87.93,0,0,1,10.07,33.87,158.14,158.14,0,0,1,.76,17.63c-.1,5.87-.43,11.73-.92,17.56-1,11.67-2.58,23.24-4,34.79a323.26,323.26,0,0,0-3,34.66,107.64,107.64,0,0,0,1.06,17.19,51.11,51.11,0,0,0,4.89,16.17,14,14,0,0,0,1,1.82l1.12,1.78c.81,1.14,1.7,2.22,2.57,3.32s1.9,2.07,2.95,3l1.59,1.38.8.69.86.62a56.18,56.18,0,0,0,15,7.84c10.8,3.79,22.39,5.19,33.91,5.46a180.94,180.94,0,0,0,34.52-2.67c2.84-.51,5.67-1.08,8.45-1.78l2.07-.56c.61-.24,1.23-.44,1.85-.69l1.78-.93,1.71-1.13c4.43-3.32,8.07-7.85,11.41-12.51s6.34-9.65,9.26-14.66,5.69-10.13,8.43-15.26c11-20.52,21.39-41.49,34.42-61a37.49,37.49,0,0,1,5.71-7.07,12.5,12.5,0,0,1,4.18-2.65c.43-.13.88-.23,1.32-.33a13,13,0,0,1,1.41-.05,6.81,6.81,0,0,1,2.68.8,11,11,0,0,1,3.64,3.48,26.68,26.68,0,0,1,2.2,4.1,56.77,56.77,0,0,1,2.78,8.54,143.6,143.6,0,0,1,3,17.4c.7,5.83,1.18,11.66,1.53,17.51.68,11.68.86,23.38.65,35.07-.11,5.85-.32,11.69-.68,17.53s-.83,11.68-1.7,17.53q-.33,2.19-.8,4.4c-.16.73-.33,1.46-.57,2.24a6.36,6.36,0,0,1-.54,1.34,2.29,2.29,0,0,1-.53.63,1.74,1.74,0,0,1-2.28-.2,2.24,2.24,0,0,1-.41-.7,4.29,4.29,0,0,1-.14-.43,15.66,15.66,0,0,1-.33-2.43c-.06-.76-.09-1.5-.12-2.24-.06-1.48-.08-2.95-.09-4.41,0-5.86.07-11.69.2-17.53.26-11.66.62-23.32,1-35,.7-23.3,1.4-46.6,1.75-69.89.17-11.65.26-23.29.16-34.93-.06-5.82-.16-11.63-.36-17.44s-.19-11.71-.09-17.56c.46-23.37,2.1-46.65,3.76-69.91s3.58-46.49,5.13-69.74c.77-11.62,1.46-23.25,1.85-34.87.19-5.81.3-11.62.2-17.41-.06-2.89-.16-5.78-.39-8.64a41.32,41.32,0,0,0-1.33-8.28,8.53,8.53,0,0,0-.71-1.69,2.78,2.78,0,0,0-.41-.55.88.88,0,0,0-.25-.16.71.71,0,0,0-.25,0,2.41,2.41,0,0,0-.57.32,8.06,8.06,0,0,0-1.3,1.26,77.74,77.74,0,0,0-5.06,6.9c-3.18,4.8-6.05,9.84-8.82,14.93-5.52,10.21-10.56,20.7-15.43,31.26-9.69,21.15-18.71,42.65-27.24,64.3l-2.77-1.15h0q11.23-25.47,22.81-50.78,5.79-12.65,11.77-25.23c4-8.37,8-16.73,12.59-24.92.57-1,1.12-2,1.81-3.06a18.5,18.5,0,0,1,2.23-3.09c.61-1.41,4.44-1.62,5.17.2a10.89,10.89,0,0,1,1.66,3.69,42.26,42.26,0,0,1,1.2,7.11c.22,2.36.34,4.71.39,7.05a186,186,0,0,1-1.79,28,201.42,201.42,0,0,1-5.62,27.44c-1.28,4.5-2.72,9-4.42,13.33-.84,2.2-1.77,4.33-2.68,6.47l-2.74,6.42c-3.8,8.5-7.8,16.91-12.18,25.13a255.44,255.44,0,0,1-14.5,23.93,142.23,142.23,0,0,1-18,21.57,75.44,75.44,0,0,1-11,8.88,45.18,45.18,0,0,1-13,6,26.54,26.54,0,0,1-14.54-.08,21.25,21.25,0,0,1-3.45-1.35,35.42,35.42,0,0,1-3.2-1.86c-1-.76-2-1.49-2.86-2.32a34.68,34.68,0,0,1-2.52-2.65,42.06,42.06,0,0,1-7.07-12.5c-.38-1.13-.79-2.25-1.15-3.38l-.9-3.38-1.8-6.77c-4.44-18.06-8.47-36.16-12.48-54.27-15.91-72.48-31-145.11-46.18-217.74l-45-218c-15.31-72.59-28.65-145.61-45.21-217.88-4.13-18.07-8.46-36.09-13.11-54s-9.62-35.79-15.28-53.4c-2.84-8.8-5.86-17.55-9.23-26.14a179,179,0,0,0-11.69-24.95,49.57,49.57,0,0,0-8.1-10.72,14.11,14.11,0,0,0-5.26-3.32,6.94,6.94,0,0,0-5.56.59,15.72,15.72,0,0,0-4.61,4.26,38,38,0,0,0-3.49,5.7,90.25,90.25,0,0,0-5.11,12.67,1041.22,1041.22,0,0,0-27.74,107.53,1013.89,1013.89,0,0,0-16.36,109.85c-3.3,36.86-4.42,74-1.34,110.87a342.76,342.76,0,0,0,8.68,54.65l1.72,6.7c.61,2.22,1.33,4.41,2,6.62,1.25,4.44,2.92,8.73,4.46,13.07,3.3,8.66,6.61,17.34,9.83,26,12.88,34.81,25.33,69.75,37.85,104.67l37.62,104.73q18.93,52.32,38.39,104.43c13.07,34.7,26.33,69.34,40.66,103.52,3.6,8.54,7.27,17,11.1,25.46s7.81,16.78,12.26,24.83a74.94,74.94,0,0,0,7.42,11.39,13.42,13.42,0,0,0,2.23,2.15,16.84,16.84,0,0,0,2.79,1.37,30.35,30.35,0,0,0,6.41,1.65,66.15,66.15,0,0,0,13.56.45,126,126,0,0,0,13.64-1.61,215.28,215.28,0,0,0,26.83-6.49c8.82-2.69,17.5-5.85,26-9.4a222.71,222.71,0,0,0,24.81-12.12,120.61,120.61,0,0,0,11.53-7.45,49,49,0,0,0,9.82-9.16,17.32,17.32,0,0,0,1.72-2.74,22,22,0,0,0,1.32-3,22.26,22.26,0,0,0,.77-3.14,19.07,19.07,0,0,0,.32-3.25,44.64,44.64,0,0,0-2-13.25c-2.5-8.79-6-17.39-9.29-26.06s-6.56-17.39-9.53-26.2-5.7-17.71-8.14-26.69-4.63-18-6.55-27.13-3.58-18.26-5-27.45c-.72-4.59-1.33-9.21-2-13.8l-1.8-13.8-3.54-27.6c-9.42-73.58-19-147.14-31.25-220.29-3.06-18.28-6.28-36.54-9.8-54.73s-7.29-36.34-11.55-54.36-9-35.93-14.84-53.46c-.73-2.19-1.55-4.35-2.31-6.52s-1.53-4.35-2.43-6.47l-2.59-6.4-2.89-6.25c-1.92-4.19-4.09-8.38-5.86-12.69l-1.39-3.21-1.28-3.26c-.85-2.17-1.71-4.35-2.45-6.56a220.25,220.25,0,0,1-7.6-26.94c-2-9.12-3.45-18.32-4.67-27.54-2.42-18.44-4-36.91-6.71-55.22a436.78,436.78,0,0,0-11.2-54.27c-2.39-8.93-5.25-17.72-8.2-26.48s-6.28-17.39-9.85-25.92l-2.65-6.41-2.79-6.35-5.56-12.77c-3.68-8.55-6.95-17.28-10-26.07a373.76,373.76,0,0,1-14-54c-1.74-9.15-3-18.38-4.06-27.63-.93-9.26-1.72-18.54-2-27.84s-.4-18.61-.27-27.91c.3-9.3.68-18.6,1.49-27.86,1.45-18.55,4.07-37,7.3-55.28s7.32-36.44,11.8-54.47q3.36-13.52,7-27c1.19-4.47,2.37-8.95,3.32-13.43.24-1.12.45-2.24.61-3.32-1-2.1,1.58-.86,2-.79a23.52,23.52,0,0,0-1.51,2.84c-.48,1-.94,2.07-1.39,3.13-3.56,8.48-6.71,17.21-9.8,25.93s-6,17.51-8.92,26.31q-8.63,26.42-16.27,53.15c-5.06,17.82-9.78,35.74-13.77,53.81-2,9-3.78,18.11-5.17,27.23-.69,4.56-1.28,9.13-1.68,13.71a97.3,97.3,0,0,0-.35,13.68,35.48,35.48,0,0,0,.94,6.59,15.15,15.15,0,0,0,1.07,3l1.54,3.14c2,4.19,4,8.39,6,12.59l11.67,25.27c15.5,33.7,30.9,67.45,47.15,100.76,4.07,8.32,8.21,16.61,12.51,24.8,2.16,4.09,4.35,8.16,6.65,12.15,1.15,2,2.33,4,3.57,5.88a34.4,34.4,0,0,0,4,5.27c1.6.52-.2,1,0,.67a11.76,11.76,0,0,0,0-3,67.08,67.08,0,0,0-1.12-6.7c-1-4.48-2-9.06-2.93-13.6q-2.8-13.66-5.17-27.38c-3.22-18.29-6.06-36.63-8.72-55s-5.08-36.77-7.28-55.2-4.18-36.88-5.86-55.37-3.09-37-3.86-55.57q-.64-13.92-.56-27.89a203.7,203.7,0,0,1,1.73-28l.62-3.49a27.77,27.77,0,0,1,.8-3.48c.59-2.38,1.35-4.47,1.93-6.69,1.2-4.41,2.11-8.92,2.89-13.45,1.55-9.08,2.57-18.27,3.4-27.48,1.61-18.43,2.37-36.94,2.77-55.46s.43-37.07-.09-55.55c0-1.15-.08-2.31-.15-3.42,5.77-1.54,1.53,1.37,2.84,2l.1,6.93c.09,4.64.17,9.28.2,13.92.06,9.29,0,18.6-.57,27.91-.3,4.66-.7,9.32-1.47,14a51.49,51.49,0,0,1-1.6,7,21.8,21.8,0,0,1-1.4,3.47,8.36,8.36,0,0,1-2.72,3.22,4.85,4.85,0,0,1-4.73.22,10.63,10.63,0,0,1-3.17-2.4,50.94,50.94,0,0,1-4.61-5.5c-2.8-3.78-5.38-7.66-7.91-11.57-10-15.69-19.26-31.78-28.52-47.86L2016.48,1414c-9.25-16.06-18.51-32.13-28.4-47.76-2.51-3.88-5-7.77-7.68-11.5s-5.35-7.66-7.8-11.63a209.59,209.59,0,0,1-13.08-24.76c-1.9-4.27-3.66-8.6-5.21-13a91.41,91.41,0,0,1-3.8-13.62,33.58,33.58,0,0,1-.45-3.62,11.85,11.85,0,0,1,.3-4c-.1-1.71,3.36-3.42,4.67-2.24a11.72,11.72,0,0,1,3.28,2.29,33.78,33.78,0,0,1,2.5,2.62c.79.88,1.55,1.77,2.3,2.67,1.51,1.79,3,3.6,4.42,5.42,11.57,14.57,22.55,29.53,33.41,44.59s21.41,30.33,31.69,45.8,20.26,31.14,29.37,47.38c4.51,8.14,8.89,16.38,12.19,25.25,1.57,4.37,3.13,8.68,5,12.89.91,2.1,1.87,4.17,2.93,6.17a30.71,30.71,0,0,0,3.6,5.53,7.27,7.27,0,0,0,2.17,1.81,1.58,1.58,0,0,0,1.78-.16,6.84,6.84,0,0,0,1.72-2.2,21.22,21.22,0,0,0,1.3-3,78.62,78.62,0,0,0,3.06-13.26c.72-4.54,1.25-9.12,1.71-13.71a90.46,90.46,0,0,0,.35-13.66,100.21,100.21,0,0,0-5.32-26.8,147.41,147.41,0,0,0-11.32-25.06c-9-16-20.31-30.78-32.33-44.81a235.07,235.07,0,0,0-19-20.06l-5.11-4.65c-1.73-1.52-3.53-3-5.3-4.43l-2.66-2.21c-.88-.74-1.83-1.4-2.74-2.1l-5.52-4.16a240.64,240.64,0,0,0-48.18-26.88,263.89,263.89,0,0,0-52.92-15.73c-9-1.81-18.22-2.88-27.39-3.86l-13.81-1c-4.64-.24-9.35-.58-14-1.23a113.88,113.88,0,0,1-27.2-7.14,90.11,90.11,0,0,1-24.21-14.41,65.36,65.36,0,0,1-9.86-10.24,33.22,33.22,0,0,1-3.82-6.2c.2-1.4-2.58-1.8.79-5.26,3.12.34,3,1.54,4.19,2.34a46.88,46.88,0,0,1,4.41,5.68c1.33,2,2.56,3.95,3.75,6,2.38,4,4.56,8.17,6.64,12.34s4.06,8.39,6,12.64,3.76,8.53,5.42,12.9a176.56,176.56,0,0,1,8,26.87,148.18,148.18,0,0,1,1.24,55.86,156.88,156.88,0,0,1-19.48,52.37c-1.17,2-2.37,4-3.58,6s-2.46,4-3.52,5.9c-1,.89,0,2.47-1.56.57a6.51,6.51,0,0,0,2.23-1.26,36.09,36.09,0,0,0,4.77-4.64,69.3,69.3,0,0,0,7.85-11.09,52.88,52.88,0,0,0,5.27-12.41c1.14-4.29,1.52-8.83.27-12.91a15,15,0,0,0-3-5.5,18.2,18.2,0,0,0-2.32-2.19c-.81-.59-1.85-1.4-2.81-2.14a28.68,28.68,0,0,1-4.9-5.45,33.65,33.65,0,0,1-3.42-6.41,59.17,59.17,0,0,1-3.54-13.79c-1.34-9.33-1.45-18.66-2-27.87-.29-4.6-.65-9.19-1.38-13.69a52.79,52.79,0,0,0-3.58-13l-1.4-3.24c-.41-1.12-.86-2.23-1.21-3.36s-.72-2.26-1-3.4-.6-2.28-.86-3.43c-1.06-4.59-1.81-9.21-2.44-13.83-1.25-9.24-2.08-18.49-3-27.7-1.89-18.41-4.21-36.81-9.11-54.57-1.22-4.44-2.59-8.83-4.18-13.14a135.27,135.27,0,0,0-5.3-12.7,127.38,127.38,0,0,0-14.32-23.4c-1.41-1.79-2.88-3.54-4.42-5.2-.77-.83-1.56-1.63-2.38-2.39a19.18,19.18,0,0,0-2.48-2c-1.23,0,1.88-2.56,1.13-.65a25.58,25.58,0,0,0,1.81,2.71c1.34,1.8,2.83,3.55,4.34,5.27,3,3.43,6.26,6.74,9.53,10a64.35,64.35,0,0,1,8.89,11.1c.69,1,1.19,2.05,1.79,3.07a35.48,35.48,0,0,1,1.65,3.15l1.5,3.22,1.28,3.31c.45,1.1.81,2.22,1.15,3.35s.73,2.25,1,3.39c.55,2.29,1.18,4.57,1.56,6.9a118.25,118.25,0,0,1,1.71,28.05,171.46,171.46,0,0,1-3.76,27.78,216.26,216.26,0,0,1-18.84,52.61c-2.16,4.14-4.42,8.24-6.93,12.2-.62,1-1.25,2-1.78,2.91a27.93,27.93,0,0,0-1.47,3,32.52,32.52,0,0,0-2,6.34,47,47,0,0,0-.6,13.42,80.55,80.55,0,0,0,2.41,13.42,156.83,156.83,0,0,0,9.6,25.79c7.76,16.74,17.41,32.55,27.13,48.34,2.41,4,4.86,7.91,7.08,12.09a32.66,32.66,0,0,1,1.54,3.31c-.06.48,2.32,3.8-1.9,4.85a9.36,9.36,0,0,1-3.87-1.59,26.64,26.64,0,0,1-3-2.15,67.57,67.57,0,0,1-9.68-10.41c-2.87-3.72-5.52-7.59-8-11.55a215.43,215.43,0,0,1-13.2-24.69c-1.93-4.25-3.76-8.55-5.4-12.92s-3.18-8.79-4.52-13.27a122,122,0,0,1-5.24-27.61,58.89,58.89,0,0,1,.71-14.21c.19-1.18.54-2.34.8-3.52s.63-2.24.94-3.37l1.9-6.68c5-17.81,9.21-35.85,11.21-54.19a230.82,230.82,0,0,0,1.43-27.58,205.46,205.46,0,0,0-2.27-27.5l-1.12-6.81a53.48,53.48,0,0,0-1.69-6.54,40.07,40.07,0,0,0-6.13-11.86,38.25,38.25,0,0,0-9.81-9,52.2,52.2,0,0,0-12.23-5.67c-8.65-2.82-17.82-3.88-27-4.83-2.31-.24-4.62-.49-7-.81a36.57,36.57,0,0,1-7.09-1.56,8.76,8.76,0,0,1-3.55-2.18c-1.16-.89-1.7-3.67-.45-5a9.7,9.7,0,0,1,3.17-2.61,32.57,32.57,0,0,1,3.28-1.6c4.4-1.84,8.84-3.2,13.27-4.62s8.85-2.76,13.24-4.2a209.17,209.17,0,0,0,25.72-10c8.23-4,16.14-8.8,22.43-15.31a89.76,89.76,0,0,0,15.45-22.45,171.11,171.11,0,0,0,10.18-25.6c2.75-8.79,5-17.75,6.87-26.79s3.4-18.16,4.67-27.32c.31-2.28.78-4.64,1.17-7,.22-1.16.55-2.29.83-3.44s.53-2.3.91-3.42l1.1-3.37a35.06,35.06,0,0,1,1.23-3.32l1.33-3.28,1.52-3.19c.49-1.07,1-2.12,1.62-3.14s1.13-2.07,1.71-3.09c1.25-2,2.44-4,3.81-5.94a128.48,128.48,0,0,1,8.57-11.14c3-3.57,6.17-7,9.09-10.5.76-.87,1.38-1.77,2.08-2.66a10.91,10.91,0,0,0,1.07-2.74,64.67,64.67,0,0,0,1.35-6.65c1.39-9.07,2.17-18.32,2.95-27.54s1.41-18.48,2.07-27.73c1.3-18.5,2.55-37,4.14-55.51.8-9.25,1.67-18.49,2.74-27.73s2.3-18.46,4.11-27.63c.45-2.29.95-4.58,1.52-6.86l1.77-6.72a71.85,71.85,0,0,0,2-13.45,52.53,52.53,0,0,0-1.12-13.44,64.84,64.84,0,0,0-4.41-12.84c-1.88-4.17-4-8.25-6.13-12.41a135.9,135.9,0,0,1-5.77-12.82,83.32,83.32,0,0,1-3.95-13.58c-.47-2.29-.81-4.69-1.13-6.94a66.15,66.15,0,0,0-1.38-6.65,188.55,188.55,0,0,0-9.36-25.93c-3.65-8.48-7.61-16.85-11.67-25.17s-8.24-16.6-12.37-24.9c-2.07-4.16-4.12-8.32-6.11-12.53a124.61,124.61,0,0,1-5.48-13,16.49,16.49,0,0,1-.84-3.75c-1.29-1.71,3.29-4.65,4.25-2.87a17.21,17.21,0,0,1,3.22,2.08,29.69,29.69,0,0,1,2.75,2.41,56.54,56.54,0,0,1,8.37,11.56,183.34,183.34,0,0,1,11.63,25.5,423.19,423.19,0,0,1,15.89,53.49c2.09,9.07,3.93,18.19,5.44,27.37s2.72,18.43,3.37,27.75c.32,4.66.49,9.34.43,14a79.54,79.54,0,0,1-1.35,14.11,31.38,31.38,0,0,1-2.22,7,20.67,20.67,0,0,1-1.93,3.21,13.44,13.44,0,0,1-2.65,2.85,6.53,6.53,0,0,1-4.16,1.49,7.8,7.8,0,0,1-4-1.46,17.62,17.62,0,0,1-2.86-2.48c-.86-.88-1.63-1.79-2.38-2.72-3-3.72-5.53-7.59-8.15-11.42s-5.21-7.66-7.88-11.42a261.29,261.29,0,0,0-17.09-21.74,207.52,207.52,0,0,0-41.48-36.24,216,216,0,0,0-24-13.71c-2.09-1-4.19-1.85-6.28-2.78-1.05-.45-2.08-1-3.16-1.35l-3.24-1.15c-2.17-.75-4.31-1.59-6.5-2.27l-6.63-1.91c-1.11-.3-2.2-.67-3.32-.92l-3.37-.78-6.73-1.56-6.8-1.25c-2.27-.41-4.53-.87-6.82-1.15-4.57-.63-9.13-1.38-13.73-1.8l-6.89-.74c-2.3-.23-4.61-.37-6.91-.55-18.43-1.4-37-1.68-55.45-1.28s-37,1.52-55.45,3.13-36.86,3.73-55.2,6.29-36.64,5.51-54.81,9.06c-9.08,1.78-18.15,3.66-27.1,5.89l-3.35.85-3.31.93c-2.2.62-4.3,1.37-6.57,2.12a138.71,138.71,0,0,1-13.58,3.65,123.16,123.16,0,0,1-27.94,3,66,66,0,0,1-14.11-1.66,36,36,0,0,1-13.17-5.85,25.32,25.32,0,0,1-8.74-11.65,36.07,36.07,0,0,1-1.87-14.29c.56-9.57,3.44-18.66,6.93-27.33a210.5,210.5,0,0,1,12.42-25.09l3.46-6.05c1.15-2,2.37-4,3.56-6,2.35-4,4.86-7.93,7.32-11.88a346.73,346.73,0,0,1,33.46-44.68,261.63,261.63,0,0,1,19.79-19.77,221.66,221.66,0,0,1,22.14-17.14c2-1.27,3.87-2.61,5.87-3.83l6-3.62c4.08-2.27,8.16-4.55,12.38-6.55a206.93,206.93,0,0,1,25.91-10.6,270,270,0,0,1,54.58-11.83l3.47-.42,3.48-.33,7-.64,7-.45c2.32-.15,4.64-.3,7-.36l7-.26c2.32-.09,4.65-.07,7-.11,4.64-.07,9.32-.11,14,.1a223.66,223.66,0,0,1,55.07,9.45,280.37,280.37,0,0,1,51.56,21.47A337.18,337.18,0,0,1,1718.64,469q11.06,8.53,21.4,18a258.27,258.27,0,0,1,19.66,19.9,129.31,129.31,0,0,1,8.75,11,44,44,0,0,1,3.7,6.19,8.71,8.71,0,0,1,1,4.11c-.7,3-3.38,2.52-4.27,2.74a25.72,25.72,0,0,1-7.29-1.25c-2.28-.69-4.5-1.47-6.69-2.31-4.38-1.67-8.64-3.53-12.9-5.4l-25.41-11.32c-8.48-3.72-17-7.32-25.62-10.69s-17.3-6.54-26.08-9.43c-2.19-.72-4.4-1.41-6.6-2.11s-4.4-1.31-6.63-1.86q-6.68-1.71-13.48-3a420.69,420.69,0,0,0-55-6.26q-27.71-1.48-55.48-.42a507.55,507.55,0,0,0-55.22,5q-13.71,2-27.19,5.19a196.56,196.56,0,0,0-26.37,8.08c-2.12.87-4.27,1.68-6.32,2.69l-3.11,1.45c-1,.49-2,1.08-3,1.61s-2,1.08-3,1.65l-3,1.76c-2,1.19-4,2.31-6.06,3.47a212.59,212.59,0,0,1-25.16,12.3,64.34,64.34,0,0,1-13.67,3.92,24.11,24.11,0,0,1-7.38.08,15.25,15.25,0,0,1-3.7-1.06,14.39,14.39,0,0,1-3.3-2.06,23.12,23.12,0,0,1-4.63-5.77,23.55,23.55,0,0,0-1.79-2.73,4.65,4.65,0,0,0-2.06-1.54c-1.4-.48-3.27.47-4.85,1.87a29.82,29.82,0,0,0-4.35,5,97.9,97.9,0,0,0-7.09,11.7c-2.16,4.06-4.13,8.23-6.06,12.42-3.82,8.4-7.35,17-10.73,25.58s-6.59,17.3-9.72,26c-1.62,4.35-3,8.75-4.44,13.14l-2.16,6.58c-.38,1.09-.69,2.2-1,3.32l-.92,3.34c-1.21,4.46-2.51,8.89-3.64,13.37l-3.07,13.51-.77,3.38-.62,3.41-1.23,6.82-1.23,6.82c-.22,1.13-.37,2.28-.52,3.42l-.46,3.43L1268,687.69l-1.26,13.81c-.5,4.6-.64,9.22-.88,13.83l-.34,6.92-.17,3.46,0,3.47-.09,13.87c-.06,2.31.07,4.62.14,6.93l.24,6.93.24,6.93c.06,2.31.31,4.61.46,6.92l1,13.83c.47,4.6,1,9.19,1.56,13.78l.8,6.89,1.06,6.85,2.14,13.7,2.68,13.61,1.34,6.8,1.61,6.75,3.22,13.49,3.74,13.36,1.88,6.68c.65,2.22,1.41,4.4,2.11,6.61,5.48,17.66,11.91,35.05,18.89,52.18s14.72,34,23.34,50.33a351.94,351.94,0,0,0,29.21,47,171.46,171.46,0,0,0,18.13,20.74,90.91,90.91,0,0,0,10.53,8.72,47.64,47.64,0,0,0,11.9,6.23,26.45,26.45,0,0,0,6.43,1.33,21.46,21.46,0,0,0,3.23,0,24.17,24.17,0,0,0,3.25-.55,59.15,59.15,0,0,1,7.05-1.06c1.19-.1,2.39-.16,3.59-.17.65,1.07,3.66-2.38,2.24,2.51-.62-.4-1.9-1.13-2.82-1.73s-2-1.3-2.95-2c-1.93-1.36-3.79-2.8-5.61-4.29-3.63-3-7.07-6.16-10.39-9.45a267.44,267.44,0,0,1-18.69-20.8c-5.88-7.22-11.49-14.65-16.89-22.22a417.17,417.17,0,0,1-29.64-47.27c-17.45-32.92-30.21-68.15-39.45-104.16q-6.87-27-11.27-54.61-2.2-13.77-3.79-27.62c-.54-4.61-1-9.24-1.49-13.85-.24-2.3-.45-4.63-.74-6.86a15.61,15.61,0,0,1-.05-3.83,21.91,21.91,0,0,1,.73-3.65,43.37,43.37,0,0,1,6.44-12.83,56.49,56.49,0,0,1,4.46-5.57,53.22,53.22,0,0,1,5.11-5,44,44,0,0,1,5.78-4.25,34.28,34.28,0,0,1,6.5-3.21,25.77,25.77,0,0,1,7.21-1.53,19,19,0,0,1,7.41,1c1.15.38,2.42,1,3.35,1.4a28.85,28.85,0,0,0,3.07,1.21,33.13,33.13,0,0,0,6.5,1.39,40.47,40.47,0,0,0,6.71.23,54.58,54.58,0,0,0,6.74-.68c9-1.45,17.69-4.55,26.1-8.21,4.22-1.83,8.37-3.84,12.47-5.94,2.05-1,4.09-2.13,6.13-3.22a50.33,50.33,0,0,1,6.44-3.13,17.09,17.09,0,0,1,7.46-1.17,13.2,13.2,0,0,1,3.8.89,16.68,16.68,0,0,1,3.34,1.86,33.63,33.63,0,0,1,5.34,4.94c1.59,1.76,3.07,3.56,4.55,5.33a117.64,117.64,0,0,0,9.25,10.15,69.55,69.55,0,0,0,10.68,8.41c1,.59,1.94,1.19,2.92,1.74s2,1,3,1.47,2.07.87,3.14,1.26l3.23,1.09c4.37,1.32,8.83,2.38,13.35,3.27,9,1.76,18.21,2.92,27.4,3.81s18.43,1.45,27.67,1.79a474.08,474.08,0,0,0,55.42-1.06c2.3-.21,4.6-.39,6.89-.66l3.44-.38,3.42-.45c2.29-.27,4.55-.69,6.82-1s4.52-.82,6.73-1.38a52.41,52.41,0,0,0,12.75-4.37,47,47,0,0,0,10.74-8.06c6.4-6.41,11.41-14.19,15.52-22.35a140.44,140.44,0,0,0,9.72-25.7c.59-2.21,1.13-4.44,1.56-6.67.22-1.11.41-2.23.56-3.33s.32-2.25,0-2.33a7.83,7.83,0,0,0-2.21-1.76,29.28,29.28,0,0,0-2.94-1.51c-2-.92-4.19-1.72-6.35-2.47a236,236,0,0,0-26.71-7,246.29,246.29,0,0,0-27.29-4.31,67.11,67.11,0,0,0-6.78-.29,17.19,17.19,0,0,0-3.15.3,4.2,4.2,0,0,0-2.2,1.33,23,23,0,0,0-3.34,5.52c-1,2.07-2,4.2-3,6.3a48.64,48.64,0,0,1-8.09,11.79,37.37,37.37,0,0,1-5.46,4.73c-1,.74-2,1.33-3,2s-2.1,1.17-3.19,1.68a54.12,54.12,0,0,1-13.62,4.24,82.19,82.19,0,0,1-14.09,1.24,91.87,91.87,0,0,1-14.11-.92,49.46,49.46,0,0,1-13.72-4,31.22,31.22,0,0,1-11.41-8.88,40.41,40.41,0,0,1-6.53-12.78c-.76-2.23-1.4-4.47-2.18-6.55s-1.75-4.06-3.19-4.78a6.94,6.94,0,0,0-2.77-.63,23.81,23.81,0,0,0-3.28,0,62.26,62.26,0,0,0-6.75.76,202.56,202.56,0,0,0-26.77,6.64,223.08,223.08,0,0,0-25.85,9.7c-2.07,1-4.13,2-6.09,3.09-1,.56-2,1.13-2.85,1.76a6.06,6.06,0,0,0-2,1.91c-.85,1.38-.46,3.32.52,5.18a27.42,27.42,0,0,0,3.87,5.29,100.44,100.44,0,0,0,10,9.33c3.54,2.94,7.18,5.79,10.85,8.6,7.34,5.63,14.81,11.15,22.08,17,3.63,2.9,7.22,5.93,10.67,9.06a64.24,64.24,0,0,0,11,7.93c7.87,4.51,16.68,7.25,25.67,9,18,3.41,36.66,3.8,55.14,4.16,9.26.15,18.53.17,27.8.2h13.91c2.32,0,4.6-.08,6.91-.11s4.59-.25,6.88-.36a123.59,123.59,0,0,0,27-4.82c2.21-.6,4.33-1.45,6.49-2.18s4.24-1.68,6.28-2.7a76.39,76.39,0,0,0,11.81-6.82,77.87,77.87,0,0,0,19.1-19.31c2.64-3.74,4.94-7.68,7.35-11.69.61-1,1.23-2,1.95-3a10.51,10.51,0,0,1,2.85-3,9.76,9.76,0,0,1,4.05-.85c1.23,0,2.43,0,3.62,0a137,137,0,0,1,14,1.68c4.6.75,9.18,1.61,13.73,2.53,9.12,1.84,18.18,3.91,27.2,6.1s18,4.53,27,7,17.87,5.09,26.68,8.3c1.1.42,2.2.84,3.3,1.31a20.85,20.85,0,0,1,3.36,1.73,8.67,8.67,0,0,1,2.5,3.36,27.49,27.49,0,0,1,1.32,3.45,74.57,74.57,0,0,1,2.54,14,201.63,201.63,0,0,1,.5,28,456.36,456.36,0,0,1-6.29,55.44c-1.55,9.16-3.3,18.29-5.17,27.39s-3.94,18.16-6.1,27.19c-4.3,18.22-11.46,35.59-19.69,52.27a499.21,499.21,0,0,1-27.81,48.36c-10.08,15.62-20.78,30.82-31.85,45.73s-22.51,29.54-34.15,44-23.49,28.74-35.22,43.09c-5.83,7.19-11.72,14.37-17,21.85a60.59,60.59,0,0,0-3.65,5.71,9.94,9.94,0,0,0-1.1,2.71c.08.41-.51-.14.35,0a8.4,8.4,0,0,0,2.45-1.5,29.82,29.82,0,0,0,2.43-2.24c1.57-1.6,3.06-3.33,4.5-5.11a239.76,239.76,0,0,0,15.79-22.66c4.89-7.83,9.53-15.84,13.79-24,2.12-4.09,4.15-8.23,5.93-12.44a58.08,58.08,0,0,0,2.32-6.36,13.79,13.79,0,0,0,.57-3c-.43-1.22.58-.39-.06-.46-.57.19-2.12,1-3.16,1.27s-2.31.72-3.47,1c-2.31.58-4.62,1-6.93,1.4-4.63.76-9.26,1.29-13.9,1.75-18.55,1.76-37.13,2.31-55.71,2.45s-37.16-.3-55.71-1.43c-9.27-.56-18.56-1.33-27.79-2.41s-18.44-2.16-27.64-3.3-18.41-2.4-27.56-3.07c-4.54-.27-9.21-.5-13.23.77a11.23,11.23,0,0,0-2.76,1.34c-1,.58-.82.61-1,1.65a9.87,9.87,0,0,0,.45,2.95,27.63,27.63,0,0,0,1.11,3.1,78.57,78.57,0,0,0,6.63,11.89c2.52,3.83,5.24,7.54,8.07,11.17a249.24,249.24,0,0,0,18.25,20.75,256.34,256.34,0,0,0,20.37,18.69q5.34,4.38,10.95,8.42c1.87,1.34,3.76,2.65,5.68,3.92,1,.64,1.93,1.26,2.89,1.88s1.93,1.17,2.91,1.71c7.95,4.33,16.89,6.69,25.94,7.89a144.66,144.66,0,0,0,27.48.68,274.74,274.74,0,0,0,27.47-3.24c4.56-.74,9.11-1.56,13.69-2.38,2.29-.4,4.58-.81,6.9-1.15,1.16-.17,2.33-.33,3.54-.44a11.06,11.06,0,0,1,4.09.18c3.56,2.56-.12,4.86-.25,5.19a26.6,26.6,0,0,1-2.85,2.31c-1,.76-2,1.34-3,2s-2.09,1.19-3.19,1.67a62.44,62.44,0,0,1-13.5,4.47,129.17,129.17,0,0,1-28,2.59,207,207,0,0,1-27.92-2.14,140.46,140.46,0,0,1-27.32-6.44,105.24,105.24,0,0,1-25-12.83,120.3,120.3,0,0,1-20.92-18.76c-6.28-6.94-11.78-14.52-17.58-21.64-2.92-3.51-6-7-9.6-9.33a15.88,15.88,0,0,0-2.82-1.42,11.9,11.9,0,0,0-3-.65,12.21,12.21,0,0,0-3,.22,15.35,15.35,0,0,0-3,1,26.57,26.57,0,0,0-5.56,3.49c-1.78,1.37-3.3,3-5.29,4.54a18.6,18.6,0,0,1-6.67,3.43,15.57,15.57,0,0,1-7.61.06,22.09,22.09,0,0,1-6.79-3,39.37,39.37,0,0,1-5.65-4.5,80.33,80.33,0,0,1-9.24-10.73,275.28,275.28,0,0,1-15-23.6c-2.35-4-4.67-8-7.07-11.95a98.11,98.11,0,0,0-7.73-11.28,24.58,24.58,0,0,0-2.25-2.37,8.6,8.6,0,0,0-2.42-1.66,2.09,2.09,0,0,0-2,0,5.16,5.16,0,0,0-1.73,2,17.42,17.42,0,0,0-1.28,2.93c-.34,1-.6,2.13-.9,3.19s-.38,2.18-.58,3.27-.16,2.22-.26,3.32a46.08,46.08,0,0,0,1.71,13.3c.33,1.08.56,2.19,1,3.25l1.13,3.21c.88,2.1,1.7,4.23,2.73,6.26a144.87,144.87,0,0,0,14.45,23.39c5.47,7.41,11.39,14.51,17.54,21.4,12.33,13.77,25.5,26.8,39,39.46s27.36,25,41.35,37.13c7,6.09,14,12.09,21.21,17.94s14.46,11.56,21.79,17.23c3.67,2.84,7.34,5.67,11,8.57a126.78,126.78,0,0,1,10.63,9.24,33.36,33.36,0,0,1,4.6,5.63,15.42,15.42,0,0,1,2.49,7.2,17.28,17.28,0,0,1-1.36,7.43,40.27,40.27,0,0,1-3.34,6.4,136.86,136.86,0,0,1-8.25,11.39c-2.88,3.66-5.82,7.26-8.75,10.85-5.87,7.18-11.73,14.35-17.48,21.61s-11.41,14.59-17,22-11.23,14.8-17,22.06-11.72,14.43-18,21.36-12.72,13.68-20.16,19.51c-3.74,2.86-7.74,5.59-12.5,7.1a15.53,15.53,0,0,1-7.59.55,14.15,14.15,0,0,1-6.78-3.58,28,28,0,0,1-4.63-5.68,65.78,65.78,0,0,1-3.47-6.21c-2.1-4.21-3.93-8.48-5.84-12.69s-3.87-8.34-6.08-12.39-4.57-8-6.75-12.2A38.79,38.79,0,0,1,1372,1366a56.72,56.72,0,0,1,.54-14.25,220.25,220.25,0,0,1,6.41-27.26c2.57-8.94,5.37-17.8,8.23-26.63a92.7,92.7,0,0,0,3.41-13.25,77.52,77.52,0,0,0,1.15-13.58,83.31,83.31,0,0,0-4.68-26.8,114.63,114.63,0,0,0-12.12-24.57,172.55,172.55,0,0,0-16.81-21.83c-12.31-13.72-26.32-25.86-40.81-37.35L1306.4,1152c-3.66-2.86-7.34-5.69-10.92-8.71a46.34,46.34,0,0,1-5.23-5,14.6,14.6,0,0,1-2-3.3,17,17,0,0,1-1.1-3.67,23.44,23.44,0,0,1,0-7.4,40.62,40.62,0,0,1,1.73-7,83.09,83.09,0,0,1,5.77-12.93c2.23-4.13,4.68-8.12,7.23-12,5.11-7.81,10.66-15.29,16.25-22.7,2.79-3.71,5.61-7.39,8.3-11.12.67-.93,1.33-1.87,2-2.81s1.17-1.82,1.86-2.92a9.2,9.2,0,0,1,2.89-3c2.73-1.58,4.69,2.34,4.22,3.08a16.81,16.81,0,0,1-.09,3.82c-.15,1.22-.37,2.4-.63,3.57a65.32,65.32,0,0,1-2,6.84,114.31,114.31,0,0,1-5.43,13A186.75,186.75,0,0,1,1315,1103.8a262.22,262.22,0,0,1-17.15,22.09l0,0-.1.1c-5,4.48-10.12,8.59-15.35,12.65-2.6,2-5.25,4-7.87,6l-8,5.87c-10.68,7.76-21.58,15.19-32.56,22.49-22,14.54-44.47,28.37-67.21,41.7-11.34,6.72-22.8,13.23-34.29,19.69s-23.07,12.75-34.57,19.15c-5.72,3.22-11.49,6.42-16.82,10.07a43.45,43.45,0,0,0-3.78,2.9,13.3,13.3,0,0,0-2.9,3.31,4.21,4.21,0,0,0-.41,3.59,12.49,12.49,0,0,0,2.21,3.77,94.63,94.63,0,0,0,6.6,7.11c2.32,2.33,4.65,4.68,6.93,7.08,1.14,1.21,2.28,2.38,3.38,3.66a45.17,45.17,0,0,1,3.15,4,38.44,38.44,0,0,1,2.67,4.35,36.12,36.12,0,0,1,2.2,4.58,67,67,0,0,1,4.71,19.57,100.47,100.47,0,0,1-.18,20,149,149,0,0,1-3.56,19.64c-.42,1.61-.89,3.2-1.33,4.8s-.91,3.2-1.44,4.77l-1.55,4.73-1.73,4.67c-.55,1.57-1.18,3.1-1.83,4.63l-1.91,4.6-2.07,4.52c-.69,1.51-1.37,3-2.14,4.49-1.49,3-3,5.94-4.59,8.82l-2.4,4.35-2.54,4.27a280.24,280.24,0,0,1-22.82,32.47,323.84,323.84,0,0,1-26.88,29.18c-4.78,4.57-9.64,9.05-14.67,13.35s-9.85,8.7-14.78,13.05a422.62,422.62,0,0,0-53.19,57.9c-2,2.62-3.84,5.32-5.76,8s-3.88,5.29-5.63,8.07l-5.4,8.22c-.92,1.36-1.74,2.78-2.59,4.18l-2.54,4.21A346.61,346.61,0,0,0,906,1635.31c-2.69,6-5.27,12-7.75,18.12L896.3,1658a22.21,22.21,0,0,1-2.6,4.63,27,27,0,0,1-8.23,6.39,37.23,37.23,0,0,1-9.65,3.53,29.7,29.7,0,0,1-5.18.6,21.37,21.37,0,0,1-5.29-.59,13.89,13.89,0,0,1-8.64-6.39A21.28,21.28,0,0,1,854,1656c0-2.45-.91-2.86,2.69-2.41-.15,1.6-.26,3.25-.37,4.88l-.6,9.85-1.07,19.72-1.92,39.46q-1.82,39.47-3.31,78.95c-1,26.32-1.87,52.64-2.45,79-.28,13.16-.5,26.32-.44,39.47.06,6.57.11,13.15.67,19.62a69.08,69.08,0,0,1,.2,10.1,37.55,37.55,0,0,1-2,10,42.38,42.38,0,0,1-4.62,9.11,90.55,90.55,0,0,1-6.06,8c-4.27,5.09-8.74,9.94-13.13,14.84-8.82,9.76-17.39,19.72-25.63,30-16.46,20.49-31.69,42-46.11,64-3.63,5.49-7.18,11-10.58,16.62s-6.64,11.32-9.72,17.1a261,261,0,0,0-15.93,35.87,157.41,157.41,0,0,0-8.63,38.07,95.31,95.31,0,0,0,.21,19.41,56.69,56.69,0,0,0,5.15,18.44,22.7,22.7,0,0,0,5.44,7.37c1,1,2.59,1.28,2.48,1,.33-.17.42-1.91,0-3.32a91.36,91.36,0,0,0-2.78-9.28l-3.29-9.29c-4.47-12.4-8.72-24.94-12.13-37.72-6.88-25.53-10.58-52.09-9.36-78.62a214.77,214.77,0,0,1,5.51-39.35l2.51-9.59,1.25-4.8q.6-2.41,1.33-4.77l5.65-19c4-12.55,8-25.13,12.29-37.59s8.56-24.93,12.88-37.38c17.51-49.71,35.89-99.1,54.27-148.47L814,1731.26l6.81-18.54c2.24-6.19,4.54-12.36,6.71-18.57,4.45-12.39,8.72-24.81,12.22-37.45,6.88-25.36,12.42-51.12,18.18-76.82s11.54-51.43,18.23-76.95,14.06-50.94,24.78-75.21c2.59-6.11,5.55-12,8.52-17.9s6.07-11.73,9.26-17.51c6.38-11.56,13.17-22.91,20.49-33.92a265.82,265.82,0,0,1,24.14-31.52,104.47,104.47,0,0,1,14.72-13.58,42.32,42.32,0,0,1,8.86-5.1,17.77,17.77,0,0,1,10.55-1.27,46.06,46.06,0,0,1,4.9,1.83c1.53.75,3,1.57,4.52,2.41s2.87,1.85,4.18,2.94a48.67,48.67,0,0,1,3.82,3.37,57.93,57.93,0,0,1,11.62,16.49,72.1,72.1,0,0,1,5.95,19.2,100,100,0,0,1,1.21,10l.12,5a47.19,47.19,0,0,1-.09,5c-.09,1.67-.13,3.34-.27,5l-.58,5a45,45,0,0,1-.76,5c-.26,1.67-.76,3.28-1.16,4.92a89.58,89.58,0,0,1-7.71,18.51c-6.37,11.73-14.44,22.36-23.08,32.38a362.5,362.5,0,0,1-27.7,28.39c-9.7,9-19.76,17.55-30.06,25.8a42.47,42.47,0,0,0-3.61,3.14c-1.13,1.13-2.23,2.3-3.27,3.53-2.11,2.45-4.08,5-6,7.69-3.8,5.31-7.36,10.82-10.79,16.41-6.87,11.19-13.31,22.67-19.7,34.17s-12.68,23.08-19.16,34.57c-3.24,5.74-6.53,11.46-10,17.12a188.43,188.43,0,0,1-11,16.58c-2.11,2.62-4.16,5.29-7.28,7.38-1.12.93-4.83,2.21-6.42-.72a13.92,13.92,0,0,1-1.23-5.43,75.27,75.27,0,0,1,.18-10.08c.25-3.32.6-6.62,1-9.9,1.66-13.14,4-26.12,6.62-39.06,5.22-25.87,11.41-51.51,18.22-77s14.33-50.77,22.91-75.73c4.31-12.47,8.89-24.86,14-37,2.58-6.08,5.31-12.12,8.32-18a122.51,122.51,0,0,1,10.27-17.15,221.42,221.42,0,0,1,27.09-29.09A267,267,0,0,1,984,1295.09a263.11,263.11,0,0,1,34.63-19.42,247.68,247.68,0,0,1,37.32-13.58l4.8-1.28c1.6-.43,3.2-.87,4.83-1.18l9.73-2c3.26-.59,6.55-1,9.82-1.55,1.64-.22,3.27-.56,4.92-.69l4.95-.47,4.95-.47c1.65-.19,3.3-.28,5-.32l9.93-.38c1.66-.1,3.31,0,5,0l5,.1,5,.1c1.65.09,3.3.25,5,.37l9.91.79,9.84,1.36,4.92.68c1.63.3,3.25.64,4.87,1l9.74,1.94c3.23.73,6.41,1.64,9.62,2.45l4.81,1.25c1.61.38,3.19.87,4.76,1.4l9.45,3c1.57.52,3.16,1,4.71,1.56l4.63,1.78a377.13,377.13,0,0,1,70.62,35.82,411.17,411.17,0,0,1,62.49,48.62,339.84,339.84,0,0,1,50.7,60.82l2.72,4.15c.92,1.37,1.81,2.77,2.61,4.22l5,8.59,2.48,4.3,2.25,4.42,4.49,8.85q1.16,2.19,2.12,4.48l2,4.54c1.32,3,2.69,6,4,9.09l3.51,9.28c1.17,3.1,2.39,6.17,3.33,9.35a340.86,340.86,0,0,1,16,77.55,402.45,402.45,0,0,1-1.36,79.19,471.14,471.14,0,0,1-16.15,77.53l-3,9.45-1.5,4.72-1.63,4.68-3.26,9.36-3.55,9.25-1.77,4.63c-.61,1.53-1.27,3-1.9,4.57l-3.83,9.14-4.08,9-2,4.51c-.7,1.5-1.46,3-2.19,4.45l-4.41,8.88-4.72,8.72-2.37,4.35-2.51,4.27-5,8.54-5.31,8.37-2.66,4.18-2.78,4.1-5.56,8.2-5.78,8-2.9,4-3,3.95-6,7.89c-4.13,5.15-8.15,10.39-12.41,15.43-8.35,10.22-17.1,20.1-25.92,29.91s-17.92,19.35-27.07,28.85-18.43,18.85-27.75,28.17c-18.59,18.67-37.4,37.12-55.21,56.45a380,380,0,0,0-25.32,30.11c-7.75,10.51-14.78,21.68-19.15,33.86a39,39,0,0,0-1.75,9.31,79.94,79.94,0,0,0-.1,9.69,165.31,165.31,0,0,0,2.18,19.44,385.11,385.11,0,0,0,8.77,38.35c7,25.32,15.64,50.21,24.92,74.83s19.38,48.93,30.08,73,22,47.81,34.17,71.15c6.07,11.67,12.35,23.23,18.94,34.6s13.47,22.57,21,33.33c3.75,5.37,7.65,10.64,11.87,15.61,2.11,2.48,4.29,4.9,6.6,7.15a45,45,0,0,0,7.39,6,16.42,16.42,0,0,0,4.08,1.94,7,7,0,0,0,4,.16c2.45-.73,4.13-3.47,5.11-6.37a42.14,42.14,0,0,0,1.89-9.32c.33-3.21.45-6.46.48-9.72-.15-13.1-.58-26.26-1.61-39.36l-.34-4.92-.43-4.91-.88-9.82-1-9.81c-.35-3.27-.69-6.54-1.12-9.8-3.16-26.11-7.26-52.12-12.07-78s-10.16-51.65-16-77.32-12.07-51.25-18.57-76.77l-9.86-38.26-4.9-19.15c-.79-3.21-1.58-6.41-2.3-9.65-.36-1.62-.7-3.24-1-4.92a15.77,15.77,0,0,1-.19-5.37,33.91,33.91,0,0,1,3.37-9.75,82.25,82.25,0,0,1,5.06-8.69,152,152,0,0,1,12.16-15.81,178.78,178.78,0,0,1,13.88-14.28c2.45-2.25,5-4.42,7.62-6.47a63.22,63.22,0,0,1,8.4-5.63,23.31,23.31,0,0,1,4.86-2c1.69-.41,4-.88,6.08.74,2,1.84,1.81,3.94,2.27,5.33l1.09,4.81,4.38,19.27,8.67,38.56q17.22,77.14,33.3,154.53c10.65,51.61,20.87,103.31,29.91,155.24,4.5,26,8.71,52,12.16,78.15.46,3.26.82,6.54,1.22,9.82s.8,6.55,1.15,9.83c.63,6.57,1.38,13.13,1.79,19.73.24,3.3.52,6.59.59,9.9l.18,5c.09,1.65.11,3.31.06,5-.05,3.31-.08,6.71-.17,9.9a96,96,0,0,0,.37,9.71c1.2,12.94,4.72,25.64,9.33,37.86a247.84,247.84,0,0,0,17,35.34,316.5,316.5,0,0,0,21.85,32.66,328.84,328.84,0,0,0,25.62,29.82,288,288,0,0,0,29.15,26.33,200.71,200.71,0,0,0,33,21.14c11.65,5.81,24.11,10.24,37,11.58a62.91,62.91,0,0,0,19.21-.82,55.47,55.47,0,0,0,9.21-2.69c1.47-.64,2.95-1.25,4.37-2s2.86-1.46,4.18-2.37,2.7-1.72,4-2.72l3.95-2.89c1.34-.93,2.57-2,3.85-3l3.8-3.09c2.45-2.16,4.9-4.33,7.31-6.53s4.72-4.53,7-6.88a277.2,277.2,0,0,0,25.15-30.15,388.88,388.88,0,0,0,21.42-33q9.93-17,18.67-34.7t16.57-35.79c5.18-12.09,10.25-24.23,15-36.5,9.58-24.5,18.26-49.36,26.54-74.35,16.52-50,31-100.65,44.75-151.48s26.47-102,38.24-153.29c5.82-25.68,11.52-51.39,16.78-77.19s10.31-51.64,14.78-77.58l1.66-9.73,1.55-9.74c.54-3.25,1-6.5,1.46-9.75l.7-4.88c.23-1.63.41-3.25.61-4.88s.41-3.26.58-4.88.3-3.21.3-4.81a37.39,37.39,0,0,0-.84-9.46,47.34,47.34,0,0,0-3.09-9c-1.37-2.93-2.86-5.82-4.46-8.68l-9.71-17.2c-3.2-5.77-6.35-11.58-9.34-17.46-6-11.74-11.67-23.69-17-35.77s-10.33-24.28-15.19-36.54-9.46-24.62-13.89-37c-8.93-24.81-17.24-49.83-25.18-75s-15.32-50.51-21.13-76.25a604.46,604.46,0,0,1-12.75-78.14c-1.2-13.16-1.9-26.37-1.78-39.6q0-9.92.77-19.84c.46-6.61,1.2-13.2,2.26-19.75,2.13-13.07,5.4-26.13,11.39-38.15a71.44,71.44,0,0,1,5.12-8.68,55.64,55.64,0,0,1,6.55-7.76,41.15,41.15,0,0,1,8.25-6.09,32.25,32.25,0,0,1,20-3.52,41.36,41.36,0,0,1,9.85,2.68c1.6.58,3.09,1.38,4.63,2.09s3,1.57,4.39,2.51,2.84,1.8,4.19,2.8,2.69,2,4,3c10.41,8.45,19,18.77,26.68,29.54a267.79,267.79,0,0,1,20.24,34.16l4.28,9c1.34,3,2.6,6.08,3.91,9.12s2.47,6.14,3.65,9.23,2.39,6.17,3.4,9.32l3.15,9.41,2.83,9.51c1,3.16,1.74,6.38,2.6,9.57s1.7,6.39,2.39,9.62c3.11,12.85,5.41,25.87,7.4,38.93s3.32,26.21,4.33,39.37,1.52,26.37,1.64,39.57a614.43,614.43,0,0,1-4.24,79.05c-1.59,13.11-3.63,26.18-6.39,39.12l-1.11,4.84c-.37,1.61-.74,3.23-1.18,4.83l-1.25,4.81-1.15,4.73c-.42,1.57-.67,3.19-1,4.79s-.62,3.2-.89,4.82c-.46,3.24-1,6.47-1.4,9.72-1.63,13-2.63,26.13-3.37,39.26s-1.25,26.28-1.64,39.44c-.76,26.31-1.12,52.65-1.45,79-.65,52.68-1.1,105.38-3.21,158.06-1,26.34-2.55,52.67-5,78.94-.28,3.29-.61,6.57-1,9.85l-1,9.84-2.4,19.62q-1.12,9.78-1.87,19.6t-1,19.66a469.23,469.23,0,0,0,4.14,78.58c1.76,13,4.05,26,6.68,38.84,1.31,6.44,2.71,12.87,4.12,19.3s2.84,12.87,4,19.4c.58,3.27,1.09,6.56,1.35,9.94a37.37,37.37,0,0,1,.08,5.14,15.82,15.82,0,0,1-1.15,5.32,7.69,7.69,0,0,1-4.23,4.16c-1.79.8-4,.65-5.29.75a29,29,0,0,0-8.91,2.74,113.22,113.22,0,0,0-16.68,10c-5.36,3.75-10.56,7.75-15.71,11.83-10.29,8.17-20.29,16.73-30.44,25.15-5.08,4.2-10.18,8.39-15.52,12.36a80.15,80.15,0,0,1-8.39,5.57,16.32,16.32,0,0,1-5.08,2c-2.44,1.07-5.4-2.75-4.55-4.5a22.46,22.46,0,0,1,1-5.18l1.31-4.78,2.73-9.51,5.6-19,11.29-37.86c7.46-25.25,14.83-50.54,21.35-76q2.47-9.55,4.64-19.16c1.41-6.38,2.75-12.9,4.34-19.3,3.14-12.82,6.46-25.56,9.67-38.33,6.46-25.53,12.67-51.11,18.22-76.84s10.48-51.59,14.25-77.61,6.45-52.23,6.53-78.48c0-6.56-.17-13.11-.56-19.65s-1.09-13-2.08-19.5a145.39,145.39,0,0,0-4.17-19.09,88.82,88.82,0,0,0-7.35-17.94c-.82-1.38-1.56-2.82-2.5-4.13a43.48,43.48,0,0,0-2.8-3.91c-1-1.25-2-2.55-3-3.85l-3.11-3.89c-2-2.64-3.92-5.35-5.89-8l-5.53-8.25c-7.17-11.13-13.62-22.68-19.68-34.42-12.08-23.49-22.73-47.66-32.66-72.08s-19.19-49.12-28.15-73.9L1774,1779.5c-2.23-6.19-4.5-12.37-6.87-18.49-.6-1.53-1.18-3.06-1.82-4.56s-1.25-3-1.93-4.48a29.25,29.25,0,0,0-2.2-4.18,40.35,40.35,0,0,0-2.84-3.81,175,175,0,0,0-13.63-14c-4.78-4.49-9.69-8.86-14.65-13.17-9.92-8.62-20.08-17-30.33-25.23s-20.63-16.34-31.13-24.26c-5.25-4-10.53-7.88-15.88-11.67-1.34-.95-2.68-1.88-4-2.8s-2.74-1.83-4-2.57a11.31,11.31,0,0,0-4.19-.94,36.38,36.38,0,0,0-4.74,0,120.57,120.57,0,0,0-19.23,3.08c-6.37,1.47-12.69,3.22-18.95,5.17a316,316,0,0,0-36.74,14c-6,2.72-11.82,5.64-17.48,8.89a110.22,110.22,0,0,0-16.1,10.94,46.21,46.21,0,0,0-6.71,6.79,25,25,0,0,0-2.56,3.95c-.79,1.4-1.52,2.85-2.25,4.32-2.89,5.85-5.52,11.88-8.13,17.91-10.35,24.19-20.22,48.63-30.68,72.83s-21.28,48.26-33.26,71.78c-6,11.75-12.29,23.37-19.09,34.71a263,263,0,0,1-22.62,32.65c-4.32,5.07-8.92,9.83-13.62,14.48s-9.52,9.17-14.38,13.63c-9.74,8.91-19.68,17.57-29.68,26.16-20,17.16-40.25,34-60.29,51.1s-39.95,34.32-59.18,52.26c-9.6,9-19,18.14-28.12,27.64a317.19,317.19,0,0,0-25.58,29.83,134.09,134.09,0,0,0-10.54,16.43,69.77,69.77,0,0,0-4,8.8,41,41,0,0,0-2.32,9.22,22.77,22.77,0,0,0,.65,9.18,17.81,17.81,0,0,0,1.83,4.16,21.77,21.77,0,0,0,2.83,3.64,48.86,48.86,0,0,1,10.23,17.46,87.5,87.5,0,0,1,4.23,19.61,149.84,149.84,0,0,1,.71,19.93,272.06,272.06,0,0,1-4.32,39.47c-4.63,26-11.76,51.54-19.79,76.66l-3,9.41c-.5,1.56-1,3.13-1.45,4.68-.27,2.67-4.92-.33-1.78-1.3.75-1.44,1.42-2.91,2.25-4.41a45.22,45.22,0,0,1,2.57-4.39,34.66,34.66,0,0,1,6.79-7.72,26,26,0,0,1,9.21-4.85,28.45,28.45,0,0,1,10.3-.91c6.87.51,13.31,2.83,19.4,5.52a147.2,147.2,0,0,1,17.51,9.56c5.63,3.51,11.06,7.31,16.4,11.2,10.68,7.8,21,16.1,31.05,24.59q3.79,3.18,7.54,6.4t7.48,6.47l7.43,6.52c2.46,2.17,5,4.35,7.37,6.67,9.55,9.26,18.06,19.4,26.34,29.68,16.47,20.65,31.81,42.09,47.13,63.53s30.44,43,45.87,64.34,31.1,42.49,47.45,63.11,33.35,40.72,51.82,59.4a336.94,336.94,0,0,0,29.11,26.43c10.24,8.13,21.11,15.56,32.93,21a84.41,84.41,0,0,0,18.36,6.16,55.25,55.25,0,0,0,19.12.62,48.24,48.24,0,0,0,17.88-6.55,55.37,55.37,0,0,0,7.79-5.65,70,70,0,0,0,6.91-6.77c1.11-1.18,2.1-2.46,3.15-3.69s2-2.54,3-3.88c2-2.65,4-5.27,6-7.88q6.07-7.82,12.36-15.47,12.59-15.28,25.89-29.94c17.69-19.57,36.13-38.45,55.09-56.78s38.47-36.1,58.51-53.24,40.61-33.7,62.1-49.05a367.19,367.19,0,0,1,33.34-21.48,112.27,112.27,0,0,1,18.17-8.38,27.24,27.24,0,0,1,10.27-1.71,8.07,8.07,0,0,1,5.41,2.36,8.45,8.45,0,0,1,2,5.5,29,29,0,0,1-1.95,10.21c-1.07,3.1-2.1,6.2-3,9.33a100.42,100.42,0,0,0-4,19,30,30,0,0,0,.39,9.35,11.61,11.61,0,0,0,1.7,4,8.18,8.18,0,0,0,3.16,2.69,19.09,19.09,0,0,0,4.37,1.38c.89-.07,5.29,1.27,4.25,4.7a16.2,16.2,0,0,1-2.72,4.76c-.95,1.3-2.25,2.77-3,3.79a13.61,13.61,0,0,0-1.47,4.13,45.42,45.42,0,0,0-.73,4.72c-.34,3.2-.48,6.46-.55,9.73-.11,6.53.1,13.09.43,19.65.67,13.11,1.82,26.22,3.13,39.31,2.65,26.18,6,52.3,9.55,78.39,7.17,52.17,15.34,104.22,23.82,156.21l12.94,78c.53,3.26,1.07,6.49,1.55,9.8-5.58,3.92-2.29-1.88-3.72-2.24-.31-1.65-.57-3.29-.82-4.93-1-6.55-1.74-13.1-2.5-19.65-1.48-13.1-2.81-26.21-4.11-39.32-5.13-52.45-9.77-104.93-14.69-157.38q-3.68-39.34-7.61-78.65-2-19.65-4.19-39.27c-1.49-13.08-3-26.15-5-39.15-.5-3.24-1-6.49-1.6-9.7a66.75,66.75,0,0,0-2.22-9.32,5.47,5.47,0,0,0-2.53-2.87,9.84,9.84,0,0,0-4.09-1.09,26.9,26.9,0,0,0-9.18,1.38,82.59,82.59,0,0,0-17.51,8.22,180,180,0,0,0-16.18,11,341.71,341.71,0,0,0-29.75,25.71c-9.47,9.09-18.58,18.57-27.43,28.29-17.69,19.45-34.32,39.86-50.33,60.74q-12,15.67-23.52,31.7c-7.71,10.67-15.23,21.44-22.46,32.43-14.49,21.95-28,44.55-40.77,67.54s-24.83,46.41-37.27,69.66c-6.28,11.59-12.62,23.19-20,34.23a102.89,102.89,0,0,1-12.5,15.64,40.33,40.33,0,0,1-8.08,6.28,21.57,21.57,0,0,1-10.07,3,21,21,0,0,1-10.21-2.49,38.78,38.78,0,0,1-8.33-6,92.89,92.89,0,0,1-13-15.24c-3.84-5.43-7.34-11.06-10.67-16.78s-6.48-11.45-9.85-17.11c-13.4-22.63-27.63-44.79-42.13-66.76s-29.4-43.68-44.57-65.21c-30.35-43-61.8-85.29-94.68-126.42q-24.67-30.83-50.57-60.63c-17.33-19.81-35.14-39.19-53.78-57.75s-38.06-36.36-59.13-52a220.73,220.73,0,0,0-33.24-20.76c-2.93-1.43-5.89-2.78-8.92-4a89,89,0,0,0-9.2-3.12,56.71,56.71,0,0,0-19-2.29,34.2,34.2,0,0,0-17.63,6.2,38.35,38.35,0,0,0-6.94,6.45c-1,1.24-2,2.49-2.9,3.85s-1.91,2.64-2.78,4a187.52,187.52,0,0,0-9.83,16.94c-1.45,2.93-3,5.84-4.29,8.83s-2.69,6-4,9c-5.13,12.07-9.43,24.49-13.37,37s-7.37,25.22-10.52,38c-6.28,25.53-11.32,51.37-15.65,77.33s-7.9,52-10.94,78.18q-9.08,78.44-12.25,157.43c-.52,13.15-.9,26.31-1.06,39.46s-.19,26.33.59,39.38c.11,1.63.24,3.25.41,4.86s.38,3.24.65,4.79c2.28,1.69-2,3.17-1.21,1,.32-1.48.53-3.12.72-4.73.73-6.48,1.18-13.06,1.64-19.61.89-13.13,1.65-26.28,2.44-39.43,3.15-52.59,6.55-105.22,12.49-157.63,1.5-13.1,3.17-26.18,5.14-39.23,1-6.52,2-13,3.2-19.54s2.46-13,3.69-19.43c5-25.85,9.63-51.78,14.34-77.7s9.47-51.86,15.4-77.58c1.55-6.42,3-12.85,4.78-19.22l1.27-4.79c.41-1.6.85-3.19,1.34-4.77l2.83-9.5a313.77,313.77,0,0,1,14.12-37.09c2.93-5.95,6-11.86,8.94-17.64a177.51,177.51,0,0,0,7.59-18.06,276.15,276.15,0,0,0,10.43-37.86c2.7-12.84,4.76-25.84,6.89-38.84s4.24-26,7.41-38.93a162.94,162.94,0,0,1,5.83-19.06c.64-1.54,1.24-3.1,1.91-4.63s1.43-3.07,2.05-4.53a41.44,41.44,0,0,0,1.78-4.44,36,36,0,0,0,1.35-4.6,67.29,67.29,0,0,0,1.6-19.19,139.34,139.34,0,0,0-2.53-19.36c-2.54-12.84-6.06-25.53-9.35-38.29s-6.47-25.59-8.91-38.59a312.24,312.24,0,0,1-5-39.37c-.14-3.31-.37-6.61-.38-9.93l-.09-5,.06-5,.07-4.94q.06-2.44,0-4.89c0-3.26-.19-6.53-.4-9.79a360.9,360.9,0,0,0-5-39c-2.29-12.94-5-25.8-7.93-38.63-5.82-25.66-12.39-51.17-18.61-76.78-3.11-12.81-6.14-25.64-8.88-38.55s-5.22-25.89-6.91-39c-.83-6.57-1.46-13.17-1.69-19.82-.09-3.33-.12-6.66.08-10a69.26,69.26,0,0,1,1.16-10,40.47,40.47,0,0,1,3.06-9.76,26.87,26.87,0,0,1,2.73-4.48,25.11,25.11,0,0,1,3.67-3.73,79,79,0,0,0,6.81-6.87c2.18-2.42,4.28-4.94,6.35-7.47,8.25-10.19,16-20.83,23.64-31.53s15.13-21.54,22.58-32.39c14.91-21.71,29.59-43.58,44.65-65.22,7.56-10.8,15.13-21.59,23.29-32,2.05-2.6,4.14-5.17,6.38-7.67,1.12-1.24,2.27-2.47,3.54-3.64,1.47-1.06,2.17-2.54,5.28-2.9,4.21,2.13,2,4.58,2.36,6.1a47.16,47.16,0,0,1-1.11,5c-.89,3.23-1.94,6.39-3,9.51-2.22,6.24-4.62,12.4-7.13,18.5l-3.78,9.15-3.95,9.08a388.05,388.05,0,0,1-17.71,35.48c-3.36,5.71-6.84,11.36-10.75,16.75a110.57,110.57,0,0,1-13.06,15.16,74.33,74.33,0,0,1-7.76,6.43,66.56,66.56,0,0,1-8.7,5.14,84.87,84.87,0,0,1-9.31,3.8c-3.15,1.08-6.3,2-9.4,3.08a79.15,79.15,0,0,0-9,3.53c-1.47.65-2.86,1.45-4.27,2.2s-2.75,1.64-4,2.61-2.57,1.91-3.82,2.93a30.82,30.82,0,0,0-3.43,3.27,89.26,89.26,0,0,0-6,7.58c-7.56,10.64-14.17,22-20.63,33.48-12.85,22.95-24.84,46.4-36.74,69.89C1038,1915.67,1015,1963.07,991,2010c-12,23.45-24.21,46.83-37.45,69.67-3.33,5.7-6.73,11.36-10.29,16.94l-10.83,16.54c-1.82,2.74-3.52,5.55-5.29,8.32s-3.54,5.54-5.18,8.38l-5,8.47-4.68,8.64a164.24,164.24,0,0,0-14.2,36.39c-3.19,12.65-4.64,25.72-5.63,38.8-.54,6.54-.83,13.12-1.2,19.68l-.85,19.73L888.74,2301c-1,26.3-1.43,52.63-1.58,79s.07,52.66.62,79,1.47,52.64,3,78.91c.76,13.14,1.7,26.26,2.9,39.35s2.67,26.16,4.85,39.09a178,178,0,0,0,4.16,19.13,53.36,53.36,0,0,0,3.33,9c.68,1.34,1.57,2.82,2.37,4.26s1.59,2.92,2.34,4.42,1.47,3,2.1,4.63c3.28,2.54-3.51,5.78-3.63,1.71a61.45,61.45,0,0,1-3.85-9.37,123.71,123.71,0,0,1-4.58-19.45,170.73,170.73,0,0,1-1.3-39.75c.5-6.65,1.55-13.15,2-19.66a100.79,100.79,0,0,0,.09-19.43,46.89,46.89,0,0,0-.76-4.74,43.2,43.2,0,0,0-1.2-4.62,43.67,43.67,0,0,0-3.95-8.68c-.74-1.41-1.74-2.7-2.59-4.05s-1.9-2.61-2.93-3.86q-3.05-3.79-6.41-7.37c-4.45-4.8-9.1-9.45-13.75-14.11s-9.32-9.32-13.93-14c-18.53-18.78-36.19-38.42-53.15-58.62-4.22-5.07-8.45-10.13-12.58-15.27S782.1,2406.16,778,2401c-2.07-2.58-4-5.28-5.93-7.93s-4-5.29-5.83-8c-3.76-5.43-7.58-10.82-11.13-16.39s-7.07-11.16-10.54-16.78c-1.69-2.84-3.31-5.71-5-8.57-.82-1.43-1.67-2.85-2.46-4.3l-2.36-4.36-2.36-4.36c-.8-1.45-1.57-2.91-2.3-4.39l-4.48-8.84c-2.84-6-5.73-11.91-8.33-18C712,2287,707.21,2274.63,703,2262.1s-7.82-25.26-10.79-38.15a349.59,349.59,0,0,1-6.72-39.09c-.41-3.28-.65-6.59-1-9.88l-.33-5c-.12-1.65-.2-3.31-.25-5a197,197,0,0,1,.07-19.9c.09-1.66.25-3.32.37-5s.35-3.32.58-5c.44-3.31,1.23-6.67,2-9.8.36-1.59.72-3.2,1-4.74,0-2.64,4.23,1.57,1.46,2.2-1.18,3-2.26,6.13-3.35,9.23-4.29,12.43-8.39,24.95-12.51,37.45l-12.29,37.55c-2,6.28-4.17,12.47-5.73,18.8a170.6,170.6,0,0,0-3.8,19.21L651,2250l-.48,4.88c-.18,1.63-.3,3.26-.39,4.89s-.22,3.26-.29,4.9q-.4,9.81-.11,19.64c.42,13.1,1.64,26.19,3.2,39.24,3.06,26.11,7.38,52.2,8.36,78.68.2,6.61.32,13.24,0,19.86,0,1.66-.13,3.31-.24,5s-.18,3.31-.34,5c-.3,3.3-.67,6.62-.93,9.82a156.76,156.76,0,0,0,0,19.55c.37,6.53,1,13.07,1.75,19.58,1.53,13,3.61,26,5.91,39s4.85,25.86,7.5,38.75c5.3,25.79,11.06,51.49,16.55,77.27,2.74,12.89,5.42,25.8,7.8,38.78,1.18,6.49,2.3,13,3.22,19.55a168.37,168.37,0,0,1,1.83,19.85,36.69,36.69,0,0,1-1,10.25c-.54,1.66-1.34,3.81-3.71,4.82-2.43.85-4.44-.17-6-1a47.89,47.89,0,0,1-8-6.43c-2.41-2.34-4.65-4.82-6.8-7.37a230.61,230.61,0,0,1-22.34-32.85A327.93,327.93,0,0,1,639,2646c-5.09-12.21-9.55-24.75-12.26-37.81a80.17,80.17,0,0,1-1.87-20,33.64,33.64,0,0,1,2-10.11,20,20,0,0,1,2.52-4.69,16.17,16.17,0,0,1,8.8-6,21.67,21.67,0,0,1,5.22-.78,39,39,0,0,1,10.19,1.13c3.31.79,6.43,1.92,9.59,2.95,1.58.53,3.11,1.18,4.66,1.77s3.11,1.18,4.62,1.87a258.06,258.06,0,0,1,35,18.71c11.2,7,22,14.61,32.64,22.45,21.23,15.69,41.56,32.5,62.07,49,10.26,8.24,20.57,16.42,31.24,24a173.67,173.67,0,0,0,16.47,10.57,66.38,66.38,0,0,0,8.72,4.11,19.28,19.28,0,0,0,4.46,1.17,17.46,17.46,0,0,0,4.55.08,21.42,21.42,0,0,0,8.64-3.06,40.36,40.36,0,0,0,7.44-5.9c4.58-4.52,8.48-9.77,12.43-15a97.7,97.7,0,0,1,6.31-7.81,16.64,16.64,0,0,1,4.21-3.42,5.3,5.3,0,0,1,6.25.65,13.41,13.41,0,0,1,3,4.66,38.66,38.66,0,0,1,1.66,4.85c.9,3.25,1.56,6.52,2.15,9.79,1.14,6.55,1.95,13.11,2.65,19.68l1,9.83q.52,4.88,1.22,9.75c1.86,13,4.47,25.86,7.49,38.65,6.06,25.57,13.68,50.78,21.88,75.78s17.12,49.78,26.16,74.52c4.5,12.38,9.07,24.73,13.39,37.2,1.07,3.12,2.13,6.25,3.13,9.41s2,6.33,2.67,9.66c-.07,1.93,1.58,2.78-.61,6.32-4.79.41-4.16-2-5.81-2.85l-3.43-3.6-3.36-3.63c-8.9-9.71-17.91-19.27-27.27-28.5s-19-18.16-28.79-26.93c-19.69-17.43-40.33-33.77-61.5-49.38l-7.93-5.87c-2.65-1.94-5.36-3.81-8-5.71l-16.13-11.36-16.37-11-8.19-5.5-8.31-5.33L787,2809.62c-5.56-3.51-11.21-6.89-16.81-10.35l-33.75-20.56c-11.22-6.92-22.37-14-33.36-21.27s-21.85-14.83-32.22-23.09c-2.59-2.07-5.13-4.21-7.6-6.45a54.62,54.62,0,0,1-7-7.39c-.78-1.55-2.63-2.68-1.63-6.09,2.54-2.75,4.54-1.41,6.23-1.39a44.28,44.28,0,0,1,9.61,3.49,93,93,0,0,1,17,10.64,80.25,80.25,0,0,1,7.52,6.68,51.14,51.14,0,0,1,6.46,7.81,52.29,52.29,0,0,1,7.6,18.71,145.58,145.58,0,0,1,2.54,19.79c.48,6.6.77,13.18,1.13,19.75s.79,13.12,1.37,19.66a331.1,331.1,0,0,0,5.75,38.89,317.14,317.14,0,0,0,10.62,37.84,364.26,364.26,0,0,0,14.94,36.38c5.65,11.85,11.87,23.42,18.46,34.78h0a1.5,1.5,0,0,1-2.6,1.5Z"/><path class="cls-1" d="M1538.1,1276.6C1595,1313,1711,1315,1737,1249s-10,40-76,52-22,686-18,996-6,490-18,556-14,147-14,147"/><path class="cls-1" d="M674,399c-8,7-6,294-2,307S857,563,860,557,678,405,683,400s294,2,294,9S867,567,869,557,980,406,984,413s1,291.54,0,293.77S863,555,877,567s126,135,104,140-277-4-287,0"/><path class="cls-1" d="M816,420s-78.25-3.25-81.5,0,49,46.5,49,46.5"/><path class="cls-1" d="M800,481s44,41.5,56,41.5S890,481,890,481"/><path class="cls-1" d="M898.5,466.5s44.5-46.89,25-47.94-74.5,0-74.5,0"/><path class="cls-1" d="M749.5,495s-48.5-38.5-52-36.5-3,82.5-3,82.5"/><path class="cls-1" d="M694.48,571.5s-3,76.5,0,80.5,55-35,55-35"/><path class="cls-1" d="M768,600.5s53-45,48-50-48-40-48-40"/><path class="cls-1" d="M797,633s54-42,58-41,30.5,37,30.5,37"/><path class="cls-1" d="M896.5,645s29.5,38,31,42-74.5,5-74.5,5"/><path class="cls-1" d="M816.33,692s-86.83,2-80.83-7,45-40,45-40"/><path class="cls-1" d="M854,1137c6.67,4.67,129.66-140,132.32-142.67s-106-144.67-111.33-142S833,879.67,840.33,883,984.33,989,975,983.67s-134.6-107.33-135.63-90,20.37,242,5.33,250-125-134.6-123-142.3S824.54,895,833,886.33"/><path class="cls-1" d="M785.67,957s26.67-25.33,28.67-24.67,4,69,4,69"/><path class="cls-1" d="M818.33,1030.33s2,62.67,0,63.33-32.67-39.33-32.67-39.33"/><path class="cls-1" d="M773.67,1036.33s-28-32.67-25.33-38,25.33-31.49,25.33-31.49"/><path class="cls-1" d="M874.33,879s-14.67,10.67-12,12S883,905,883,905"/><polyline class="cls-1" points="879 875 884.33 871.67 911 905"/><path class="cls-1" d="M918.33,916.33s23.33,29.33,20,27.33S895,910.33,895,910.33"/><path class="cls-1" d="M273.67,1147s136,52.67,142,51.33S519,1046.33,511,1035.67s-164.67,64.67-210,90.67-38,12-44,4-91.33-236-95.33-240S68.33,1018.33,61,1039.67s97.33-150,95.33-152.67-54.67-4-58.67-4-50,168.67-46.67,170,208,91.33,214.67,90,36-193.33,42.67-190.67,213.27,74,202.67,75.33c-5.33.67-204-74.67-213.33-80.67S169,890.33,169,890.33"/><path class="cls-1" d="M312.33,1023s8-44,11.33-46,58,15.33,58,15.33"/><path class="cls-1" d="M399,999.92s59.33,18.41,60,22.41S395,1053,395,1053"/><path class="cls-1" d="M369.67,1065.67S309,1093,303,1089s5.33-48.32,5.33-48.32"/><path class="cls-1" d="M385.67,1103s-58,23.33-62.67,30.67S360.33,1153,360.33,1153"/><path class="cls-1" d="M373,1159.67s32,15.33,38,14S438.33,1128,438.33,1128"/><path class="cls-1" d="M414.33,1092.33s57.33-29.25,60.67-24.63S444.67,1117,444.67,1117"/><path class="cls-1" d="M153.67,1079s52,20.67,59.33,16.67-26-69.21-26-69.21"/><path class="cls-1" d="M180.33,1005s-28.67-61.33-32.67-61.33-30,46.67-30,46.67"/><path class="cls-1" d="M110.33,999.92c-11.33,15.75-26,42.41-26,45.75S137,1070.33,137,1070.33"/><path class="cls-1" d="M217,984.33S189.67,927,191,921.67s42,14,42,14"/><path class="cls-1" d="M246.33,943.67s30.3,14,34.81,17.33-6.15,48.67-6.15,48.67"/><path class="cls-1" d="M223.67,1005s24.67,66,32.67,71.33S271,1023,271,1023"/><path class="cls-1" d="M413.67,697c2.86,2.64,78,76.67,78,86s-78,83.33-82,85.33S325.67,787,323,782.67s169.33-5,162,0-170,1.65-163.33-3S407.06,690.9,413.67,697Z"/><path class="cls-1" d="M385.67,737.67s20-24,25.33-22,22,22,22,22"/><path class="cls-1" d="M442.33,748.33s15.34,16,16.67,20-40,3.33-40,3.33"/><path class="cls-1" d="M402.33,771.71S347,773.67,355,767s23.27-20.67,23.27-20.67"/><path class="cls-1" d="M378.27,824.33S347.67,801,357,799.67s40.67,0,40.67,0"/><path class="cls-1" d="M419,799.07S468.33,797,462.33,805s-21.41,19.33-21.41,19.33"/><path class="cls-1" d="M433,833s-19.33,21.33-23.67,20S389,833,389,833"/><path class="cls-1" d="M2107,970c6.79-2.43,57-17,63-15s71,110,71,110l-67,91h-5s2-194,0-191-128,99-129,103,117,78,122,88-62,25-66,21-65-104-57-116S2092.2,975.29,2107,970Z"/><path class="cls-1" d="M2098.33,1088.33c-4-1.33-38-12.86-31.33-22.1s31.33-31.24,31.33-31.24"/><path class="cls-1" d="M2114.33,1020.33s37.33-28,35.33-20,.08,50.67.08,50.67"/><path class="cls-1" d="M2153,1070.33s3.49,48-3.26,50-35.41-20.67-35.41-20.67"/><path class="cls-1" d="M2182.33,1040.33s-5.33-52,0-50,22,30,22,30"/><path class="cls-1" d="M2211.67,1035s17.33,20.67,16,26.67-16,26.67-16,26.67"/><path class="cls-1" d="M2204.33,1099.67s-14.67,23.58-17.33,20.79-3.33-50.12-3.33-50.12"/><path class="cls-1" d="M2071.5,1123s-19.5-33-17-31.5S2087,1114,2087,1114"/><path class="cls-1" d="M2107.5,1127s30,17,29.5,20.5-19,7.5-19,7.5"/><path class="cls-1" d="M2110,1159s-11.5,6.5-14.5,2.5-13.27-25-13.27-25"/><path class="cls-1" d="M2439,630c-3,2,2.5,217.5,3.5,222.5s124-99.5,125.5-106S2439,635,2446,630s229-1.5,228,0-99,117-97,120.5,81,100.85,91.5,102.17S2670,630,2671.5,639s-.5,217.5-5.5,218-207.5,2.5-213.5,0"/><path class="cls-1" d="M2524.5,673.5s-46-34-38-34.5,64.5,0,64.5,0"/><path class="cls-1" d="M2577,638.78s67-2.28,65,5.22-26.5,33.5-26.5,33.5"/><path class="cls-1" d="M2604,690s-26.5,27.5-30,28-38.5-33-38.5-33"/><path class="cls-1" d="M2629,708s-26,35-25,39.5,25,28,25,28"/><path class="cls-1" d="M2635,784.5s20.5,32,23.5,32S2662,757,2662,757"/><path class="cls-1" d="M2662,726.5s5-61.5,0-59.5-22.5,29.73-22.5,29.73"/><path class="cls-1" d="M2535.5,801.5s39.5-31.5,41.5-31,27,28,27,28"/><path class="cls-1" d="M2613.5,811.5s19,25,21.5,29-58,2.5-58,2.5"/><path class="cls-1" d="M2551,843.28s-74.37,1.72-65.43-5.78,39.93-26,39.93-26"/><path class="cls-1" d="M1931,522.33c-8,4-2,12,37.33,54s138,136,149.33,134.67,182-168.67,190-178-363.48-9.33-379.74-18.67S2109.67,321,2122.33,323s177.59,178.67,185.46,191.33,0,12,0,12c-55.53,1.05-390.79-18.67-390.79-18.67"/><path class="cls-1" d="M2095.67,493s-112.35,8.6-100.67-11.33c11.33-19.33,49.91-51.33,49.91-51.33"/><path class="cls-1" d="M2059.67,413.67s55.33-61.33,62-59.33S2179,413.67,2179,413.67"/><path class="cls-1" d="M2192.33,427s54.67,45.33,52,56.67-102.67,11.18-102.67,11.18"/><path class="cls-1" d="M2135.67,554.33s103.52-3.33,108.76,6S2193,615,2193,615"/><path class="cls-1" d="M2179,630.33s-55.33,46.67-59.67,47.33-59.67-47.33-59.67-47.33"/><path class="cls-1" d="M2044.91,615s-78.94-59.82-50.76-61.25,101.52,0,101.52,0"/><path class="cls-1" d="M2473,430.33c-6.16,3.59-92,86.67-95,92.67s77,80,95,81,100-87.68,90-86.84-173-4.83-169,0S2574,529,2551,505,2479.63,426.47,2473,430.33Z"/><path class="cls-1" d="M2450,469s18-22,26-21,24,21,24,21"/><path class="cls-1" d="M2510,480s27,23,25.5,26-45.5,0-45.5,0"/><path class="cls-1" d="M2470.88,507.33s-57.88,9.33-50.88,0S2445.15,480,2445.15,480"/><path class="cls-1" d="M2466,536s-35,1-41,5,20.15,24,20.15,24"/><path class="cls-1" d="M2459,578s9.08,10,21,13,20-19,20-19"/><path class="cls-1" d="M2518.28,559S2558,535,2529,536s-39,0-39,0"/><path class="cls-1" d="M2548,2086c-11,6-5,241,0,248s155-118,150-124-161-117-140-124,241-6,244,6-103,126-93,110,92-122,96-98,3,223.57-4,230.28S2698,2186,2709,2214s91,123,88,125-209,0-227,0"/><path class="cls-1" d="M2663,2320s-78,15-62-1,29.92-30,29.92-30"/><path class="cls-1" d="M2653,2273s40-33,44-32,29,32,29,32"/><path class="cls-1" d="M2738,2289s30,29,25,32-68,5.38-68,5.38"/><path class="cls-1" d="M2752,2251s-29-41-25-48,25-26,25-26"/><path class="cls-1" d="M2759,2161s27-34.5,30-31,0,70,0,70"/><path class="cls-1" d="M2790.33,2229s3.33,65,0,66-26.77-30-26.77-30"/><path class="cls-1" d="M2653,2147.5s36.5,39,45.5,35.5,27.5-35.5,27.5-35.5"/><path class="cls-1" d="M2739.31,2132.5s27.19-33,19.69-34-64,0-64,0"/><path class="cls-1" d="M2663,2098.06s-55.5-4.44-60.5,0,34.5,34.44,34.5,34.44"/><path class="cls-1" d="M415,2716s118,101,124,107-115.29,114.46-123,101-5-212-13-214-88,127-88,127,91,87,97,92,29.16,20.21,41,23c17,4,86-129,86-129"/><path class="cls-1" d="M427.11,2831s-2.11,58,5.89,62,38-31,38-31"/><path class="cls-1" d="M483,2850s42-22,28-30-28-27-28-27"/><path class="cls-1" d="M463,2780s-33.78-36-35.89-31,0,63,0,63"/><path class="cls-1" d="M397,2812s-4-60-8-56-20,27.9-20,27.9"/><path class="cls-1" d="M355,2805s-19,28-19,31,23,26.18,23,26.18"/><path class="cls-1" d="M375,2874s26,33,28,27-6-55-6-55"/><path class="cls-1" d="M306,2442s-138,133-140,139,90,139,94,145,63-20,66-29-29.39-256-15-257c7.5-.5,123.5,142.5,123,149s-114.33,120.5-102.17,104.5S429.69,2591.57,438,2583.44c5.79-5.66,143-142.44,149-150.44s-279,7-270-5,122.17-109,127.59-106,135.6,93,142.51,100"/><path class="cls-1" d="M447.5,2417c-2.5-1-73.94-3.5-71-10.5S401,2378,401,2378"/><path class="cls-1" d="M412,2369s28-27.5,32-27,39,27,39,27"/><path class="cls-1" d="M498,2378s43.5,28,43.5,33.5-68,5.5-68,5.5"/><path class="cls-1" d="M447.49,2454s-62.49-4-70.49,1.5,28.5,47.5,28.5,47.5"/><path class="cls-1" d="M414.5,2515s18,35.5,29.5,37.5,39-37.5,39-37.5"/><path class="cls-1" d="M501,2500.5s49-42,36.5-44.5-64-3.4-64-3.4"/><path class="cls-1" d="M334.5,2556.5s-6-70,0-68,41.35,41.5,41.35,41.5"/><path class="cls-1" d="M386,2544.5s26.34,35,25.67,42-25.67,31-25.67,31"/><path class="cls-1" d="M336,2576s2.5,74,7,77,33.53-27.5,33.53-27.5"/><path class="cls-1" d="M296,2586.5s6.5,58.42,0,66.71S251,2626,251,2626"/><path class="cls-1" d="M235,2612s-43-24-39.5-31,39.5-40,39.5-40"/><path class="cls-1" d="M251,2527s40.5-39.08,45-38.54,0,68,0,68"/></svg>