<?xml version="1.0" encoding="UTF-8" standalone="no"?>
<svg
   xmlns:dc="http://purl.org/dc/elements/1.1/"
   xmlns:cc="http://creativecommons.org/ns#"
   xmlns:rdf="http://www.w3.org/1999/02/22-rdf-syntax-ns#"
   xmlns:svg="http://www.w3.org/2000/svg"
   xmlns="http://www.w3.org/2000/svg"
   viewBox="0 0 4997.2798 4592.6265"
   height="4592.6265"
   width="4997.2798"
   xml:space="preserve"
   id="svg2"
   version="1.1"><metadata
     id="metadata8"><rdf:RDF><cc:Work
         rdf:about=""><dc:format>image/svg+xml</dc:format><dc:type
           rdf:resource="http://purl.org/dc/dcmitype/StillImage" /></cc:Work></rdf:RDF></metadata><defs
     id="defs6" /><g
     transform="matrix(1.3333333,0,0,-1.3333333,0,4592.6267)"
     id="g10"><g
       transform="scale(0.1)"
       id="g12"><g
         transform="scale(1.23343)"
         id="g14"><path
           id="path16"
           style="fill:none;stroke:#231f20;stroke-width:40.53739929;stroke-linecap:round;stroke-linejoin:round;stroke-miterlimit:10;stroke-dasharray:none;stroke-opacity:1"
           d="m 12763.8,15713.7 c -189.1,113.5 -737.7,586.3 -1115.9,510.7 -378.3,-75.7 -1040.4,-889 -1475.4,-1721.3 C 9737.49,13670.9 9888.77,11438.9 8716.03,9774.45 7543.34,8109.99 5973.42,4609.99 5519.47,4137.49 5065.51,3664.99 4422.41,4118.92 4081.94,2946.26 c -340.46,-1172.75 510.7,605.22 2515.67,4199.02 2004.99,3593.82 2367.23,5814.52 3616.49,7080.42 1249.3,1265.8 1598.9,931.9 2267.2,1095.8 668.2,163.9 529.5,378.3 655.7,163.9 126,-214.3 1045.4,-2495.4 1423.7,-2533.3 378.3,-37.8 208.1,1437.5 -699.8,1796.9 -907.9,359.4 -1890.3,-215.5 -2527,-707.3 -636.7,-491.7 -907.8,-825.8 -605.2,-327.7 302.6,498 1141.4,996.5 1547.9,1053 406.4,56.5 215.3,-64.5 391.8,-7.7 176.5,56.7 329.8,76.8 247.9,133.6 -82,56.6 -788.1,208 -1475.2,-252.3 -687.2,-460.1 -1361.1,-1413.5 -1550.14,-2219.5 -179.66,-766 557.84,189.1 955.04,718.6 397.1,529.6 1331.7,1347.9 2235.5,1515.5 903.9,167.7 1537.4,-579.3 1499.6,-1316.9 -37.8,-737.6 -283.6,-160.7 -548.4,605.2 -264.8,765.9 -643,1163.1 -2061.4,303.1 -1454.8,-882 -1773.6,-1753.1 -2051.96,-2351.9 -300.22,-645.7 380.66,-2032.69 1427.16,-1793.1 1046.5,239.6 1273.4,680.9 1172.6,693.4 -100.9,12.7 -163.9,-1096.92 -1500.4,-945.55 -1336.51,151.25 -1538.22,1361.65 -1424.8,1664.35 113.51,302.5 -170.74,-350.1 -284.25,-614.9 -113.42,-264.8 6.9,-292.9 170.83,-696.5 163.85,-403.46 158.18,-435.73 920.32,-579.96 1399.6,-264.79 2647.9,151.29 3013.5,479.16 365.7,327.8 -1084.3,-680.87 -2458.7,-554.8 -1374.26,126.07 -1349.05,428.72 -1424.69,252.14 -75.73,-176.5 -103.29,-195.72 85.77,-233.58 189.15,-37.78 302.66,-416.07 435.02,-898.31 132.3,-482.23 9.4,-538.98 -179.63,-520.09 -189.15,18.97 -349.92,47.27 -520.1,709.24 -170.25,661.9 -37.86,491.72 75.65,491.72 113.42,0 427.67,-917.28 378.21,-1049.67 -49.45,-132.32 -94.53,-50.84 -208.04,53.18 -113.42,104.02 -368.8,950.2 -340.43,1058.43 28.38,108.24 283.68,278.41 472.83,174.39 189.15,-104.02 453.81,-1002.32 444.41,-1191.39 -9.4,-189.15 -132.4,-264.79 -28.3,-330.95 104,-66.23 765.9,-463.34 2468,-160.77 1702,302.57 2486.8,1106.35 2572,1267.12 85.1,160.69 -236.4,226.93 -274.2,170.18 -37.9,-56.76 -746.7,-866.94 -2344.9,-1133.19 -1598.3,-266.33 -1919.8,-20.43 -1995.5,7.95 -75.6,28.38 -293,1107.32 -302.5,1196.66 -9.5,89.34 245.9,90.32 274.2,0 28.3,-90.31 199.8,-1093.7 283.6,-1196.66 83.9,-102.96 283.7,-104.02 293.2,-18.97 9.5,85.13 -264.8,1078.05 -189.1,1144.21 75.6,66.15 245.9,85.12 321.5,-28.38 75.7,-113.42 104.8,-1066.05 198.6,-1144.13 93.8,-78.15 255.3,-9.48 274.2,66.16 18.9,75.64 -208,1173.56 -160.7,1177.77 47.2,4.22 245.8,90.32 302.5,0 56.8,-90.31 245.9,-1149.4 274.2,-1177.77 28.4,-28.38 264.8,-9.49 283.7,66.16 19,75.64 -283.7,1106.34 -217.4,1163.09 66.1,56.76 226.9,104.02 293.1,56.76 66.2,-47.27 229.6,-1027.54 283.6,-1144.21 54.2,-116.59 274.3,-94.53 283.7,75.72 9.5,170.18 -397.1,1040.11 -368.7,1115.75 28.4,75.65 217.4,189.15 283.7,94.54 66.1,-94.54 354.7,-1099.78 491.6,-1134.64 137,-34.95 170.3,56.67 141.9,132.39 -28.4,75.64 -472.8,1040.11 -463.4,1125.24 9.5,85.04 179.7,113.42 208.1,66.16 28.4,-47.27 324.2,-1096.87 510.6,-1125.24 186.4,-28.38 406.6,151.28 387.7,245.82 -18.9,94.61 -781.2,834.9 -813.2,983.43 -32.1,148.54 217.5,179.64 264.7,160.74 47.3,-18.9 841.7,-794.25 879.4,-851.01 37.9,-56.75 -547.6,709.65 -832.1,671.38 -284.4,-38.34 -326.4,-600.92 -2089.7,-690.27 -1763.39,-89.42 -1768.33,349.84 -1768.33,349.84" /></g><g
         transform="scale(2.40288)"
         id="g18"><path
           id="path20"
           style="fill:none;stroke:#231f20;stroke-width:20.80830002;stroke-linecap:round;stroke-linejoin:round;stroke-miterlimit:10;stroke-dasharray:none;stroke-opacity:1"
           d="m 7723.22,8659.97 c -21.18,29.34 -39.24,113.03 77.32,118.65 116.61,5.66 72.75,-133.26 -10.57,-122.44 -83.27,10.78 -88.76,137.3 12.66,127.6 101.42,-9.7 108.95,-51.77 160.72,-135.92 0,0 -22.68,9.7 -71.21,0 -48.52,-9.7 -213.57,-3.25 -229.76,58.26 -16.19,61.47 48.56,229.73 67.96,239.47 19.43,9.69 229.76,16.18 300.97,-35.63 71.16,-51.77 74.41,-58.22 9.7,-25.88 -64.72,32.37 -368.94,9.73 -414.21,-126.19 -45.32,-135.92 -22.65,-330.1 16.18,-387.9 38.83,-57.81 -19.43,-149.28 -29.13,-100.76 -9.7,48.53 -48.56,6.49 -71.2,-25.88 -22.64,-32.38 -97.1,-22.64 -97.1,12.94 0,35.58 -29.08,87.39 -103.54,95.47 -74.41,8.11 -9.69,-118.11 -74.41,-27.51 -64.75,90.6 106.79,152.11 67.96,106.79 -38.87,-45.32 -226.56,-67.96 -336.55,-229.77 -110.04,-161.8 78.82,-171 34.87,-158.1 -43.9,12.94 33.09,135.46 -5.78,77.82 -38.83,-57.68 -35.58,-65.33 114.11,-36.2 149.74,29.13 215.99,19.39 258.07,-9.7 42.07,-29.13 71.16,-29.13 119.73,-16.19 48.52,12.94 139.12,-64.71 145.61,-77.66 6.45,-12.94 -67.96,-87.39 -216.82,-25.88 -148.86,61.47 -65.25,-109.58 -188.02,-92.97 -122.77,16.56 -197.06,154.44 -206.76,169.58 -9.73,15.15 58.23,-18.39 148.83,-37.78 90.64,-19.44 203.88,-19.44 258.89,-48.57 55.02,-29.13 181.24,-51.77 220.07,9.74 -29.13,-22.68 -55.01,-16.19 -97.09,-32.38 -19.43,-9.7 -51.77,-110.03 -168.25,-84.15 -116.53,25.89 -275.09,48.57 -275.09,-32.34 0,-80.9 346.25,-103.58 310.67,-64.75 -35.58,38.83 -333.31,61.51 -359.2,-84.11 -25.88,-145.61 236.22,-181.24 381.84,-110.03 145.61,71.21 223.31,148.86 310.66,348.58 87.4,199.76 122.98,295.39 178,444.26 55.02,148.86 38.83,265.35 67.96,333.31 29.13,67.96 51.77,217.9 28.05,424.98 -23.76,207.13 -192.02,507.02 -289.11,509.14 -97.09,2.17 -6.04,251.24 -24.18,334.56 -18.15,83.37 -99.88,388.17 -461.82,408.47 -361.94,20.4 -679.98,-232.4 -744.69,-390.99 -64.71,-158.56 -25.97,-59.68 53.69,133.59 79.65,193.2 234.21,266.2 418.7,292.1 184.45,25.9 339.76,-29.1 456.29,-64.7 116.48,-35.6 245.91,-148.9 258.85,-239.5 12.94,-90.57 64.76,-16.2 213.58,-155.28 148.86,-139.17 64.75,-430.4 84.15,-346.3 19.43,84.15 -77.66,307.47 -142.37,343.05 -64.72,35.58 -158.56,-148.86 -161.81,-61.47 -3.25,87.35 -38.83,326.8 -103.54,242.7 -64.76,-84.1 -84.15,-229.76 80.9,-514.54 12.94,110.04 25.89,495.14 -297.72,533.94 -323.62,38.8 -676.36,-74.4 -663.41,-148.86 12.94,-74.41 100.33,55.06 265.34,16.19 165.05,-38.83 462.78,-307.42 385.12,-258.9 -77.65,48.57 -689.29,265.35 -692.54,188.61 -3.2,-76.78 662,-219.95 592.21,-240.38 -69.75,-20.43 -530.7,32.38 -656.92,119.73 -126.19,87.4 -232.97,58.27 -242.71,-145.62 -9.7,-203.87 433.98,-366.72 799.33,-323.61 -51.77,0 -404.51,45.32 -556.62,216.83 -152.11,171.5 -171.51,297.72 -32.34,368.89 51.4,21.89 29.09,-48.53 336.51,-87.36 307.47,-38.82 524.25,-158.56 453.08,-197.38 -71.2,-38.83 -203.88,-93.85 -304.21,-281.54 -100.3,-187.69 -207.09,126.18 -394.78,-220.07 -187.69,-346.25 -181.24,-666.62 -142.41,-504.81 38.87,161.81 -41.74,70.83 -153.4,65.96 -111.62,-4.87 -129.51,257.07 -24.26,276.67 105.24,19.6 111.65,-63.09 48.52,-101.92 -63.09,-38.83 43.7,-165.05 -33.96,-145.62 -77.65,19.4 0,0 -48.52,72.79 -48.57,72.83 -34,324.57 48.52,339.8 82.53,15.19 101.92,-242.71 111.62,-116.52 9.74,126.22 -43.66,218.44 -135.88,174.74 -92.22,-43.69 -97.09,-281.53 -111.66,-398.02 -14.56,-116.48 38.83,-252.4 140.79,-266.97 101.92,-14.52 -9.74,155.36 63.09,-169.88 72.79,-325.19 320.32,-364.02 -93.14,-455.28 -296.97,-65.55 -310.71,242.74 -912.69,-126.23 C 4843.01,7405.81 5204.41,7326.36 4622.07,6521.92 4039.68,5717.42 4141.9,4000.74 1549.41,1883.28 837.402,1301.73 -224.79,3848.13 56.8458,6901.67 412.751,10760.5 2972.42,13741.2 5418.99,13940.9 7865.55,14140.6 4217.43,14572.6 1923.89,10655.7 -322.962,6818.43 1071.5,3259.58 1674.24,2556.85 c 602.74,-702.79 -2406.784,3338.52 534.85,8099.45 2941.64,4761 8813.41,4158.5 10399.31,832.3 1648.2,-3456.63 -1042,-8556.58 -3762.11,-9475.27 -756.05,-255.36 265.31,357.74 391.24,-685.3 125.93,-1042.998 3146.67,754.47 4569.67,3700.35 1423,2945.87 1291,7269.12 -1198.3,8762.72 -1373.1,823.8 524.3,-624.1 898.7,-199.7 374.5,424.4 2792.4,-2391.1 1872.4,-6688.28 C 14572.7,3132.32 12309.3,784.308 10861.4,10.4042" /></g><g
         transform="scale(1.56583)"
         id="g22"><path
           id="path24"
           style="fill:none;stroke:#231f20;stroke-width:31.93190002;stroke-linecap:round;stroke-linejoin:round;stroke-miterlimit:10;stroke-dasharray:none;stroke-opacity:1"
           d="m 14830.5,12139 c 62.1,-31 138.6,-35 225.4,29.3 237.2,175.7 119.1,456.9 129.1,566.1 9.9,109.3 546.2,49.7 506.5,129.2 -39.7,79.4 278.1,407.2 89.4,466.7 -188.7,59.6 -208.6,278.1 -278.1,625.8 -69.5,347.6 -188.7,1360.7 -437,1291.1 -248.3,-69.5 -139.1,278.1 -387.3,427.1 -161.6,96.9 -142.3,185.4 -131.1,210.8 v 0 c 4.1,9.3 7.2,10.2 0,0 -3.3,-4.8 -9,-12.1 -17.9,-22.1 -79.4,-89.4 69.5,-278.1 -10,-407.2 -79.4,-129.1 -198.6,-69.6 -119.1,149 79.4,218.5 -129.2,337.6 -208.6,516.4 -79.4,178.8 139,-307.9 -29.8,-407.2 -168.8,-99.3 -238.4,-218.5 -142.3,-355.6 96,-137.1 23.1,-379.4 -135.8,-230.4 -158.9,149 129.1,337.7 -168.8,466.8 -87.7,38 -122,80.3 -130.1,117 -19.6,88.1 111.9,144.2 20.9,32 -8.9,-10.8 -15.7,-21.4 -20.9,-32 -72.2,-144.5 164.4,-266.2 90.3,-405 -79.4,-149 -208.5,-149 -228.4,0 -6.2,46.5 -49.1,100.6 -98.6,149.1 -48,46.8 -102.3,88.3 -135.1,111.8 -17.7,12.8 -29.3,20.3 -30.3,20.5" /></g><g
         transform="scale(1.43463)"
         id="g26"><path
           id="path28"
           style="fill:none;stroke:#231f20;stroke-width:34.85229874;stroke-linecap:round;stroke-linejoin:round;stroke-miterlimit:10;stroke-dasharray:none;stroke-opacity:1"
           d="m 9024.1,6475.98 c -20.5,-52.07 -7.88,-261.4 3.62,-436.84 0,0 0,-0.07 0,-0.14 9.97,-153.21 19.17,-280.43 4.53,-254.01 -17.22,30.95 -13.1,145.13 -4.53,254.01 0,0.07 0,0.14 0,0.14 7.04,89.92 17.08,176.14 20.77,209.18 8.16,73.19 235.81,154.47 317.09,56.95 44.54,-53.4 8.57,-292.27 -37.08,-505.36 -37.64,-175.93 -81.98,-334.37 -92.99,-356.4 -24.4,-48.79 -276.45,-48.79 -276.45,-48.79 0,0 24.4,219.5 56.95,252.05 31.3,31.3 -5.37,138.22 312.49,153.14 11.92,0.63 24.25,1.05 37.08,1.33 357.65,8.08 1715.32,16.24 1853.62,-24.4 138.2,-40.64 -178.9,-512.19 -24.4,-569.14 27.1,-9.97 54,-10.66 80,-4.18 14.4,154.04 99.5,541.25 155.8,548.92 68.2,9.27 130,-32.55 97.5,-195.1 -26.8,-134.04 -131,-323.36 -253.3,-353.82 -3.1,-32.83 -3,-55.07 1.3,-60.78 24.3,-32.56 219.5,-8.16 626,-325.25 406.5,-317.08 479.7,-772.32 642.2,-666.65 162.6,105.67 24.4,406.52 219.6,495.95 47,21.54 74.5,72.07 90,133.62 48.9,193.08 -19.1,494.56 38.9,348.8 35.3,-88.73 8.8,-241.8 -38.9,-348.8 -55.4,-124.63 -139.5,-186.67 -187.6,-11.71 -89.4,325.24 -764.2,886.16 -991.8,918.71 -77.7,11.08 -109.1,40.64 -115.2,80.09 -9.3,59.88 39.7,142.61 72.9,217.96 8.9,20.29 16.6,40.08 21.8,58.76 8.6,31.3 9,74.24 4,117.32 -16.6,140.87 -91.9,283.76 -130.1,28.65 -49.6,-331.59 -64.6,-509.27 31.4,-422.69 0.4,0.42 0.9,0.76 1.3,1.18 29.1,26.77 52.5,109.93 71.6,216.78 9.6,54.02 18.1,114.18 25.8,176.08 5.5,44.54 10.5,90.06 15.1,134.81 18.9,182.2 31.2,353.4 41.9,407.28 10.6,52.49 -3,89.85 -25.1,95.36 -10.6,2.72 -23.2,-1.96 -36.1,-15.9 -22.5,-24.46 -45.9,-77.37 -60.7,-168.89 -26.9,-167.5 -57.5,-241.67 80,-317.85 69.4,-38.41 181.8,-77.44 359,-129.31 528.5,-154.46 788.6,-845.51 804.9,-902.39 16.2,-56.95 390.2,325.17 -56.9,910.55 -447.1,585.31 -804.9,617.86 -886.2,626.02 -27.2,2.65 -45.5,32.41 -34.1,82.87 22.9,100.31 163.5,282.66 586.5,497.63 331.9,168.75 627.6,220.26 848.3,184.64 202.1,-32.62 341.3,-138.22 387.9,-293.59 97.6,-325.24 -219.5,-682.97 -300.8,-756.16 -81.3,-73.19 374,512.19 105.7,748 -27,23.77 -57.2,43.5 -90.2,59.32 -294.8,140.8 -824.2,-30.46 -1511.4,-425.2 -8.6,-4.95 -17.3,-9.82 -26,-14.64 -54.6,-30.31 -111.4,-58.69 -169.9,-85.1 -11.9,-5.37 -24,-10.74 -36.1,-15.9 -860.7,-372.64 -2077.22,-345.24 -2514.13,-232.18 -78.77,20.35 -147.36,46.28 -205.77,74.51 -295.9,142.9 -330.47,344.06 -104.91,175.8 57.16,-42.73 89.78,-102.68 104.91,-175.8 56.53,-272.12 -128.53,-726.39 -186.18,-1149.43 -10.95,-79.88 -27.05,-140.24 -45.87,-185.27 -107.41,-257.14 -302.38,-9.83 -108.67,-9.83 55.56,0 87.48,3.83 108.67,9.83 65.66,18.54 29.63,57.23 281.61,63.36 333.33,8.08 1284.54,56.88 1886.14,-97.59 601.6,-154.39 569.1,-560.91 617.9,-666.65 48.7,-105.67 -122,-48.72 -170.7,-81.28 -48.8,-32.48 24.3,317.09 -293.2,471.56 -317.6,154.46 -1999.5,300.77 -2202.76,195.1 -203.26,-105.67 -365.81,-16.24 -390.21,-81.28 -24.32,-65.03 -138.15,-430.91 24.4,-316.53 162.55,114.39 439,316.53 617.86,-24.39 178.86,-340.86 -195.1,-821.61 -650.34,-772.89 -26.77,2.93 -50.4,6.49 -71.1,10.67 -61.69,12.54 -97.59,30.46 -115.57,50.46 -78.63,87.34 182.41,214.69 121.63,109.58 -30.32,-52.42 -74.24,-86.16 -121.63,-109.58 -76.68,-37.99 -162.41,-49.14 -214.14,-69.21 -83.78,-32.56 122.41,788.91 301.34,805.15 101.07,9.2 130.97,-277 28.37,-786.4 -78.98,-391.81 -236.3,-915.78 -499.99,-1539.08 -47.96,-113.34 -85.39,-191.34 -111.95,-241.8 -28.72,-54.72 -44.68,-77.1 -47.26,-77.1 -3.14,0 12.41,31.16 47.26,77.1 111.67,147 421.85,444.92 957.53,355.63 975.73,-162.62 1219.69,1105.79 1853.96,292.76 634.2,-813.18 943.2,-1463.59 2244.1,-1170.9 1122.7,252.61 1567.3,868.59 1887.5,635.36 50.9,-37.02 98.5,-95.36 145.3,-180.05 105.6,-191.13 23,-77.37 -145.3,180.05 -300.9,460.32 -875.9,1379.94 -1139.6,1838.11 -203.9,-156.49 -893.2,-213.93 -878,30.87 16.3,260.35 16.4,378.71 356.9,525.23 340.5,146.52 261.1,-4.81 391.2,-313.81 17.9,-42.59 64.3,-128.12 129.9,-242.29 12.9,9.89 24,20.21 32.7,30.87 146.4,178.94 -309,504.11 -276.4,1268.49 32.5,764.31 65.4,1308.5 113.8,1675 7.6,58 1.8,121.22 -15.9,188.69 -20.1,75.91 -55,157.19 -102.6,242.43 -94.8,169.67 -239.5,354.87 -414.9,544.19 -1172.6,444.16 -2756.6,1624.88 -2507.6,1756.69 195.2,103.31 1687.2,-871.37 2507.6,-1756.69 129.7,-49.14 254.2,-89.22 370.8,-117.87 1170.8,-288.3 1480.5,161.02 1762.3,1071.63 281.9,910.56 715.5,823.85 1062.3,1842.89 224.9,660.3 185.6,1375.3 35.7,1908.9 -81.4,289.8 -195.4,526.1 -317.5,671 -122.2,145.2 -325.3,136.9 -535,62.4" /></g><g
         transform="scale(1.45397)"
         id="g30"><path
           id="path32"
           style="fill:none;stroke:#231f20;stroke-width:34.3885994;stroke-linecap:round;stroke-linejoin:round;stroke-miterlimit:10;stroke-dasharray:none;stroke-opacity:1"
           d="m 15055.3,13369.3 c -172.9,-61.4 -350.4,-168.3 -490.1,-270.6 -122.8,-241.7 -236.9,-304.6 -265.5,-261.6 -15.2,22.7 97.9,138.8 265.5,261.6 60.5,118.9 123.1,281.1 178.6,495.2 71.5,275.4 117,437 135.8,534.7 25.7,132.4 2.2,147.5 -71.7,170.6 -128.2,40.1 -296.7,240.7 -409,328.9 -112.3,88.2 -120.3,433.2 -160.4,553.4 -40.1,120.4 128.3,232.7 336.9,32.2 208.5,-200.6 120.3,-320.9 312.8,-425.2 121.3,-65.6 102.5,177.2 90,400.1 -7.3,131.1 -12.5,255.3 14.3,305.8 41.5,78.4 22.1,-121.7 -14.3,-305.8 -26.8,-136.2 -62.8,-263.7 -90,-263.7 -64.2,0 -216.6,24 -224.5,369 -8.1,344.9 16,649.7 360.9,754 344.9,104.3 224.6,-128.4 385,-40.1 160.5,88.2 337,-216.6 425.1,-152.4 88.3,64.1 184.6,-176.5 240.7,-184.5 56.2,-8 224.6,-633.7 224.6,-1050.8 0,-417.2 -96.2,-802.2 -224.6,-1091 -66.7,-150 -90.1,-306.6 -103.9,-456.1 -12.7,-138.3 -17.4,-270.5 -40.5,-386.2 -9.2,-46 -20.1,-56 -34.6,-41.2 -61.4,62.4 -188.6,566.6 -536.1,657.2 -105.3,27.5 -214.4,12.1 -319.5,-28.9" /></g><g
         transform="scale(1.34164)"
         id="g34"><path
           id="path36"
           style="fill:none;stroke:#231f20;stroke-width:37.2677002;stroke-linecap:round;stroke-linejoin:round;stroke-miterlimit:10;stroke-dasharray:none;stroke-opacity:1"
           d="m 12864.6,11629 c 420.4,-85 765.5,240.8 742.8,323.9 -34.8,127.5 637.6,-857.8 776.7,-684 139.1,173.9 428.8,1970.6 707,2086.6 278.3,115.9 486.9,208.6 521.7,370.9 26.2,122.4 336.4,522.3 687.2,658.9 -238.7,-1501.7 -1212.9,-5070.31 -2096.5,-4216.8 -408.8,395 -916.4,975 -1338.9,1460.5 -637.5,732.8 -1080.6,1250.4 -695.6,591.5 223.4,-382.4 470.3,-546 695.6,-591.5" /></g><g
         transform="scale(1.49747)"
         id="g38"><path
           id="path40"
           style="fill:none;stroke:#231f20;stroke-width:33.38970184;stroke-linecap:round;stroke-linejoin:round;stroke-miterlimit:10;stroke-dasharray:none;stroke-opacity:1"
           d="m 14447.4,13718.2 c -192.6,20.7 -431.5,-218.8 -293.1,-257 214.4,-59.2 -446.5,52 -384.2,446.6 62.3,394.6 -83.1,695.8 -249.3,758.1 -113.3,42.5 -130,-64.6 -109.5,-137.1 40.2,-39.6 73.7,-60.2 47.2,-60.2 -19.9,0 -37.6,26.4 -47.2,60.2 -54.3,53.7 -120.8,142.2 -67.1,261.7 93.5,207.8 -186.9,-10.3 -270,270.1 -83.1,280.4 249.2,270 166.2,498.5 -83.1,228.4 103.8,519.3 311.6,311.5 19.3,-19.3 35.1,-34.3 47.8,-46 25.7,-12.5 44.2,-30.4 44.2,-33.6 0,-2.6 -12.6,4.8 -44.2,33.6 -36.6,17.9 -87.5,24.8 -120.6,-37.1 -83,-155.8 103.9,-290.7 249.3,-270 145.4,20.8 -93.5,124.7 93.4,270 148.4,115.4 224.9,250.5 135.8,374 -23.2,32.1 -57.4,63.4 -104.6,93.4 -14.8,9.4 -26.9,17.3 -36.7,23.6 -21.3,14 -30.8,20.6 -31.6,21.4 v 0.1" /></g><g
         transform="scale(1.56173)"
         id="g42"><path
           id="path44"
           style="fill:none;stroke:#231f20;stroke-width:32.01580048;stroke-linecap:round;stroke-linejoin:round;stroke-miterlimit:10;stroke-dasharray:none;stroke-opacity:1"
           d="m 12519.3,6299.04 c 435.2,145.48 455.1,1081.56 365.4,912.26 -89.6,-169.3 727,-374.07 1035.7,-445.98 308.7,-71.85 199.1,366.32 627.4,585.37 428.2,219.12 318.6,458.08 308.7,876.34 -10,418.25 79.6,507.83 567.5,169.3 488,-338.6 617.4,-826.52 537.8,-1055.56 -79.7,-229.04 -537.8,-677.13 -687.1,-796.68 -149.4,-119.49 -10,-231.29 69.7,-245.05 79.6,-13.83 422,264.96 639.2,613.49 217.2,348.58 316.4,592.35 -283.3,1131.18 -599.7,538.76 163.8,42.19 150.5,-435.55 -13.5,-477.73 -486.5,-964.5 -625.9,-984.42 -139.4,-19.91 -356.4,906.24 -312.6,906.24 43.7,0 13.8,-726.95 233,-1045.63 219,-318.63 -766.8,-159.31 -1065.6,-69.67 -298.7,89.58 -233.3,477.93 -76.8,716.96 156.5,238.97 946.4,331.24 865.1,708.32 -81.3,377.08 -131,732.39 28.3,773.82 159.3,41.43 -680,-68.13 -786.7,-775.1 -106.7,-707.04 -229,587.49 199.1,816.53 428.3,229.04 717.1,-209.13 647.3,69.73 -69.7,278.79 -487.9,378.36 -667.2,99.57 -179.2,-278.86 488,219.05 597.5,179.22 109.6,-39.83 0,29.91 79.7,497.91 79.7,468.01 -47.7,926.06 -53.7,1503.66" /></g><g
         transform="scale(1.40228)"
         id="g46"><path
           id="path48"
           style="fill:none;stroke:#231f20;stroke-width:35.65620041;stroke-linecap:round;stroke-linejoin:round;stroke-miterlimit:10;stroke-dasharray:none;stroke-opacity:1"
           d="m 11062.7,16300 c -117.6,-261.5 -93.7,-440.1 -80.6,-487 13,-47 314.2,-258.8 694.9,-232.9 380.8,25.9 805.9,-133.1 1027.8,-310.6 18.5,107.3 29.5,232.9 -40.7,251.4 -70.2,18.6 -321.6,133.2 -525,133.2 -203.3,0 -391.8,-44.5 -421.3,-196 -29.6,-151.6 314.2,-343.8 524.9,-369.7 210.7,-25.9 255.1,-48.1 255.1,-48.1 -29.6,110.9 -51.8,229.2 -236.6,221.9 -184.9,-7.4 -205.2,-21.3 -182.1,-99.3 23.1,-78.2 192.5,-69.9 200.2,14.7 7.9,84.7 21.7,94.1 -116.5,78.2 -138.3,-15.8 -252.9,-137.8 -197.4,-23.2 55.4,114.6 373.4,195.9 517.5,-33.3" /></g><g
         transform="scale(2.182)"
         id="g50"><path
           id="path52"
           style="fill:none;stroke:#231f20;stroke-width:22.91469955;stroke-linecap:round;stroke-linejoin:round;stroke-miterlimit:10;stroke-dasharray:none;stroke-opacity:1"
           d="M 2812.37,3449.4 C 1400.82,5080.93 1441.2,10929.2 4821.53,13614.6 8201.92,16300 12495.7,16127.6 13637,15000 c 1141.3,-1127.5 990,-1495.9 618.8,-1724.2 -371.3,-228.3 -192.5,-363 219.9,0 412.6,363 -247.4,-200.8 -206.2,-352 41.3,-151.3 231.1,233.7 342.4,110 111.4,-123.8 -259.9,-165 -218.7,-302.5 41.3,-137.5 275.1,151.2 330.1,-13.8 55,-165 178.7,618.8 178.7,618.8" /></g><g
         transform="scale(2.02924)"
         id="g54"><path
           id="path56"
           style="fill:none;stroke:#231f20;stroke-width:24.63979912;stroke-linecap:round;stroke-linejoin:round;stroke-miterlimit:10;stroke-dasharray:none;stroke-opacity:1"
           d="m 16300,13545.3 c -39.4,-88.7 -147.8,-906.8 -197.1,-768.8 -49.3,138 -69,512.5 -157.7,522.4 -88.7,9.9 -433.7,-163.5 -374.5,-145.8 59.1,17.7 242,135.2 362.5,-5.9 120.4,-141.1 -7.7,-134.1 -254.1,-213" /></g><g
         transform="scale(2.08568)"
         id="g58"><path
           id="path60"
           style="fill:none;stroke:#231f20;stroke-width:23.97299957;stroke-linecap:round;stroke-linejoin:round;stroke-miterlimit:10;stroke-dasharray:none;stroke-opacity:1"
           d="m 15500.8,11117 c 223.8,0 348.5,19.2 338.9,268.5 -9.6,249.4 -47.9,317.5 -47.9,317.5 l 508.2,-432.5" /></g><g
         transform="scale(2.08568)"
         id="g62"><path
           id="path64"
           style="fill:none;stroke:#231f20;stroke-width:23.97299957;stroke-linecap:round;stroke-linejoin:round;stroke-miterlimit:10;stroke-dasharray:none;stroke-opacity:1"
           d="m 15590.2,10829.4 c 0,0 -19,-422 134.4,-460.3 153.5,-38.4 460.3,565.7 460.3,565.7 0,0 -230.1,-502.1 -201.3,-567.4 28.7,-65.4 316.4,404.4 316.4,404.4" /></g><g
         transform="scale(2.07218)"
         id="g66"><path
           id="path68"
           style="fill:none;stroke:#231f20;stroke-width:24.1291008;stroke-linecap:round;stroke-linejoin:round;stroke-miterlimit:10;stroke-dasharray:none;stroke-opacity:1"
           d="m 16300,9519.71 c 0,0 -308.9,-67.56 -395.7,86.87 -86.9,154.43 -135.1,467.42 -135.1,467.42 l 234.8,-284.52 c 0,0 -236.7,261.12 -313,174.21 -76.3,-86.86 -47.3,-501.89 -47.3,-501.89" /></g><g
         transform="scale(2.04022)"
         id="g70"><path
           id="path72"
           style="fill:none;stroke:#231f20;stroke-width:24.50709915;stroke-linecap:round;stroke-linejoin:round;stroke-miterlimit:10;stroke-dasharray:none;stroke-opacity:1"
           d="m 16300,8030.45 c -28.9,11.13 -391.6,-103.42 -460.2,272.42 -68.7,375.89 6.4,513.13 6.4,513.13 0,0 12.8,-313.69 91.4,-431.32 78.6,-117.64 -195.9,392.11 -225.3,196.06 -29.4,-196.06 -117.6,-550.29 -117.6,-550.29" /></g><g
         transform="scale(2.01942)"
         id="g74"><path
           id="path76"
           style="fill:none;stroke:#231f20;stroke-width:24.7595005;stroke-linecap:round;stroke-linejoin:round;stroke-miterlimit:10;stroke-dasharray:none;stroke-opacity:1"
           d="m 15606.7,7936.23 c 0,0 693.3,-178.27 663.6,-198.08 -29.7,-19.81 -455.6,-425.87 -455.6,-425.87" /></g><g
         transform="scale(1.96544)"
         id="g78"><path
           id="path80"
           style="fill:none;stroke:#231f20;stroke-width:25.43969917;stroke-linecap:round;stroke-linejoin:round;stroke-miterlimit:10;stroke-dasharray:none;stroke-opacity:1"
           d="m 15923.5,5885 c 0,0 376.5,580.03 173,681.79 -203.5,101.76 -732.7,-340.89 -732.7,-340.89" /></g><g
         transform="scale(1.91145)"
         id="g82"><path
           id="path84"
           style="fill:none;stroke:#231f20;stroke-width:26.15819931;stroke-linecap:round;stroke-linejoin:round;stroke-miterlimit:10;stroke-dasharray:none;stroke-opacity:1"
           d="m 16300,5758.25 c 0,0 -533.6,-334.82 -617.3,-292.97 -83.7,41.85 -52.3,585.94 -52.3,585.94 0,0 -62.8,-648.72 -115.1,-669.65 -52.4,-20.92 0,481.31 0,481.31" /></g><g
         transform="scale(1.84642)"
         id="g86"><path
           id="path88"
           style="fill:none;stroke:#231f20;stroke-width:27.0795002;stroke-linecap:round;stroke-linejoin:round;stroke-miterlimit:10;stroke-dasharray:none;stroke-opacity:1"
           d="m 16300,5105.35 c 0,0 -563.3,400.77 -563.3,346.61 0,-54.16 -64.9,-693.23 -64.9,-693.23" /></g><g
         transform="scale(1.75071)"
         id="g90"><path
           id="path92"
           style="fill:none;stroke:#231f20;stroke-width:28.55979919;stroke-linecap:round;stroke-linejoin:round;stroke-miterlimit:10;stroke-dasharray:none;stroke-opacity:1"
           d="m 16300,4744.7 c -68.5,34.27 -239.9,228.48 -285.6,217.05 -45.7,-11.42 -319.9,-388.41 -342.7,-525.5 -22.9,-137.09 314.1,-376.99 314.1,-376.99 0,0 142.8,-239.9 211.4,-137.09 68.5,102.82 -194.2,154.4 -160,-25.58" /></g><g
         transform="scale(1.69672)"
         id="g94"><path
           id="path96"
           style="fill:none;stroke:#231f20;stroke-width:29.46859932;stroke-linecap:round;stroke-linejoin:round;stroke-miterlimit:10;stroke-dasharray:none;stroke-opacity:1"
           d="m 15486.7,3434.03 c 35.3,0 551.7,200.38 682.5,200.38 130.8,0 -552.9,943 -399.6,742.61 153.2,-200.38 416.3,-457.53 416.3,-457.53" /></g><path
         id="path98"
         style="fill:none;stroke:#231f20;stroke-width:50;stroke-linecap:round;stroke-linejoin:round;stroke-miterlimit:10;stroke-dasharray:none;stroke-opacity:1"
         d="m 5263.13,6296.2 c -119.99,360 -419.98,-345 -464.98,-330 -44.99,15 -239.98,165 -119.99,315 119.99,150 689.97,855 689.97,855 l -794.97,239.9" /><path
         id="path100"
         style="fill:none;stroke:#231f20;stroke-width:50;stroke-linecap:round;stroke-linejoin:round;stroke-miterlimit:10;stroke-dasharray:none;stroke-opacity:1"
         d="m 4408.17,7841.1 c 105,90 329.99,225 314.99,360 -15,135 -194.99,615 -314.99,585 -119.99,-30 -749.96,-645 -749.96,-645" /><path
         id="path102"
         style="fill:none;stroke:#231f20;stroke-width:50;stroke-linecap:round;stroke-linejoin:round;stroke-miterlimit:10;stroke-dasharray:none;stroke-opacity:1"
         d="m 4348.18,9236.1 c 0,0 -419.98,-435 -539.98,-120 -119.99,315 -149.99,539.9 -149.99,539.9 l -509.97,-327.2" /><path
         id="path104"
         style="fill:none;stroke:#231f20;stroke-width:50;stroke-linecap:round;stroke-linejoin:round;stroke-miterlimit:10;stroke-dasharray:none;stroke-opacity:1"
         d="m 2998.25,10781 c 44.99,0 179.99,660 149.99,615 -30,-45 -314.99,-306.4 -314.99,-306.4 0,0 135,427.3 209.99,516.8 75,89.5 704.97,329.5 704.97,329.5" /><path
         id="path106"
         style="fill:none;stroke:#231f20;stroke-width:50;stroke-linecap:round;stroke-linejoin:round;stroke-miterlimit:10;stroke-dasharray:none;stroke-opacity:1"
         d="m 2758.26,12025.9 c 0,45 269.98,1035 299.98,975 30,-60 60,-720 90,-765 30,-45 389.98,278.8 389.98,278.8 0,0 -298.84,-443.8 -373.83,-92.6 -75,351.2 373.83,443.8 373.83,443.8" /><path
         id="path108"
         style="fill:none;stroke:#231f20;stroke-width:50;stroke-linecap:round;stroke-linejoin:round;stroke-miterlimit:10;stroke-dasharray:none;stroke-opacity:1"
         d="m 2548.27,13315.9 419.98,989.9 c 0,0 -30,-675 0,-735 30,-60 569.97,135 569.97,135 0,0 -491.21,-164 -535.87,61 -44.65,224.9 460.87,344 460.87,344" /><g
         transform="scale(1.01569)"
         id="g110"><path
           id="path112"
           style="fill:none;stroke:#231f20;stroke-width:49.22779846;stroke-linecap:round;stroke-linejoin:round;stroke-miterlimit:10;stroke-dasharray:none;stroke-opacity:1"
           d="m 2656.59,16093.2 265.82,-738.4 c 0,0 44.29,384 73.83,664.6 29.53,280.6 487.33,280.6 487.33,280.6" /></g><g
         transform="scale(1.09022)"
         id="g114"><path
           id="path116"
           style="fill:none;stroke:#231f20;stroke-width:45.86230087;stroke-linecap:round;stroke-linejoin:round;stroke-miterlimit:10;stroke-dasharray:none;stroke-opacity:1"
           d="m 2530,15433.3 c 0,0 302.67,784.1 330.19,825.4 C 2887.71,16300 2530,15736 2530,15736 c 0,0 412.73,513.3 591.59,524.9 178.85,11.6 68.79,-704.7 68.79,-704.7" /></g><g
         transform="scale(1.18225)"
         id="g118"><path
           id="path120"
           style="fill:none;stroke:#231f20;stroke-width:42.29240036;stroke-linecap:round;stroke-linejoin:round;stroke-miterlimit:10;stroke-dasharray:none;stroke-opacity:1"
           d="m 2574.12,16274.6 c 38.06,0 291.81,25.4 342.55,-63.4 50.75,-88.8 76.13,-291.8 76.13,-291.8 0,0 -190.31,-63.5 -139.56,-101.5 50.74,-38.1 291.8,-253.8 291.8,-291.9 0,-38 -329.86,101.6 -285.46,0 44.4,-101.5 222.02,136.2 260.09,309.2 38.06,173 25.37,442.7 25.37,442.7" /></g><g
         transform="scale(1.32395)"
         id="g122"><path
           id="path124"
           style="fill:none;stroke:#231f20;stroke-width:37.76580048;stroke-linecap:round;stroke-linejoin:round;stroke-miterlimit:10;stroke-dasharray:none;stroke-opacity:1"
           d="m 2810.23,16198 c 0,0 236.1,102 258.76,0 22.66,-101.9 0,-305.8 0,-305.8 0,0 -169.38,68 -124.35,0 45.05,-68 67.7,-419.2 67.7,-419.2 0,0 -7.94,555.2 109.32,215.3 117.27,-339.9 185.24,498.4 185.24,498.4" /></g><g
         transform="scale(1.39297)"
         id="g126"><path
           id="path128"
           style="fill:none;stroke:#231f20;stroke-width:35.89450073;stroke-linecap:round;stroke-linejoin:round;stroke-miterlimit:10;stroke-dasharray:none;stroke-opacity:1"
           d="m 3315.34,15750.8 -484.55,86.2 484.55,463" /></g><g
         transform="scale(1.52364)"
         id="g130"><path
           id="path132"
           style="fill:none;stroke:#231f20;stroke-width:32.81620026;stroke-linecap:round;stroke-linejoin:round;stroke-miterlimit:10;stroke-dasharray:none;stroke-opacity:1"
           d="m 3385.41,16300 c 0,0 -171.92,-305.2 -209.02,-462.7 -37.09,-157.5 21.98,-187 199.18,-49.2 177.2,137.8 403.62,344.5 403.62,344.5" /></g><g
         transform="scale(1.58529)"
         id="g134"><path
           id="path136"
           style="fill:none;stroke:#231f20;stroke-width:31.54000092;stroke-linecap:round;stroke-linejoin:round;stroke-miterlimit:10;stroke-dasharray:none;stroke-opacity:1"
           d="m 3376.75,15978.3 c 0,0 331.15,255.5 378.46,246 47.31,-9.5 0,-501.5 0,-501.5 l 141.92,577.2 v -359.5" /></g><g
         transform="scale(1.65246)"
         id="g138"><path
           id="path140"
           style="fill:none;stroke:#231f20;stroke-width:30.25779915;stroke-linecap:round;stroke-linejoin:round;stroke-miterlimit:10;stroke-dasharray:none;stroke-opacity:1"
           d="m 3584.41,15973.2 c 45.38,9.1 435.68,-308.6 435.68,-245 0,63.5 54.47,571.8 54.47,571.8" /></g><g
         transform="scale(1.71412)"
         id="g142"><path
           id="path144"
           style="fill:none;stroke:#231f20;stroke-width:29.16950035;stroke-linecap:round;stroke-linejoin:round;stroke-miterlimit:10;stroke-dasharray:none;stroke-opacity:1"
           d="m 4330.52,16300 c 0,0 166.26,-52.5 157.51,-148.8 -8.75,-96.2 -148.76,-341.2 -201.26,-341.2 -52.5,0 -210.01,157.5 -210.01,157.5" /></g></g></g></svg>