<?xml version="1.0" encoding="UTF-8" standalone="no"?>
<svg
   xmlns:dc="http://purl.org/dc/elements/1.1/"
   xmlns:cc="http://creativecommons.org/ns#"
   xmlns:rdf="http://www.w3.org/1999/02/22-rdf-syntax-ns#"
   xmlns:svg="http://www.w3.org/2000/svg"
   xmlns="http://www.w3.org/2000/svg"
   viewBox="0 0 5333.3335 5333.3335"
   height="5333.3335"
   width="5333.3335"
   xml:space="preserve"
   id="svg2"
   version="1.1"><metadata
     id="metadata8"><rdf:RDF><cc:Work
         rdf:about=""><dc:format>image/svg+xml</dc:format><dc:type
           rdf:resource="http://purl.org/dc/dcmitype/StillImage" /></cc:Work></rdf:RDF></metadata><defs
     id="defs6"><clipPath
       id="clipPath18"
       clipPathUnits="userSpaceOnUse"><path
         id="path16"
         d="M 0,4000 H 4000 V 0 H 0 Z" /></clipPath></defs><g
     transform="matrix(1.3333333,0,0,-1.3333333,0,5333.3333)"
     id="g10"><g
       id="g12"><g
         clip-path="url(#clipPath18)"
         id="g14"><g
           transform="translate(1318.5386,1992.5352)"
           id="g20"><path
             id="path22"
             style="fill:none;stroke:#000000;stroke-width:5;stroke-linecap:round;stroke-linejoin:round;stroke-miterlimit:10;stroke-dasharray:none;stroke-opacity:1"
             d="m 0,0 c 9.88,13.521 25.95,19.32 43.97,21.82 13.41,1.86 27.9,1.88 41.71,1.89 46.53,0.01 85.35,-0.189 49.33,68.82 -33.44,64.08 -100.43,189.33 -147.3,280.18 -38.73,75.07 -63.72,126.65 -44.72,100.86 12.93,-17.549 28.41,-54.14 44.72,-100.86 34.59,-99.18 72.84,-243.99 97.97,-349 1.49,-6.2 2.93,-12.27 4.32,-18.18 5.08,-21.59 11.33,-39.41 18.27,-53.979 1.13,-2.381 2.28,-4.671 3.45,-6.87 5.97,-11.271 12.37,-20.33 18.95,-27.46 32.2,25.269 72.76,42.8 78.58,18.13 7.93,-33.601 -38.47,-61.67 -78.58,-18.13 -28.89,-22.67 -51.06,-51.571 -35.42,-61.87 33.07,-21.781 123.01,23.979 163.61,62.799 40.59,38.83 20.39,81.201 -1.61,81.85 -22,0.66 -66,103.35 -134,237.35 -68,134 -122.87,288.39 -131.87,330.38 -2.29,10.68 -6.71,16.6 -13.18,19.09 -18.99,7.28 -55.66,-15.07 -107.98,-34.09 -70.15,-25.49 -49.83,7.5 -86.81,45 -36.97,37.5 18.53,52.5 -3.52,63 -6.22,2.96 -7.98,5.45 -4.96,8.37 7.66,7.421 46.17,17.64 120.45,45.63 13.45,5.07 21.18,7.91 24.42,9.02 2.55,0.87 2.32,0.67 -0.08,-0.35 -14.14,-6.04 -103.54,-40.72 -144.79,-54.3 -11.35,-3.73 -19.05,-5.87 -20.54,-5.37 -2.57,0.86 -17.76,33.59 -37.91,79.1 -15.63,35.29 -34.24,78.28 -52.25,120.04 -33.92,75.45 -66.97,146.6 -71.83,162.34 -5.5,17.831 31.68,-69.22 71.83,-162.34 18.68,-41.56 37.62,-84.42 52.25,-120.04 19.8,-48.19 31.71,-83.11 24.41,-83.6 -22.5,-1.5 -91.5,-40.5 -103.49,-16.5 -3.92,7.84 -13.15,27 -24.9,51.8 -3.46,7.32 -7.15,15.14 -10.99,23.3 -22.93,48.83 -51.11,110.03 -69.09,152.28 -0.01,0.03 -0.03,0.07 -0.04,0.1 -0.02,0.04 -0.04,0.09 -0.06,0.14 -31.08,72.95 -37.55,55.89 -34.42,30.37 3.14,-25.56 94.5,-220.49 105,-242.99 10.5,-22.5 -40.5,10.5 -36.63,53.21 0.87,9.62 -1.97,16.62 -6.57,21.351 4.98,-32.341 -11.76,-39.831 -31.8,-17.561 -20.92,23.24 15.93,33.83 31.8,17.561 -1.73,11.219 -6.07,25.429 -13.8,42.429 -8.65,19.02 -18.91,34.18 -28.79,45.15 -4.49,-18.29 -25.04,-28.97 -35.71,-0.15 -10.68,28.83 11.33,27.26 35.71,0.15 1.81,7.41 0.98,16.06 -4.21,23.85 -18,26.99 -157.42,-37.47 -117.74,-10.51 0.01,0.01 0.02,0.01 0.03,0.02 39.78,27.01 26.22,74.99 39.72,77.99 13.49,3 56.99,27 61.49,22.5 3.79,-3.79 -29.65,-67.15 -101.21,-100.49 -0.01,-0.01 -0.02,-0.01 -0.03,-0.02 -13.41,-6.25 -28.16,-11.439 -44.25,-14.99 -102,-22.5 -254.01,87.4 -398.02,366.42 -84.26,163.26 -74.03,270.03 -60.05,316.1 9.92,32.67 21.71,34.81 3.04,4.94 -1.02,-1.63 -2.03,-3.28 -3.04,-4.94 -137.63,-227.6 -165.9,-785 117.06,-1312.199 92.27,-171.901 257.204,-364.074 371.07,-475.091 196.889,-191.961 129.278,-101.063 132.393,72.026 1.782,99.053 26.328,184.88 31.037,215.285 1.851,11.95 -48,55.499 -106.49,152.989 -58.5,97.5 -111,298.49 -52.5,398.99 28.16,48.38 57.71,77.63 92.04,90.85 36.98,14.26 79.51,9.9 131.82,-9.22 -59.26,39.41 -138.36,14.75 -131.82,9.22 1.03,-0.87 4.2,-1.27 9.93,-0.86 41.98,3 55.52,-25.5 73.52,-22.5 10.98,1.83 33.11,7.561 48.37,14.14 9.77,4.21 16.72,8.76 16.13,12.86 -2.86,19.97 -61.64,145.99 -92.98,222.88 -0.01,0.03 -0.03,0.07 -0.04,0.1 -0.02,0.04 -0.04,0.09 -0.06,0.14 -5.46,13.4 -10.08,25.3 -13.42,34.87 -22.5,64.49 -18,73.49 15.76,72.5 33.75,-0.99 39.74,54.99 32.24,-17.01 -7.5,-71.99 -33,-53.99 -37.5,-59.99 -4.5,-6 57,-142.5 70.5,-178.49 0.58,-1.54 1.11,-3.01 1.61,-4.4 5.3,-14.74 6.65,-21.49 10.99,-23.3 4.85,-2.009 13.42,2.14 35.39,8.2 43.5,12 70.5,-19.5 69,-12 -1.5,7.5 -130.49,307.48 -139.49,313.48 -9,6 -69,-27 -76.5,-25.5 -7.5,1.5 -10.5,22.5 -7.5,30 3,7.5 30.85,24.14 83.85,43.14 4.31,1.55 8.02,2.79 11.18,3.76 28.94,8.98 12.24,-3.72 0,0 -2.85,0.87 -5.45,2.62 -7.18,5.74 -10,18 -95.35,268.35 -93.85,277.35 1.5,9 40.5,35.99 48,34.49 1.68,-0.33 8.45,-15.24 17.78,-38.01 32.27,-78.72 95.16,-251.44 84.22,-240.97 -10.58,10.12 -61.78,162.7 -84.22,240.97 -7.49,26.15 -11.78,44.01 -10.28,45.51 6,6 125.99,48 128.99,34.5 3,-13.5 106.5,-253.49 115.5,-271.48 2.98,-5.95 12.21,-6.47 23.5,-4.78 h 0.01 c 22.85,3.44 54.1,15.93 58.98,10.78 7.3,-7.7 149.6,-354.31 138,-367.49 -11.6,-13.17 -230.99,-97.49 -239.99,-91.49 -9,6 -155.99,365.98 -155.99,371.98 0,5.1 122.66,49.29 198.99,76.22 h 0.01 c 13.39,4.73 25.36,8.92 34.99,12.28 64.49,22.49 41.99,29.99 61.49,-16.5 19.5,-46.5 37.5,-61.5 67.5,-57 30,4.5 -15,-6 -30,-4.5 -15,1.5 22.5,-67.5 60,-146.99 15.67,-33.199 21.45,-63.37 22.67,-87.48 1.72,-33.61 -5.42,-55.449 -6.97,-57.39 -2.47,-3.09 -2.65,23.16 6.97,57.39 0.73,2.6 1.52,5.25 2.37,7.94 12,38 42.66,28 39.33,40.67 -3.33,12.671 -82.5,200 -78,205.5 4.5,5.5 50,30 71,27.5 21,-2.5 17,-48.5 48,-26.5 31,22 7,93.5 1,105.5 -6,12 -2,16 104,34 106,18 172,22 388,-6 216,-28 322,46 332,60.11 10,14.12 -12,-52.11 -158,-142.11 -146,-90 -214,-88 -230,-102 -16,-14 -126,-114 -158,-116 -32,-2 -32,82 -100,82 -68,0 -144,-30 -136,-76 1.58,-9.07 1.06,-16.66 -0.97,-23.02 -8.16,-25.9 -40.97,-31.38 -57.03,-32.98 -15.28,-1.53 -22.39,48.88 -18.65,74.1 1.15,7.8 3.34,13.19 6.65,13.9 14,2.99 38,-28 16,-32 -5.71,-1.04 -13.97,6.32 -22.65,18.1 -15,20.41 -31.23,54.08 -37.55,80.321 -4.08,16.949 -4.03,30.789 3.15,35.969 24.71,17.82 47.05,-20.39 11.05,-34.39 -5.22,-2.03 -9.94,-2.42 -14.2,-1.579 -25.11,4.929 -34.38,52.449 -37.8,57.579 -4,6 48,36 70,18 19.12,-15.64 68.43,-146.04 81.03,-197.02 1.9,-7.69 2.97,-13.57 2.97,-16.98 0,-26 -2,-16 -50,-30 -48,-14 0,16 -38,2 -38,-14 -24,-38 -30,-76 -4.37,-27.71 -81.06,-33.09 -108.32,-53.36 -1.04,-0.76 -2,-1.56 -2.89,-2.37 -3.21,-2.95 -5.39,-6.21 -6.24,-9.87 -0.02,-0.12 -0.05,-0.24 -0.08,-0.35 -1.05,-5.14 0.5,-11.07 5.53,-18.05 2.41,-3.35 4.16,-6.61 5.3,-9.78 16.11,-44.14 -82.64,-70.76 -101.3,-78.22 -20,-8 -74,-16 -42,20 30.15,33.91 104.67,48.3 143.3,58.22 2.38,0.61 4.61,1.201 6.7,1.78 21.05,5.85 35.26,-23.85 41.83,-53.94 0.15,-0.66 0.29,-1.33 0.43,-2 4.29,-20.7 4.96,-41.21 1.74,-50.06 -0.55,-1.51 -1.59,-3.02 -3.05,-4.53 -19.87,-20.48 -117.87,-40.84 -130.39,-59.47 -13.44,-20 29.44,-86 101.44,-236 45.68,-95.16 76.06,-199.99 94.72,-269.53 10.76,-40.07 17.62,-68.429 21.28,-76.469 2.46,-5.411 10.71,-6.83 22.57,-5.511 6.89,0.77 15,2.461 23.9,4.841 38.07,10.149 90.51,32.779 123.53,48.67 37.64,18.119 -62.72,-8.46 -126.98,-41.8 -7.38,-3.841 -14.29,-7.761 -20.45,-11.711 -17.15,-11 -28.57,-22.239 -28.57,-32.489 0,-34.651 11.35,-95.411 76.81,-98.481 -5.15,18.29 -5.15,30.691 3.19,34.481 22,10 106,44 142,74 36,30 78,-32 -62,-90 -34.53,-14.311 -61.76,-19.491 -83.19,-18.481 8.43,-29.979 30.74,-75.78 52.95,-125.38 8.52,-20.03 38.14,11.321 77.47,69.37 121.83,246.38 319.29,604.81 309.57,573.7 -11.07,-35.43 -198.83,-410.31 -309.57,-573.7 -66.11,-133.71 -109.96,-234.429 -86.33,-221.99 67.15,35.37 22.53,-53.88 187.1,86.481 164.57,140.359 328,687.999 371,523.999 10.42,-39.73 4.6,-98.48 -9.41,-161.68 C 685.041,-218 561.12,-459.27 603.25,-298.75 c 22.94,87.41 73.26,192.601 125.59,278.42 74.48,122.18 153.01,205.121 162.41,141.68 7.8,-52.66 -32.9,-161.43 -82.68,-266.49 -52.32,-110.4 -114.67,-216.719 -141.32,-249.509 -33.73,-41.521 35.21,103.799 141.32,249.509 57.45,78.92 125.82,157.95 194.68,207.49 196,141 64,-142.999 -8,-322.999 -43.14,-107.861 -51.82,-147.971 -45.709,-149.321 0.369,-0.08 0.799,-0.019 1.279,0.18 4.75,1.99 14.53,17.65 24.89,40.471 28.46,62.67 93.54,172.67 83.54,205.34 -6.03,19.679 33.69,26.29 58.64,28.439 5.86,0.511 10.92,0.77 14.36,0.891 0.041,0 0.07,0 0.11,0.009 5.66,0.191 6.87,0.02 0,0 -0.04,-0.009 -0.069,-0.009 -0.11,-0.009 h -1.669 c -4.081,0 -8.361,-0.3 -12.691,-0.891 -32.4,-4.399 -67.07,-24.64 -35.309,-51.109 16.379,-13.651 32.759,-18.88 43.489,-20.521 1.39,0.78 2.88,1.191 4.511,1.191 13.079,0 8.339,-3.17 -4.511,-1.191 -19.05,-10.779 -18,-92.46 -70.82,-160.809 -25.97,-33.611 -23.55,-53.75 -10.48,-71.231 5.86,-7.85 13.88,-15.17 22.43,-22.92 13.95,-12.67 29.341,-26.51 39.17,-45.79 v -0.01 c 9.1,-17.849 6.82,-14.009 -2.81,-0.49 -7.91,11.11 -20.78,28.76 -36.36,46.29 -7,7.87 -14.54,15.71 -22.43,22.92 -21.84,19.971 -46.3,35.11 -69.06,32.561 -7.76,-0.871 -15.97,-1.92 -24.89,-3.141 -0.42,-0.06 -0.85,-0.12 -1.279,-0.18 -73.431,-10.09 -195.292,-40.298 -518.291,-48.679 -203.271,-5.276 -395.546,-78.615 -419.542,-96.611 -23.995,-17.996 -134.269,-383.924 -115.125,-485.903 19.145,-101.98 90.641,-80.838 138.631,8.24 47.991,89.078 174.455,453.668 198.45,483.662 23.995,29.993 -246.699,6.508 -195.694,-11.494 51.005,-18.002 98.445,14.161 526.27,50.585 413.63,35.215 488.86,8.641 524.86,2.641 4.78,-0.801 9.66,-1.471 14.46,-0.891 0.94,0.11 1.88,0.271 2.81,0.49 30.18,7.06 55.59,73.231 28.88,485.281 -9.5,146.599 -21.34,252.139 -31.04,329.629 -0.129,1.061 -0.27,2.11 -0.4,3.15 -1.03,8.24 -2.05,16.161 -3.019,23.78 -15.451,120.07 -23.201,164.15 -1.541,195.44 27.85,40.22 5.93,-89.07 1.541,-195.44 -0.281,-6.72 -0.491,-13.34 -0.611,-19.83 -0.03,-1.51 -0.05,-3 -0.07,-4.49 -0.279,-21.86 0.51,-41.96 3.01,-58.4 15.04,-98.82 -83.02,-95.649 -212.039,33.36 -129.011,129.02 83.089,72.53 97.049,13.76 13.97,-58.76 73.25,-75.4 94.97,-52.76 21.731,22.63 -180.01,141.01 -312.03,165.02 -91.52,16.64 -193.14,41.93 -277.86,65.88 -37.48,10.591 -71.66,20.92 -100.18,30.13 -68.66,22.15 23.5,2.79 100.18,-30.13 27.17,-11.67 52.4,-25.04 67.84,-38.88 87.01,-78.01 312.031,-36.01 273.031,-78.01 -39.011,-42 90.009,-150.01 201.019,-201.019 111.01,-51 126.01,-66.011 -78.01,0 C 753.07,224.55 768.07,224.55 630.06,317.56 492.04,410.57 403.86,458.24 256.86,512.24 116.18,563.91 70.3,608.72 -4.38,637.45 c -3.35,1.3 -6.76,2.56 -10.24,3.78 -2.32,0.82 -4.42,1.541 -6.3,2.18 -22.71,7.66 -14.22,2.58 0.43,-2 4.99,-1.55 10.69,-3.04 16.11,-3.96 15.29,-2.57 28.42,-0.52 17.34,17.821 -5.85,9.699 -18.46,23.939 -41.08,44.459 -22.86,20.74 -36.35,31.86 -42.95,36.26 -5.98,4 -6.33,2.49 -2.89,-2.37 10.77,-15.22 58.79,-63.45 86.92,-78.349 8.9,-4.721 15.81,-6.101 18.92,-2.041 C 50.92,678.14 -4.44,680.15 1.36,737.541 -7.76,762.24 5.9,769.22 1.88,741.73 1.67,740.3 1.5,738.9 1.36,737.541 12.64,706.99 58.78,649.32 216.37,596.23 501.35,500.24 857.6,428.14 984.42,371.75 c 63.01,-28.02 100.64,-52.479 115.69,-62.16 1.63,-1.049 3,-1.93 4.1,-2.61 4.89,-3.05 4.65,-2.41 -0.4,3.15 -1.019,1.12 -2.229,2.43 -3.63,3.95 -4.77,5.2 -11.79,12.82 -20.93,23.27 -43.7,49.95 -50.86,119.38 -18.63,226.36 9.07,30.11 21.26,63.19 36.63,99.64 44.51,105.54 5.74,0.88 -36.63,-99.64 -24.27,-57.57 -49.72,-113.79 -61.37,-128.36 -22.81,-28.52 -37.58,100.66 18.89,260.89 22.73,64.51 57.02,134.051 106.97,200.37 C 1263.831,1080.771 1114,874.34 1018.14,696.24 993.74,650.91 972.831,607.41 961.07,572.66 903.1,401.35 892.831,387.74 813.34,446.24 c -79.5,58.5 -127.5,76.5 -153,42 -25.49,-34.5 200.741,450.38 473.77,561.39 273.03,111.01 564.06,-6 690.07,-105.01 126.01,-99.01 243.02,-390.04 174.02,-633.06 -62.94,-221.65 -38.53,-470.749 66.4,-785.99 5.46,-16.4 11.13,-32.98 17.03,-49.74 5.03,-14.319 10.22,-28.769 15.57,-43.359 132.02,-360.04 168.02,-624.061 261.03,-855.091 93.01,-231.02 -258.02,540.06 -327.03,711.07 -20.05,49.68 -45.409,119.37 -71.31,195.901 -5.23,15.45 -10.48,31.17 -15.72,47.069 -58.07,176.42 -113.99,373.801 -113.99,444.101 0,102.479 39.87,-239.481 136.29,-380.391 5.19,-7.6 10.55,-14.609 16.08,-20.94 12.241,-14.009 23.6,-29.98 34.12,-47.44 9.2,-15.229 17.76,-31.58 25.75,-48.739 63.73,-136.87 90.871,-325.141 105.79,-402.58 11.98,-62.16 -76.419,157.159 -149.84,405.719 -4.61,15.611 -9.16,31.33 -13.63,47.111 -6.29,22.239 -12.409,44.59 -18.27,66.869 -28.47,108.12 -50.94,214.58 -58.28,299.381 -27.01,312.039 105.53,445.129 78,651.069 -27.52,205.941 -76.94,231.77 -56.94,205.77 20,-26 82.25,-223.24 38,-408 -36.1,-150.72 -39.57,-124.809 -58.35,-110.96 -4.24,3.12 -9.26,5.64 -15.62,5.36 -34.5,-1.5 -42,-22.5 -67.489,-15 -25.5,7.5 -49.5,27 -75,21 -15.231,-3.58 -19.221,61.3 -18.691,116.71 v 0.02 c 0.35,37.36 2.77,70.42 5.191,75.26 2.819,5.64 -0.981,-31.42 -5.191,-75.26 v -0.02 c -4.74,-49.48 -9.99,-107.6 -6.809,-122.71 6,-28.5 -10.5,3 -40.5,-6 -30,-9 -30,24 -74.991,15 -45,-9 -69,12 -67.5,37.5 1.5,25.5 6,218.99 7.5,301.48 1.5,82.5 -31.5,-275.98 -21,-311.98 10.5,-36 -18,4.5 -31.5,-13.5 -6.64,-8.85 -16.54,16.76 -19.54,65.59 -3.1,50.47 1.17,125.73 24.04,213.4 38.52,147.64 -13.08,-102.53 -24.04,-213.4 -1.85,-18.66 -2.54,-33.38 -1.46,-41.59 7.5,-57 4.5,-13.5 -28.5,-30 -32.99,-16.5 -5.99,16.5 -41.99,-4.5 -13.84,-8.08 -22.93,12.2 -27.1,45.55 -6.669,53.37 -0.72,140.25 18.54,198.05 9.82,29.46 -9.91,-72.38 -18.54,-198.05 -0.15,-2.31 -0.31,-4.63 -0.46,-6.95 -2.91,-44.96 -1.24,-67.91 1.82,-80.579 h 0.011 c 4.289,-17.75 11.289,-15.291 12.169,-24.921 0.21,-2.32 0.28,-3.8 0.291,-4.65 0.04,-1.42 -0.091,-1.09 0,0 0.239,2.92 2.069,11.341 12.709,6.65 7.92,-3.49 6.72,-13.059 4.041,-20.62 -3.061,-8.67 -8.081,-14.689 -3.541,-5.88 1.03,2.01 2.23,3.99 3.541,5.88 9.459,13.65 24.819,22.4 27.459,-0.88 0.28,-2.45 0.46,-4.37 0.57,-5.84 0.53,-6.57 -0.27,-4.29 0,0 0.33,5.19 2.23,13.33 9.93,12.34 15.5,-2 13.5,-30 14,-14.5 0.5,15.5 11.5,17 15,6 3.5,-11 -4,8.5 7.5,8 11.5,-0.5 23,-4.5 50.5,4 27.5,8.5 36,-17 32.5,-6 -3.5,11 8,9 24.5,1 16.5,-8 -25,22 -52,20.5 -27,-1.5 -74,-6 -117,3 -27.16,5.68 -38.36,13.76 -42.169,15.921 h -0.011 c -2.22,1.259 -1.92,0.5 -0.82,-3.921 3,-12 -4.53,-96.53 -8,-168.5 -7.53,-155.93 -28,-457.999 -102,-667.999 -51.419,-145.911 -161.8,-260.401 -200.24,-452.561 -16.88,-84.399 -19.88,-183.79 2.09,-307.399 5.26,-29.58 9.36,-53.801 12.51,-73.111 14.37,-88.42 8.46,-73.95 0,0 -8.92,77.821 -20.66,221.521 -14.6,380.51 4.16,108.8 16.65,224.75 44.1,331.66 114.01,444.04 102.01,672.071 84,999.1 -16.279,295.78 65.59,537.12 147.3,641.32 37.34,58.21 65.51,64.99 25.76,28.34 -8.51,-7.85 -17.14,-17.33 -25.76,-28.34 -46.34,-72.23 -106.82,-223.65 -69.16,-469.52 68,-443.999 35.44,104.45 188,370 9.42,16.4 17.57,30.8 24.55,43.32 34.68,77.42 59.86,107.29 0,0 -26.8,-59.82 -59.28,-148.06 -62.55,-223.32 -8,-184 76,-54 110,74 5.46,20.54 8.23,31.61 9.32,36.03 0.04,0.17 0.08,0.32 0.11,0.47 v 0.01 c 0.02,0.07 0.03,0.14 0.05,0.2 0.02,0.06 0.03,0.09 0.02,0.08 0.02,0.06 0.03,0.12 0.041,0.18 0.029,0.11 0.049,0.17 0.049,0.21 0.11,0.46 0.19,0.77 0.23,0.96" /></g><g
           transform="translate(2863.6582,2712.2354)"
           id="g24"><path
             id="path26"
             style="fill:none;stroke:#000000;stroke-width:5;stroke-linecap:round;stroke-linejoin:round;stroke-miterlimit:10;stroke-dasharray:none;stroke-opacity:1"
             d="m 0,0 c 0,0 0,-0.01 -0.01,-0.03 v -0.01 c 0,-0.01 0,-0.03 -0.019,-0.08 v -0.01 c 0,-0.03 -0.01,-0.05 -0.021,-0.08 -0.05,-0.19 -0.13,-0.52 -0.229,-0.96 0,-0.04 -0.021,-0.1 -0.05,-0.21 -0.011,-0.06 -0.021,-0.12 -0.04,-0.18 0.01,0.01 0,-0.02 -0.021,-0.08 -0.019,-0.06 -0.03,-0.13 -0.049,-0.2 V -1.85 C -0.47,-2 -0.51,-2.15 -0.55,-2.32 c -4.01,-17.48 -27.399,-126.2 18.681,-70.03 64,78 6,-232 46,-282 28.449,-35.57 84.239,68.53 98.229,234.54 -19.979,195.92 -48.519,489.32 -8.229,227.46 12.699,-82.55 13.899,-160.1 8.229,-227.46 1.84,-18.06 3.611,-35.29 5.241,-51.18 18.679,-181.45 78,-88.74 78.7,32.79 -2.33,43.05 -1.681,62.03 -0.17,13.85 0.149,-4.65 0.199,-9.27 0.17,-13.85 3.849,-71.31 15.899,-208.67 45.83,-216.15 28.29,-7.07 41.989,72.7 46.019,148.82 -7.519,73.06 -10.019,146.2 -4.019,123.18 4.93,-18.89 6.819,-70.15 4.019,-123.18 7.5,-72.94 19.991,-145.8 33.981,-122.82 23.939,39.33 24.489,211.75 -10.87,318.41 -0.011,0.02 -0.011,0.04 -0.031,0.06 -5.98,18.05 -13,34.22 -21.099,47.53 -0.261,0.43 -0.521,0.85 -0.771,1.26 0,0.01 0,0.01 -0.009,0.02 -17.04,28.12 -12.63,25 0,0 0.009,-0.01 0.009,-0.01 0.009,-0.02 5.941,-11.76 13.691,-28.34 21.87,-48.79 0.02,-0.02 0.02,-0.04 0.031,-0.06 29.309,-73.14 64.229,-195.66 41.92,-323.09 -13.481,-77.03 -28.13,-124.27 -39.401,-154.28 -9.04,-24.09 -15.91,-37.08 -18.24,-45.44 -0.159,-0.55 -0.3,-1.09 -0.409,-1.6 -4,-18 -14,-10 -64,-12 -28.231,-1.13 -42.441,-2.58 -51.25,-5.42 -6.801,-2.2 -10.401,-5.23 -14.75,-9.58 6.859,8.07 11.599,10.28 14.75,9.58 4.21,-0.93 5.59,-7.04 5.359,-11.29 0.01,-0.01 0,-0.01 0,-0.01 -0.01,-0.45 -0.05,-0.88 -0.109,-1.28 -0.5,-3.49 -1,-1.52 0.109,1.28 0,0 0.01,0 0,0.01 1.12,2.82 3.87,6.46 9.891,6.21 11.42,-0.48 30.989,-6.39 39.309,-16.87 0.43,-0.53 0.831,-1.07 1.191,-1.63 3.779,-5.8 1.199,-2.95 -1.191,1.63 -2.349,4.48 -4.519,10.63 -0.309,11.87 8.5,2.5 11.5,-0.5 26,-10 14.5,-9.5 -5.5,3 4.5,6.5 8.059,2.82 7.68,-2.15 15.849,-3.92 1.97,-0.43 4.441,-0.68 7.651,-0.58 9.489,0.29 -1.03,-0.25 -7.401,1.52 -4.709,1.31 -7.16,3.88 2.401,8.98" /></g><g
           transform="translate(3209.1982,2179.4854)"
           id="g28"><path
             id="path30"
             style="fill:none;stroke:#000000;stroke-width:5;stroke-linecap:round;stroke-linejoin:round;stroke-miterlimit:10;stroke-dasharray:none;stroke-opacity:1"
             d="m 0,0 c 0.301,-10.4 -0.75,-20.38 -12.409,-26.6 0,0 -0.861,-3.27 -2.401,-8.98 -0.08,-0.31 -0.16,-0.62 -0.25,-0.94 -7.009,-26.12 -26.599,-98.02 -42.309,-145.169 -19.5,-58.491 -75,-143.991 -118.5,-184.491 -17.191,-16.009 -39.801,-42.88 -58.901,-66.719 -10.4,-11.211 -21.309,-24.181 -31.089,-38.271 -19.13,-27.53 1.87,1.81 31.089,38.271 23.22,25.019 43.901,41.219 43.901,41.219 0,0 -18,-39 -24,-104.99 -5.131,-56.4 11.659,-104.04 -3.021,-114.82 -28.74,2.591 -25.979,-0.699 -10.479,-2.18 4.579,-0.44 7.989,0.33 10.479,2.18 29.63,-2.659 92.781,-11.57 210.01,-35.17 19.12,-3.85 39.71,-6.73 61.391,-8.87 13.149,-1.3 26.71,-2.34 40.569,-3.159 10.481,-0.621 21.13,-1.111 31.931,-1.511 15.719,-0.58 31.729,-0.949 47.929,-1.18 191.22,-2.74 407.911,13.6 459.92,-70.349 9.661,-15.581 13.64,-34.621 10.731,-57.871 -24,-192 26,-354 8,-266 -18,88 -2,262 26,298 7.979,10.26 -11.021,18.9 -44.731,25.871 -84.519,17.469 -261.49,24.419 -337.269,20.129 -30.601,-1.73 -66.71,-1.299 -105.62,0.48 -12.8,0.59 -25.901,1.32 -39.21,2.181 -14.481,0.919 -29.2,1.979 -44.051,3.139 -12.76,1 -25.619,2.08 -38.48,3.2 -61.459,5.38 -123.19,11.911 -176.639,17 -126,12 -178,-34 -138.441,60.97 13.13,31.53 13.43,85.35 11.901,125.14 v 0.02 c 3.12,14.34 3.819,28.65 1.08,40.3 -6.021,25.59 -2.631,-0.229 -1.08,-40.3 v -0.02 c -10.551,-48.449 -48.74,-97.26 -75.41,-45.18 -34.58,67.5 -60,-1.5 -103.5,12 -43.491,13.5 -36.55,65.74 -19.22,87.74 3.43,4.35 2.449,9.6 -1.41,15.32 l -0.011,0.01 c -13.31,19.71 -60.939,44.911 -81.29,57.33 -0.01,0.01 -0.02,0.01 -0.02,0.01 -8.53,6.23 -11.87,8.64 -7.929,5.33 1.54,-1.299 4.3,-3.11 7.929,-5.33 0,0 0.01,0 0.02,-0.01 14.931,-10.89 45.73,-33.419 81.29,-57.33 l 0.011,-0.01 c 9.529,-6.4 19.41,-12.91 29.41,-19.32 68.67,-44 94,-46 124.67,-31.34 30.67,14.67 8.67,80 27.33,93.34 4.399,3.14 8.399,7.44 11.35,12.16 8.95,14.28 8.29,32.49 -20.061,34.581 h -0.029 c -2.031,0.149 -4.201,0.21 -6.531,0.189 h -0.179 c -45.34,-0.45 -52.991,12.36 -47.21,-2.93 5.79,-15.31 20,-31.34 54.66,-32.67 8.069,-0.31 14.359,-0.01 19.35,0.83 16.469,2.75 18.719,11.25 23.32,22.5 6,14.67 10.67,11.34 12,20 1.33,8.67 -2,4.67 -24,4.67 -22,0 -44.67,3.33 -76.511,1.48 0,0 0.021,0 0.07,0.01 0.01,0.01 0.031,0.01 0.04,0.01 1.5,0.32 17.951,3.86 36.01,9.71 0.03,0.01 0.061,0.02 0.09,0.03 0.021,0.01 0.04,0.01 0.061,0.02 16.839,5.441 27.25,6.17 36.139,4.191 1.071,-0.241 2.12,-0.521 3.151,-0.83 0.019,-0.011 0.04,-0.011 0.059,-0.021 9.63,-2.88 14.901,-0.6 19.561,0.73 4.66,1.34 11.33,-14 5.33,-20 -6,-6 -7.33,-8.66 -51.33,-8 -1.37,0.02 -2.731,0.05 -4.051,0.081 h -0.029 c -2.311,0.049 -4.54,0.109 -6.71,0.189 -36.5,1.311 -53.271,6.13 -53.88,10.4 -0.5,3.51 4.279,2.121 15.489,3.48 0,0 0.021,0 0.07,0.01 0.01,0.01 0.031,0.01 0.04,0.01 3.661,0.451 8.01,1.19 13.071,2.5 8.969,2.31 16.429,4.88 22.939,7.21 0.03,0.01 0.061,0.02 0.09,0.03 0.021,0.01 0.04,0.01 0.061,0.02 8.399,3.01 15.2,5.62 21.57,6.74 5.63,0.99 10.1,-1.129 14.569,-2.549 1.04,-0.341 2.09,-0.631 3.151,-0.83 0.019,-0.011 0.04,-0.011 0.059,-0.021 3.521,-0.66 7.191,-0.35 11.561,2.73 11.33,8 7.33,8.67 5.33,35.34 -0.891,11.84 5.309,20.01 12.659,26.14 9.2,7.67 20.2,12.12 21.341,16.52 2.05,7.92 -44.67,-4 -48,-8.66 -3.33,-4.67 9.33,-10 15.33,-10.67 1.609,-0.18 5.84,0.85 11.329,2.81 14.91,5.33 39.181,17.55 46.011,31.19 9.33,18.67 -32,71.33 -10.67,162 21.33,90.67 178.5,99 168.5,83 C -1.729,19.69 -0.279,9.66 0,0" /></g><g
           transform="translate(3471.7891,585.8857)"
           id="g32"><path
             id="path34"
             style="fill:none;stroke:#000000;stroke-width:5;stroke-linecap:round;stroke-linejoin:round;stroke-miterlimit:10;stroke-dasharray:none;stroke-opacity:1"
             d="m 0,0 c 86,170 -18,260 -74,386 -56,126 22,170 22,138 0,-32 -168,68 -328,90 -160,22 70,8 116,-42 46,-50 8,-44 -44,-70 -52,-26 -26,-138 -52,-142 -26,-4 -88,8 -118,-32 -30,-40 8,-6 36,-36 28,-30 -9.962,-82 -46.981,-76 C -526,222 -504,264 -548,228 c -44,-36 -72,6 -62,40 10,34 56,8.083 28,44.041 C -610,348 -610,342 -678,354 c -68,12 -34,92 -152,122 -118,30 -108,54 -80,64 28,10 56,-6 58,-14 2,-8 18,16 114,-36 96,-52 88,-94 102,-100 14,-6 30,-2 60,-48 30,-46 42,-101.917 68,-47.959 26,53.959 26,89.959 50,93.959 24,4 50,-28 22,28 -28,56 26.04,115.456 57.538,110.956 31.499,-4.499 -1.5,-3 13.499,22.499 15,25.499 32.999,-6 31.499,17.999 -1.5,23.999 7.499,64.497 52.497,64.497 44.998,0 -85.495,-80.996 -40.498,10.499 44.998,91.496 -31.905,94.496 -126.197,32.999 -94.291,-61.497 31.702,-50.998 -29.795,-110.995 -61.497,-59.997 -200.989,-49.497 -212.989,10.5 -11.999,59.997 121.494,-1.5 40.498,95.995 -80.996,97.495 -236.989,22.499 -209.989,-34.498 26.998,-56.997 -37.505,-82.107 -53.998,-44.998 -6,13.499 11.999,-37.498 40.498,-4.5 28.499,32.999 -26.999,32.999 -7.5,71.997 19.5,38.998 55.498,176.99 122.995,248.987 67.496,71.997 84.144,-45.061 125.318,-180.022 41.173,-134.962 40.234,-114.254 -17.794,-120.108 -58.027,-5.855 -28.028,-55.352 -47.527,-19.354 -19.499,35.998 -1.456,106.729 -29.977,126.861 -28.52,20.132 -109.516,-17.366 -120.016,-86.363 -10.499,-68.996 128.973,46.139 142.483,-17.429 13.509,-63.567 76.171,-97.518 156.002,-68.067 79.831,29.452 58.497,49.498 11.999,182.991 -46.497,133.493 -83.995,247.488 -67.496,169.491 16.499,-77.996 95.995,-271.486 125.993,-229.488 29.999,41.998 122.994,68.997 149.993,56.997 26.998,-11.999 -151.493,116.994 -193.49,184.491 -41.998,67.497 23.998,131.994 -52.498,179.992 -76.496,47.997 -91.495,-9 -157.492,16.499 C -798.44,1129.926 -858.437,822.441 -910.936,621.451 -963.433,420.462 -1086.235,-76 -964.118,-356 -842,-636 -1242.282,23.828 -1162,452 c 48,256 123.7,387.567 149.85,527.784" /></g><g
           transform="translate(505.7886,2373.8853)"
           id="g36"><path
             id="path38"
             style="fill:none;stroke:#000000;stroke-width:5;stroke-linecap:round;stroke-linejoin:round;stroke-miterlimit:10;stroke-dasharray:none;stroke-opacity:1"
             d="m 0,0 c -40.667,-33.333 -64.667,-70.667 -49.333,-75.333 15.333,-4.667 28.666,-28 12.666,-45.334 -16,-17.333 -43.333,-8.666 -48.666,14 -5.334,22.667 -10.667,-32 -43.334,-10 -32.666,22 -3.333,46.162 10,51.748 C -105.333,-59.333 -146,-50.667 -136,-19.333 -126,12 -80,3.333 -87.333,-36.667 -94.667,-76.667 0,0 0,0 Z" /></g><g
           transform="translate(428.7886,2576.8853)"
           id="g40"><path
             id="path42"
             style="fill:none;stroke:#000000;stroke-width:5;stroke-linecap:round;stroke-linejoin:round;stroke-miterlimit:10;stroke-dasharray:none;stroke-opacity:1"
             d="m 0,0 c -29,-8 -109,-2 -98,-18 11,-16 14,-42 -20,-44 -34,-2 -38,43 -31,49 7,6 -33,-19 -37,27 -4,46 55,3 52,22 -3,19 -4.194,43 28.903,38 C -72,69 -82,45 -101,28 -120,11 0,0 0,0 Z" /></g><g
           transform="translate(371.7886,2818.8853)"
           id="g44"><path
             id="path46"
             style="fill:none;stroke:#000000;stroke-width:5;stroke-linecap:round;stroke-linejoin:round;stroke-miterlimit:10;stroke-dasharray:none;stroke-opacity:1"
             d="m 0,0 c 8.944,-6.708 -104,55 -95,37 9,-18 -7.389,-51 -33.194,-37 -25.806,14 -7.195,46 -1,49 C -123,52 -170,52 -161,91 c 9,39 44,19 48,5 4,-14 -5,29 40,29 45,0 16,-54 2,-55 C -85,69 -16,12 0,0 Z" /></g><g
           transform="translate(1113.7886,2908.5522)"
           id="g48"><path
             id="path50"
             style="fill:none;stroke:#000000;stroke-width:5;stroke-linecap:round;stroke-linejoin:round;stroke-miterlimit:10;stroke-dasharray:none;stroke-opacity:1"
             d="m 0,0 c -11.333,-3.333 -30,8.667 -34,4.667 -4,-4 -35.333,-32 -40,-36.667 -4.667,-4.667 44,8 54,7.333 10,-0.666 -2,3.334 20,24.667 z" /></g><g
           transform="translate(1163.1221,2875.5171)"
           id="g52"><path
             id="path54"
             style="fill:none;stroke:#000000;stroke-width:5;stroke-linecap:round;stroke-linejoin:round;stroke-miterlimit:10;stroke-dasharray:none;stroke-opacity:1"
             d="m 0,0 c 5.333,-20.965 -4.667,-40.298 0,-44.965 4.667,-4.667 51.333,-72.667 51.333,-72.667 0,0 -14,80 -16.666,88.667 C 32,-20.298 5.333,-15.035 0,0 Z" /></g><g
           transform="translate(1181.1221,2938.5522)"
           id="g56"><path
             id="path58"
             style="fill:none;stroke:#000000;stroke-width:5;stroke-linecap:round;stroke-linejoin:round;stroke-miterlimit:10;stroke-dasharray:none;stroke-opacity:1"
             d="m 0,0 c 10.667,5.333 12.667,20.667 18,20.667 h 50 c 0,0 -35.333,-28 -40.667,-30.667 C 22,-12.667 9.333,2 0,0 Z" /></g><g
           transform="translate(1080.4556,3079.8853)"
           id="g60"><path
             id="path62"
             style="fill:none;stroke:#000000;stroke-width:5;stroke-linecap:round;stroke-linejoin:round;stroke-miterlimit:10;stroke-dasharray:none;stroke-opacity:1"
             d="m 0,0 c 5.333,-18 15.333,-88 18.667,-92.667 3.333,-4.666 28,-24 32.666,-28 -7.333,24 10,36.667 0,48 C 41.333,-61.333 0,0 0,0 Z" /></g><g
           transform="translate(1133.1226,2940.73)"
           id="g64"><path
             id="path66"
             style="fill:none;stroke:#000000;stroke-width:4.80900002;stroke-linecap:round;stroke-linejoin:round;stroke-miterlimit:10;stroke-dasharray:none;stroke-opacity:1"
             d="M 0,0 C -7.578,-4.794 -11.608,-23.53 1.862,-35.247 15.333,-46.964 38,-37.082 31.333,-14.581 24.666,7.92 6,3.797 0,0 Z" /></g><g
           transform="translate(939.4351,3358.23)"
           id="g68"><path
             id="path70"
             style="fill:none;stroke:#000000;stroke-width:4.80900002;stroke-linecap:round;stroke-linejoin:round;stroke-miterlimit:10;stroke-dasharray:none;stroke-opacity:1"
             d="M 0,0 C 0,0 10.5,-88.496 49.498,-151.493 35.998,-62.997 0,0 0,0 Z" /></g></g></g></g></svg>