<?xml version="1.0" encoding="UTF-8"?>
<svg id="Layer_1" data-name="Layer 1" xmlns="http://www.w3.org/2000/svg" viewBox="0 0 300 300">
  <defs>
    <style>
      .cls-1 {
        fill: #231f20;
      }
    </style>
  </defs>
  <path class="cls-1" d="M239.97,259.14c-.7-3.1-1.39-6.3-2.03-9.24-.92-4.24-1.72-7.9-2.22-9.92-.33-1.33-1.26-4.24-2.43-7.92-1.82-5.71-4.31-13.52-6.08-20.17-2.15-8.11-9.24-35.96-9.86-53.65-.62-17.4-4.14-22-8.68-26.22-1.42-1.32-2.78-2.37-4.01-3.2.07-.23.09-.51-.02-.8-.18-.45-.64-.75-1.37-.91-.86-.19-1.85-.47-2.7-.74.34-.55.86-1.91.94-3.23.09-1.47-.35-2.67-1.28-3.47-1.33-1.15-2.37-.79-3.37-.44-.97.34-1.89.66-3.2-.34-.46-.35-.86-.66-1.23-.94-1.58-1.22-2.29-1.77-2.84-1.66-.2.04-.36.17-.48.38,0,.02-.09.19-.22.48-.04-.42-.16-.7-.36-.83-1.34-.86-3.61-1.12-5.44-1.34-1.08-.13-2.11-.25-2.49-.46-.15-.08-.34-.21-.54-.35-.11-.07-.23-.15-.35-.23.09-.45.17-1.47,0-3.71-.25-3.23-3.58-10.82-8.29-13.54-1.58-.91-2.63-2.95-2.94-5.73-.51-4.48.98-9.34,3.63-11.8,4.47-4.17,5.99-7.03,8.75-12.24l.55-1.04c.29-.54.52-1.14.71-1.79.86,9.72-5.91,14.18-5.98,14.22-.08.05-.13.15-.11.25.02.1.09.18.19.2,1.19.28,2.7-1.52,3.49-2.62,2.64-3.68,5.39-10.69,3.48-13.71-.17-.27-.37-.5-.59-.72.57-4.51-.3-10.21-1.52-13.66-.43-1.22-1.11-2.74-1.9-3.08-1.07-.46-1.34-3.73-1.6-6.9-.25-3.03-.5-6.15-1.4-8.16-2.07-4.62-5.29-8.41-9.85-11.59-2.31-1.61-3.6-2.58-5.09-3.7-1.6-1.2-3.4-2.57-6.91-5.04-5.71-4.03-15-2.76-20.32,1.04,0-.03.01-.05,0-.08-.04-.54-6.75-1.8-8.81-2.18-4.81-.86-16.59,9.07-18.07,14.22-.87,3.01-2.21,5.23-4.06,8.31-1.25,2.07-2.66,4.41-4.34,7.64-2.18,4.19-1.43,8.29-.34,12.94-1.73,2.97-2.55,5.88-1.44,8.05.76,1.5,1.97,2.81,3.34,3.93,0,1.18-.06,2.4-.22,3.67-.12.99-.27,1.85-.42,2.6-1.96,2.88-3.4,3.62-4.29,3.71-.75.08-1.14-.31-1.15-.33-.09-.1-.24-.11-.34-.02-.1.09-.12.24-.04.34.06.08,1.6,2.06,3.32,1.59,1.32-.36,2.32-2.07,2.97-5.09.17-.25.33-.5.5-.77.4-.63.79-1.19,1.19-1.69.02.1.03.2.06.31.68,3.36,2.14,4.78,4.16,6.75.16.16.33.32.5.49.1.73.11,1.42,0,2.04-.74,4.07-2.06,5.41-2.41,5.7-.06.05-.1.07-.1.08-.11.08-.14.23-.07.34.07.11.22.15.34.08.01,0,.07-.04.17-.12.65-.5,3.18-2.63,4.16-5.94.13.15.26.3.4.46,3.46,4.07,5.44,10.16,5.05,15.52-.38,5.23,1.4,10.14,1.42,10.19.04.12.17.19.3.15.12-.03.2-.16.18-.29,0-.03-.57-3.24-.57-13.23,0-.91-.02-1.77-.06-2.59,1.15,2.64,2.36,5.79,3.21,9.67.81,3.69.65,9.01-4.69,13.43-.29.24-.35.29-.35.43s.12.25.25.26h0c.48,0,5.68-4.05,5.93-10.33.18-4.55.3-6.85.35-7.81,1.02,1.03,3.69,3.87,3.94,5.6.08.57-.03,1.26-.18,2.11-.05-.02-.1-.04-.15-.05-.37-.08-.68.2-.89.42-.53.57-.33,1.85-.09,3.33.19,1.18.39,2.4.22,3.3-.19,1-.23,1.73-.26,2.5-.04.81-.08,1.66-.31,2.93-.28,1.57-.71,1.8-1.2,2.08-.25.14-.54.29-.79.62-.14.18-.19.49-.16.89-.82.46-1.35.83-1.38.85-.06.04-.1.11-.11.19-.04-.02-.09-.04-.13-.04h-.64c-.12,0-.22.09-.25.2,0,.02-.03.17-.07.42-.19.13-.41.29-.65.46,0,0,0,0,0,0-.22-1.23-2.59-3.41-6.66-6.12-2.29-1.52-5.17-4.43-7.71-6.99-3.05-3.08-4.69-4.69-5.42-4.53-1.31.26-1.15,5.15-.29,16.01.54,6.76,3.04,12.42,3.52,13.45-.05.06-.07.14-.03.23-2.5,1.71-4.74,3.28-5.69,4.06-.73.59-1.44,1.13-2.13,1.66-1.98,1.51-3.41,2.6-3.41,3.47,0,.12.02.31.05.58-1.46,1.75-2.94,3.78-3.85,5.42-3.73,6.76-4.05,16.99-.96,30.39,3.76,16.31.2,39.3-1.14,47.96l-.06.37c-.43,2.77-1.35,6.63-2.42,11.1-2.12,8.85-4.76,19.87-5.15,29.09-.59,13.7-3.12,34.24-3.15,34.45,0,.07.01.14.06.2.05.05.12.08.19.08h17.36c.08,0,.16-.04.21-.11.05-.07.05-.16.02-.24-.02-.04-1.72-4.38,4.32-13.98,1.66-2.63,3.32-5.13,4.93-7.55,4.48-6.74,8.34-12.55,10.16-18.2.05-.16.1-.31.15-.47.16.23.5.4,1.09.55,1.05.26,2.53.15,3.97.04,1.31-.1,2.79-.21,3.11.12.03.03.06.07.04.17-.06.53-.32,2.01-.7,4.07-3.47,8.21-9.71,26.67-8.03,29.61.22.39.5.4.64.37,2.13-.43,6.16-20.81,7.83-29.8.87-2.07,1.55-3.45,1.86-3.71,1.47.46,11.38,2.39,13.74,2.12.04,0,.15-.02.3.19.62.88.75,3.78.69,6.45-.41,1.62-.64,3.24-.59,4.52.03.71.08.88.27.95.1.03.23,0,.3-.08.25-.29.5-2.77.54-5.43.68-2.65,1.84-5.29,2.98-6.43.34-.34.66-.53.92-.5.58.03,1.39-.13,2.24-.29,2.69-.52,4.78-.75,5.19,1.2.1.47.18,1.48.25,2.83-1.31,6.67-2.56,19.88-1.27,25.43.2.84.4,1.35.78,1.26,1.35-.3,1.24-18.98.94-26.57.39-2.11.78-3.5,1.06-3.69.33.02,1.02.2,1.81.41,2.4.63,6.01,1.58,7.54.28,0,0,.17.11.32.96.11.63.19,1.47.24,2.44-.99,5.07-1.77,13.19-1.21,15.8.07.33.17.68.45.7.26.04.38-.3.43-.42.44-1.26,1.08-10.42.83-15.88.43-2.21.85-3.78,1.08-3.96.33-.11,1.46-.23,2.9-.39,2.7-.29,6.77-.73,9.77-1.56,2.74-.76,4.5-.78,5.52-.06.04.03.07.05.11.08.08.12.18.22.3.29.47.54.73,1.35.81,2.44.02.33.11.91.24,1.68.02,7.4,3.47,27.11,5.32,30.67.11.21.31.6.62.5.6-.21.24-2.89-3.27-20.18-.93-4.59-1.83-8.99-2.21-11.3,0-1.14.09-1.87.3-2.03.1-.08.21-.1.35-.06,1.04.26,2.81,3.17,4.93,7.34,2.46,8.49,7.48,21.87,8.72,24.29.48.93.9,1.29,1.27,1.1,1.03-.5-.21-5.95-4.05-14.18-2.1-4.48-3.89-8.29-5.42-11.3-.97-3.29-1.55-5.81-1.37-6.58.74-3.24,1.21-5.07,1.52-5.93.18-.5,3.12-1.61,5.79-2.37.07.23.14.45.21.67,1.12,3.32,6.92,15.65,12.01,26.33.87,2.06,2.26,5.11,4.45,9.67,2.35,4.87,3.21,6.59,3.59,7.17.02.04.03.06.03.08h.02c.11.15.18.19.24.19.03,0,.06-.01.08-.02.12-.05.18-.22.13-.34-.09-.25-1.13-2.42-3.29-6.92-1.35-2.82-3-6.26-4.73-9.89-.86-2-1.41-3.48-1.39-3.87.59-.4,4.33-3.64-1.57-18.82-2.84-7.3-4.33-13.86-5.42-18.65-1.08-4.75-1.73-7.61-2.96-8.2-.31-.15-.64-.16-.96-.04-1.08.43-1.95,2.43-2.72,4.43-.08-.04-.16-.07-.23-.09l.05-3.95c.48-.36,2.44-1.93,3.97-4.6,1.13-1.97.65-6.08.14-10.44-.14-1.2-.28-2.42-.39-3.62.46-1.32.55-1.83.67-2.44.13-.66.27-1.41.97-3.55,1.06-3.24,1.55-6.83,1.76-8.74.71,3.15,1.52,6.12,2.45,8.49,2.33,5.98,7.99,21.23,10.2,33.57,2.05,11.46,5.35,27.82,10.24,37.6,4.79,9.57,8.29,20.29,8.33,20.39.03.1.13.17.24.17h0l13.27-.07h1.87c.07-.01.13-.04.18-.09.05-.05.07-.12.07-.18-.01-.33-1.47-32.96-3.15-40.47ZM177.65,77.76c.3-.28.63-.61.99-1.01-.35.41-.68.75-.99,1.01ZM97.02,74.58c-.72.2-1.44-.18-1.97-.6.11,0,.22,0,.34,0,1.21-.11,2.54-1.1,3.95-2.93-.71,2.51-1.6,3.33-2.32,3.53ZM109.84,293.66h0s-.04-.02-.11-.13c-.33-.57-.57-2.63,1.45-10.02,1.56-5.7,3.86-12.29,5.69-16.94-1.91,9.85-5.62,27.09-7.03,27.09ZM181.3,276.48c1.47,7.26,3.44,16.96,3.53,19.25-1.65-3.4-4.22-18.12-5.01-26.61.41,2.11.93,4.66,1.48,7.36ZM190.65,281.76c4.27,9.13,4.63,13.16,4.33,13.51-.06-.01-.29-.2-.64-.88-1.15-2.25-5.17-13.02-7.76-21.24,1.29,2.64,2.67,5.6,4.08,8.61ZM204.44,129.29c1.2.81,2.52,1.83,3.88,3.1,4.45,4.13,7.9,8.66,8.52,25.87.63,17.74,7.72,45.63,9.88,53.76,1.17,4.39,2.65,9.29,4.05,13.76-.29-.73-.82-1.36-1.73-1.47-1.95-.23-6.93-1.22-11.09-5.29-2.37-2.33-3.43-5.24-3.9-7.27.44.29.96.56,1.6.79,3.76,1.35,5.87,1.58,6.51,1.62.16.83.87,3.89,2.83,4.75,2.13.94,3.49,1.2,3.54,1.21.09.02.18-.02.24-.08.06-.07.08-.16.05-.24l-3.66-10.64c-.03-.1-.12-.16-.22-.17-.11,0-.2.05-.24.14l-1.43,3.08c-.85-1.33-1.67-2.79-1.94-3.5.3-.1.55-.28.74-.53.25-.33.37-.76.41-1.25.43-.65.69-1.55.21-2.8-.45-1.2-1.29-3.18-1.79-3.01-.29.1-.18.46-.13.61.03.1.09.26.17.48.34.94,1.11,3.06,1.05,4.54-.21.3-.47.55-.7.76-.24.23-.43.41-.51.6-.02.05-.03.12-.03.19-.1,0-.21,0-.32,0-3.33-.24-4.69-9.98-4.71-10.08-.01-.09-.07-.17-.16-.2-.08-.03-.18-.02-.25.04-.04.03-3.94,3.12-8.26,1.33-1.08-.45-1.93-.84-2.58-1.18l-1.27-6.89c-.02-.13-.14-.22-.29-.2-.13.02-.23.15-.21.28l.8,5.58-1.42-.4c-.09-.03-.19,0-.26.08-.06.07-.08.18-.04.27.03.08.33.62,2.23,1.62l1.38,7.49c-1.86-.81-2.84-2.24-3.16-2.79-.38-.65-.98-6.97-1.52-14.03,1.53,1.44,5.25,3.72,8.9,2.89l.25,1.03c.02.07.06.12.12.16.06.04.13.04.2.02l3.4-1.02c2.12-.64,2.99-2.14,3.34-3.26.4,2.03,1.15,5.86,1.28,6.71.1.69.49.87.87,1.04.39.17.82.37,1.19,1.23.81,1.9,2.85,2.1,2.93,2.11.08.01.16-.02.21-.08.05-.06.07-.14.06-.22l-1.45-7.23c-.02-.1-.1-.18-.21-.2-.1-.01-.21.03-.26.12-.17.3-.77,1.07-1.36,1.04-.49-.03-.99-.58-1.42-1.61-.87-2.03-1.24-8.38-1.4-13.37.23-1.19.3-2.05.31-2.17,0,0,0,0,0,0h0v-.02h0v-.02s0,0,0,0h0c-.01-.13-.11-.22-.23-.23-.05,0-.1,0-.14.03-.05-2.38-.05-4.07-.05-4.12,0-.12-.09-.23-.21-.25-.13-.03-.24.05-.28.16-.02.05-.87,2.46-2.27,5.03-.43-3.55-.99-8.86-1.33-13.14-.08-1.03-.27-2.34-.52-3.84-.07-4.69-.34-9.65-1.1-12.46-1.7-6.3-3.41-7.89-3.48-7.95-.08-.07-.2-.09-.3-.03-.09.06-.14.17-.11.28.04.15,3.16,12.44,4.48,20.15.08,5.24-.09,10.16-.14,11.29h-1.13l-.24-12.6c.12-.61.11-1.25.08-1.88l-.17-3.06c0-.13-.12-.24-.25-.24h0c-.14,0-.24.12-.24.25l.09,4.88c-.15.71-.5,1.35-1.26,1.89-.33.23-.71.52-1.12.82-1.07.8-2.87,2.12-3.27,2.03-.11-.03-.18-.07-.19-.11-.02-.08,0-.44,1.24-1.6,2.64-2.48,4.01-5.41,4.08-8.69.08-4.15-2.26-8.78-3.26-10.76l-.17-.33c-.37-.74-.75-1.11-1.17-1.12-.34.01-.62.26-.71.43-.04.07-.04.16-.01.23.03.06,2.64,5.81,3.47,9.99.51,2.54-.8,4.96-1.62,6.17-.97,1.43-1.97,2.25-2.26,2.3-.16.03-.22-.02-.24-.04-.31-.28-.18-1.57-.08-2.7v-.14c.19-1.82-1.27-6.91-3.93-11.97-.36-.69-.61-1.36-.78-2,2.43-1.96,8.7-7,10.07-7,.03,0,.05,0,.07,0,.12.02.23-.05.27-.15.04-.11,0-.23-.09-.3l-1.7-1.19c-.09-.06-.2-.06-.29,0l-8.21,5.77c0-.87.12-2.74.95-3.51,1.17-1.08,5.64-4.37,5.68-4.41.07-.05.1-.13.1-.21s-.04-.16-.11-.2l-.77-.51c-.09-.06-.2-.06-.28,0-1.08.73-4.6,3.17-4.78,3.89-.02.08-.12.29-.24.51-.58,1.15-1.94,3.83-1.23,7.11-.54.43-.95.76-1.16.92-.43.32-.5.68-.48.92.05.63.72,1.21,1.25,1.58-.42.07-.95.18-1.4.36-.95.38-1.22,3.51-1.26,4.13,0,.1.04.19.13.24.09.04.19.04.27-.02.77-.6,2.98-2.08,3.93-1.78.18.06.29.18.36.38,1.86,5.83,4.57,15.54,3.93,16.74-.76,1.46-7.36,1.91-9.37,1.74-.37-.03-.69.08-.94.32-.24.24-.42.61-.53,1.09.37-6.37,1.48-19.62,4.58-28.92,2.88-8.64,4.97-10.66,5.96-11.09.38-.17.57-.09.57-.09.11.06.25.03.32-.07ZM212.61,208.96c-.23-.99.02-1.79.04-1.86.02-.07.01-.15-.03-.22-.04-.06-.11-.1-.19-.11-.01,0-1.15-.09-4.35-.17-.8-.02-1.5-.16-2.12-.37l-1.37-7.41c.62.31,1.36.65,2.28,1.03,3.83,1.59,7.33-.42,8.42-1.15.3,1.93,1.76,9.87,5.11,10.1.16.01.31.01.46,0,.35,1.06,1.48,2.89,2.25,4.06.05.08.14.12.23.11.09,0,.17-.06.21-.14l1.36-2.93,3.31,9.62c-.56-.15-1.62-.46-3-1.07-1.98-.87-2.57-4.54-2.58-4.58-.02-.12-.12-.21-.25-.21-.02,0-2.15-.02-6.55-1.6-.82-.29-1.45-.66-1.92-1.05-.19-1.02-.21-1.68-.21-1.7,0-.1-.06-.18-.15-.22-.04-.02-.29-.11-.93-.13ZM213.29,210.39c-.24-.3-.41-.61-.53-.92.2.01.34.03.43.05.01.18.04.48.1.87ZM203.17,205.98c.61.66,1.57,1.62,2.67,2.42l2.56,13.92c-.07.17-.35.73-.99,1.18-.58.41-1.29.94-1.68,1.23l-1.72-5.69,1.72-1.17c.08-.06.13-.16.1-.26l-2.67-11.63ZM206.06,206.79c.6.18,1.27.29,2,.31,2.3.06,3.53.12,4.04.15-.07.36-.13.99.01,1.71-.58.02-1.38.09-2.47.28-1.05.17-2.25-.38-3.35-1.14l-.24-1.31ZM221.37,208.14c.07-.08.17-.17.26-.26.03-.03.06-.06.09-.09-.02.03-.04.05-.06.08-.08.11-.18.2-.3.27ZM221.92,203.56c.09.23.19.47.29.74.21.54.25,1,.2,1.39-.1-.72-.29-1.47-.5-2.13ZM203.91,197.9c-.39-.21-.68-.4-.92-.56l.75.21s.07.01.1,0l.06.34ZM209.77,190.61l.13.2c.05.08.15.12.25.11.07-.01,1.24-.21,2.53-.96-.53.44-1.13.84-1.82,1.17-.29.14-.58.25-.87.34l-.21-.87ZM202.37,181.53c.01-.1.02-.2.04-.3.01.21.04.39.06.49.1.45.57,1.12,1.4,1.59.95.53,2.65.97,5.39.04,1.92-.65,3.61-2.66,4.93-4.8.15,1.13.27,1.95.36,2.32.04.17.07.33.1.48-.48.86-.6,1.44-.36,1.77.21.3.62.28.82.23.1-.03.17-.11.19-.22,0-.03.06-.64-.12-1.69.11-.19.25-.41.42-.66.53-.78.92-1.46,1.22-2.03-.52,2.48-1.71,6.18-4.34,7.45-4.1,1.97-6.9,2.55-9.05-.27-1.36-1.77-1.25-2.71-1.05-4.41ZM202.29,170.29l.09.29c.03.08.09.14.17.16.08.02,1.86.52,4.65-1.66,1.36-1.06,2.1-1.71,2.5-2.11,0,.78-.11,2.09-.64,2.78-.57.74-3.04,2.33-5.2,2.61-.58.07-1.09.05-1.54-.07-.02-.76-.03-1.44-.04-2ZM202.53,177.65c-.01-.21-.02-.41-.03-.62,1.54.35,3.5.46,5.05-.88,1.77-1.54,2.62-2.55,2.98-3.04.26.53.58,1.67-.45,3.04-1.61,2.15-3.63,2.95-5.4,2.14-.75-.34-1.23-.15-1.51.07-.32.26-.51.67-.63,1.12.02-.54.02-1.15-.02-1.83ZM214.78,182.24c.03.28.03.5.03.64-.05,0-.09-.02-.11-.05-.02-.02-.09-.16.08-.59ZM215.18,180.5c-.05.08-.1.15-.15.23-.09-.42-.25-1.46-.43-2.88.97-1.68,1.71-3.36,2.16-4.47,0,.99.03,2.46.07,4.14-.28.68-.77,1.67-1.65,2.98ZM212.06,156.83c-1.17-5.94-2.91-13.05-3.61-15.87.64,1.05,1.63,3.09,2.61,6.72.57,2.11.86,5.54,1,9.14ZM208.23,151.31c-.77-3.87-3.04-9.04-3.44-9.96.05-.05.12-.09.19-.09.08,0,.35.07.74.85l.17.34c.98,1.95,3.29,6.5,3.21,10.53-.06,3.14-1.38,5.94-3.92,8.33-.57.53-.95.96-1.17,1.31-.14-.71-.32-1.48-.51-2.27.11.04.26.06.45.03.57-.1,1.68-1.18,2.58-2.51.87-1.28,2.24-3.83,1.7-6.55ZM198.74,146.2c-.4-.21-1.56-.96-1.61-1.56,0-.06-.02-.26.28-.48.19-.15.54-.42,1-.79.17.62.42,1.25.76,1.9,2.62,4.98,4.05,9.94,3.89,11.69v.14c-.05.38-.08.75-.11,1.08-1.11-4.2-2.45-8.44-2.55-8.77-.11-.36-.35-.6-.69-.71-.13-.04-.27-.06-.41-.06-1.11,0-2.73,1.03-3.52,1.59.16-1.49.51-3,.9-3.15.8-.32,1.96-.41,1.97-.41.11,0,.2-.09.23-.2.02-.11-.03-.22-.13-.27ZM198.56,140.84s.02.01.03.02c.08.04.18.03.25-.02l8.45-5.94,1.06.74c-1.64.56-5.08,3.16-9.66,6.84-.11-.57-.15-1.12-.14-1.64ZM199.96,135.93c.14-.28.24-.47.27-.6.12-.38,2.33-2.06,4.44-3.51l.33.22c-.91.67-3.72,2.76-5.04,3.88ZM203.79,128.86c-.11.02-.23.05-.36.1-1.31.52-3.48,2.92-6.31,11.43-3.71,11.12-4.58,27.82-4.75,31.86-.97-1.99-3.16-8.03-1.49-19.74,2.12-14.93,7.26-25.38,7.97-25.75.04,0,.08-.01.13-.01.65,0,2.46.62,4.82,2.12ZM203.17,127.61c.38.08.87.25,1,.6.04.11.05.22.04.32-.72-.47-1.4-.85-2.01-1.16.33.09.66.17.97.24ZM198.71,125.76s-.04,0-.07,0c.36-.37.63-.58.77-.59.5.38.54.75.53,1-.72-.23-1.22-.41-1.23-.41ZM189.56,116.93c.06-.12.12-.13.14-.13.32-.07,1.21.62,2.43,1.56.36.28.77.6,1.23.94,1.52,1.15,2.66.76,3.67.41.95-.33,1.76-.61,2.88.35.68.59,1.05,1.41,1.11,2.43.07,1.25-.34,2.5-.64,3.19-.08-.28-.27-.6-.67-.9-.73-.55-2.76,1.89-9.33,10.57-2.46,3.25-5.01,6.62-6.93,8.88-1.02,1.2-2,2.55-2.92,3.96.69-2.24,2.01-6,4.35-10.93,4.06-8.55,6.24-16.82,5.89-18.54-.21-1.04-.51-1.27-1.39-1.43.08-.17.14-.29.18-.35ZM178.73,143.45c.05.12.13.2.24.23.26.08.69.21,2.56-3.8,2.12-4.55,6.81-16.58,7.34-21.49.11-.24.21-.45.29-.64.9.15.96.27,1.12,1.06.33,1.67-1.98,10.06-5.85,18.23-3.09,6.5-4.42,10.98-4.86,12.67-3.95,6.53-6.69,13.92-7.32,15.69-.66,1.83-2.53,4.28-4.71,7.11-3.3,4.29-7.4,9.63-8.49,14.8-1.94,9.15-11.11,16.3-12.93,17.64-3.16,2.33-6.09,2.76-6.35,2.72-.09-.06-.22-.05-.3,0-.02-.15-.03-.31-.05-.46.51-1.89.94-3.98,1.02-5.41.08-1.38-.11-2.2-.6-2.49-.3-.18-.53-.09-.64-.02-.9.59-.58,5.11-.29,7.85-.17.59-.34,1.16-.5,1.67-.88.11-2.34.34-4.23.82-.76-.67-1.39-1.48-1.62-2.34-.55-2.07,4.28-8.1,8.96-13.94.83-1.03,1.66-2.07,2.49-3.12,4.75-6,6.43-11.81,7.66-16.06.28-.96.54-1.86.8-2.66.24-.72.49-1.54.75-2.42,1.33-4.4,3.15-10.43,7.36-14.93.16-.17.32-.36.48-.57,1.36.87,2.43,1.45,2.8,1.59.2.08.43.15.61.03.18-.12.2-.33.22-.58.04-.44.1-1.26,1.04-2.4,1.88-2.29,2.8-3.9,3.12-8.76.11-1.72-.27-3.16-.96-4.47,1.15-3.07,2.28-6.27,3.31-9.29.19.09.34.18.47.25.32.18.51.28.72.2.17-.07.24-.23.29-.36.07-.22.08-.59.1-1.14.03-1.09.07-2.92.67-5.19.12-.45.19-.85.21-1.2.59-1.85,1.1-3.44,1.48-4.65.34-1.07.59-1.86.73-2.29.08-.23.16-.44.25-.62,1.37,1.81,3.11,1.83,5.16,1.86,1.12.01,2.39.03,3.74.37,1.56.39,2.66.56,3.42.68,0,.15-.01.32-.03.53,0,.04,0,.08-.01.12-2.46,5.53-10.31,23.56-9.67,25.16ZM188.07,120.2c-1.58,7.17-7.54,21.65-8.9,22.92-.07-1.9,5.98-16.29,8.9-22.92ZM171.43,236.56c.53,2.37.99,4.43.55,4.83-.97.91-19.3,2.18-25.52,2.4.23-3.98.57-12.27-1.14-17.28-.35-1.02-.66-1.95-.94-2.8-1.33-3.99-1.94-5.81-2.78-5.98-.04,0-.08-.01-.13-.01s-.09,0-.13.01c-.01-.04-.02-.09-.03-.14-.02-.08-.04-.16-.06-.24.74-.56,1.1-1.28,1.21-2.06.33.75.7,1.59,1.11,2.49l.26.56c1.14,2.51,4.6,4.27,7.94,5.97.51.26,1.03.52,1.53.79,1.71.89,2.86,1.89,3.62,2.55.71.61,1.09.95,1.48.84.27-.08.39-.36.45-.56.46-1.49-.36-4.48-2.74-5.99-2.19-1.38-5.15-7.92-5.59-11.48-.09-.71-.39-1.26-.91-1.64-1.48-1.1-4.36-.61-6.68-.21-.67.11-1.3.22-1.79.27-.14.01-.28.05-.4.11-.27-.36-.49-.66-.65-.88,1.18-.11,3.79-.92,6.33-2.78,1.84-1.36,11.14-8.61,13.12-17.94,1.07-5.06,5.14-10.35,8.4-14.6,2.2-2.86,4.1-5.33,4.78-7.24.06-.18.15-.41.25-.69-.23,2.93.05,7.8.37,11.86.43,5.44-1.29,35.07-3.06,44.19-1.09,5.6.25,11.64,1.14,15.63ZM156.38,251.63c-.34-.08-.56-.38-.66-.89-.24-1.21.29-3.15.9-4.13.21-.02.43-.05.65-.07.27.91.42,3.09.4,5.28-.5-.05-.95-.11-1.29-.19ZM157.65,252.46c-.03.93-.09,1.83-.18,2.62-.03-.32-.04-.65-.06-.95-.03-.64-.05-1.14-.17-1.38.02-.04.12-.15.42-.29ZM155.23,250.83c.18.9.66,1.2,1.04,1.28.18.04.45.09.78.12-.02.01-.04.03-.06.04-.31.26-.27.51-.21.63.09.19.11.72.14,1.24.04.74.08,1.64.31,2.32-.06.22-.12.42-.19.58-.01.03-.03.06-.04.08-2.42.19-4.99.27-7.46.11-1.59-.11-3.14-.14-4.67-.14-.56,0-1.11,0-1.66.01-.32-.86-.53-2.36-.67-4,.6.07,1.24.07,1.64.05,2.01-.08,2.08-.47,2.1-.6.03-.2-.1-.37-.41-.49-.71-.28-2.11-.33-3.43-.23-.13-2.01-.17-4.06-.16-5.34.63-.03,2.68-.03,7.39.44,1.39.14,3.68.01,6.36-.26-.62,1.17-1.02,3-.79,4.16ZM156.29,257.69c-2.12.95-7.92.49-10.63.27-.88-.07-1.57-.12-1.93-.12-.02,0-.08,0-.17-.09-.04-.04-.07-.08-.11-.14,1.96-.03,3.98,0,6.05.13,2.25.15,4.57.1,6.79-.05ZM103.01,233.14c-.42-2.4-.9-5.12-.41-6.18.3-.65,1.98-2.02,4.11-3.56,0,.18,0,.36.01.54-4.16,4.8-3.06,7.52-2.08,9.93.44,1.08.85,2.11.81,3.27,0,.25-.03.5-.06.75-1.31,1.39-2.23,2.32-2.46,2.42-.1.02-.16.02-.17.02-.02-.14.13-.57.27-.95.13-.38.3-.85.45-1.4.24-.89-.08-2.72-.45-4.84ZM107.21,224.12c.22-.25.45-.5.7-.76,1.4-1.46,3.09-2.83,4.92-4.09,2.18-.96,6.57-2.93,12.29-5.73,3.18-1.56,6.04-2.56,8.35-3.2.06.04.11.08.15.11.17.15.23.29.24.36-.03.01-.06.02-.1.04-3.33,1.39-6.74,4.18-9.01,6.27-2.81,2.59-8.28,8.61-13.11,13.91-1.74,1.92-3.51,3.86-5,5.47.34-4.53.6-8.97.56-12.4ZM107.19,223.04c.37-.27.76-.54,1.15-.81-.27.26-.53.52-.79.79-.12.13-.24.25-.35.37,0-.12,0-.23-.01-.35ZM108.06,157.48c-.08-1.85-.2-3.79-.33-5.83-.46-7.19-.94-14.62.57-19.61,1.92-6.34,2.45-7.53,2.46-7.54.05-.1.02-.22-.06-.29-.05-.04-.1-.06-.16-.06-.05,0-.1.01-.14.04-.02.01-.24.16-.62.41,2.36-1.68,4.78-3.4,6.49-4.62-.23,1.15-.71,3.11-1.18,5.03-1.05,4.28-2.35,9.6-2.6,12.31-.21,2.35-.17,6.82-.13,11.56.04,4.63.09,9.43-.13,12.11-.16,2.01-.74,5.49-1.35,9.17-1.03,6.21-2.2,13.25-1.88,16.15l.13,1.15c.53,4.92,1.52,14.07,3.89,19.6,2.24,5.22,2.63,8.96,2.69,9.73-.43.27-1.77,1.11-3.45,2.21-.41.18-.71.31-.9.39-.73-2.33-6-19.41-6.63-27.26-.36-4.45.68-11.52,1.68-18.36.93-6.32,1.8-12.3,1.64-16.27ZM115.77,217.41c7.58-4.47,16.09-7.14,16.2-7.17.12-.03.23-.06.33-.08-2.13.65-4.65,1.58-7.4,2.93-3.67,1.8-6.79,3.25-9.13,4.32ZM106.1,237.11c-.06.06-.12.12-.17.19,0-.04,0-.09,0-.13.05-1.27-.4-2.39-.84-3.48-.94-2.31-1.9-4.7,1.62-8.98,0,3.47-.27,7.91-.62,12.41ZM105.85,238.11c.06-.07.13-.14.19-.21-.12,1.48-.24,2.97-.35,4.42-.2,2.47-.4,4.9-.55,7.11-.42-.08-.79-.2-1.09-.34-.5-.23-.82-.53-.93-.88-.27-.8.39-2.57,1.08-4.45.66-1.8,1.4-3.8,1.65-5.66ZM106.19,242.36c.13-1.66.27-3.35.4-5.04,1.34-1.45,3.12-3.39,5.43-5.93,4.82-5.3,10.28-11.3,13.07-13.88,2.24-2.07,5.6-4.82,8.87-6.18.09-.04.15-.06.18-.08.16-.08.31-.31.17-.67-.05-.13-.13-.26-.25-.39,0,0,0,0,0,0,.57.47,1.19.84,1.74,1.11.39.19,1.34.59,1.82.38.3-.13.74-1.09,1.19-2.4.14-.02.26-.03.35-.03-.49.63-1.09,2.22-2.13,5.96-.16.59-.32,1.16-.48,1.73-1.36,4.96-2.65,9.65-6.3,15.74-3.87,6.46-11.69,12.71-17.09,15.31-.38.18-.77.35-1.16.51-2.48.98-4.74,1.22-6.37,1.02.15-2.22.35-4.66.56-7.15ZM134.67,210.03c1.54-.38,2.75-.58,3.57-.69-.36,1.03-.67,1.75-.83,1.87-.13.06-.61,0-1.4-.37-.44-.21-.9-.49-1.34-.81ZM138.98,208.76c.03-.1.06-.2.09-.3.01.11.02.2.04.29-.04,0-.08,0-.13.01ZM139.78,209.36s.17.08.33.34c-.71,1.56.05,5.14.58,7.45-2.28,1.61-4.85,3.72-5.04,6.02-.02.2-.04.43-.08.71-.29,2.51-.97,8.38,3.71,13.61,2.41,2.69,4.04,4.83,5.08,6.29-1.57-.28-17.4-2.18-20.71-2.58,2.75-2.51,5.27-5.37,7.01-8.27,3.69-6.15,4.99-10.87,6.36-15.86.16-.57.31-1.15.48-1.73.45-1.61,1.65-5.9,2.28-5.98ZM139.53,208.1c.1.21.28.49.51.82-.08-.04-.16-.06-.26-.06-.02,0-.05,0-.08,0-.03,0-.06,0-.08.02-.03-.26-.07-.52-.1-.78ZM148.76,218.96c.54.44.79.56.99.47.11-.05.18-.15.18-.28.04-1.03-6.14-8.32-7.87-9.28-.32-.18-.58-.23-.78-.17-.07-.1-.14-.19-.21-.28.04-.01.09-.02.13-.02.51-.05,1.15-.16,1.83-.28,2.1-.36,4.99-.85,6.29.12.41.3.64.73.71,1.3.41,3.33,3.38,10.3,5.82,11.84,2.15,1.36,2.94,4.11,2.53,5.42-.06.2-.11.23-.11.23-.13.02-.62-.4-1.01-.74-.78-.67-1.95-1.69-3.71-2.61-.5-.26-1.02-.52-1.54-.79-3.27-1.66-6.65-3.38-7.72-5.73l-.26-.56c-.35-.76-1.01-2.21-1.59-3.63-.16-1.03-.59-2.08-1.02-2.93-.03-.12-.05-.23-.06-.33,2.32,2.95,6.04,7.16,7.4,8.27ZM141.7,210.24s.08.04.12.06c1.67.93,6.4,6.65,7.42,8.4-.05-.04-.1-.08-.16-.13-2.02-1.65-5.33-5.68-7.38-8.33ZM141.96,214.09c.14,1.03-.03,2.02-.83,2.73-.46-2.01-1.09-5.07-.69-6.57.17.29.36.63.55,1.01.16.71.49,1.65.97,2.83ZM141.21,220.51c.28,2.85.95,9.51-.11,12.73-.06.17-.1.29-.14.36-.71-1.51-.62-12.76.09-14.89.03.14.05.24.05.27-.02.14.01.5.11,1.53ZM139.49,199.72s0,0,.02,0c.02,0,.04,0,.09.03.12.07.32.31.37,1.14.07,1.24-.24,3.07-.68,4.85-.26-3.08-.26-5.72.2-6.02ZM113.72,248.69c.38-.2,1.31-.82,2.48-1.61,1.88-1.26,5.04-3.37,5.46-3.4.67.33,16.22,3.34,18.11,3,.2-.03.36,0,.49.12.66.55.67,2.63.67,4.01,0,.5,0,.92.03,1.23-.69.14-1.24.32-1.45.55-.14.15-.18.33-.1.51.29.65.73,2.46.37,3.02-.06.08-.12.12-.22.12-.15,0-.5.01-1,.03-3.2.13-12.95.52-18-.88-2.85-.78-5.02-1.28-6.56-1.28-.79,0-1.41.13-1.88.42-.03.02-.06.04-.09.06.32-2.27,1-5.52,1.68-5.89ZM120.43,255.86c5.12,1.41,14.93,1.02,18.15.89.49-.02.83-.03.98-.03.27,0,.5-.12.64-.35.54-.84-.11-2.99-.33-3.44.09-.15.56-.3,1.21-.42.15.25.51.41.93.51.14,1.59.35,3.11.68,4.1-1.29.03-2.57.07-3.82.11-4.76.17-9.68.34-15.27-.5-6.84-1.03-9.95-1.59-11.15-1.82,1.23-.7,4.08-.13,7.99.95ZM141.74,252.41c.07,0,.15-.02.23-.03,0,.04,0,.07,0,.11-.03,0-.06-.02-.09-.03-.06-.02-.1-.04-.14-.05ZM142.47,252.33c1.14-.1,2.38-.08,3.1.16-.6.15-2.04.25-3.08.1,0-.09-.01-.18-.02-.26ZM142,246.01c-.13.01-.22.12-.23.25,0,.52-.01,3.03.15,5.63-.16.02-.32.04-.47.06-.02-.29-.02-.71-.03-1.15,0-1.64-.01-3.69-.85-4.39-.25-.21-.55-.29-.9-.23-1.88.33-17.12-2.67-17.8-2.96-.13-.07-.37-.02-.81.19.7-.56,1.4-1.15,2.09-1.76,0,0,.01,0,.02,0,5.7.68,20.62,2.49,21.15,2.63.01,0,.14,0,.38,0,.37.53.64.95.83,1.23.28.42.39.58.5.61-3.01-.21-4-.12-4.05-.11ZM145.31,244.26c.19,0,.39-.01.63-.02,0,.14-.02.28-.02.4-.01.19-.02.34-.03.48-.15-.22-.34-.51-.57-.85ZM145.01,243.82h0c-1.03-1.47-2.74-3.75-5.35-6.67-4.54-5.06-3.9-10.57-3.59-13.22.03-.28.06-.52.08-.72.14-1.62,1.58-3.34,4.67-5.54v.04c.03.1.06.19.08.29-.03.03-.05.05-.08.08-1.1,1.27-1.04,14.23-.25,15.8.13.26.31.3.42.3.24-.02.41-.25.59-.8,1.08-3.32.41-10.06.13-12.93-.07-.67-.13-1.3-.12-1.4.02-.11,0-.29-.13-.83.02,0,.03,0,.05,0,.56.11,1.33,2.43,2.41,5.65.28.85.6,1.79.94,2.8,1.68,4.9,1.32,13.39,1.11,17.13-.38.01-.7.02-.95.02ZM167.66,139.66c.53,1.13.8,2.37.71,3.79-.32,4.98-1.35,6.47-3.01,8.47-1.04,1.26-1.11,2.18-1.15,2.68,0,.05,0,.12-.02.17-.03,0-.08-.02-.14-.05-.34-.13-1.37-.69-2.67-1.53,1.87-2.64,4.12-7.82,6.29-13.53ZM167.59,138.46c-1-1.62-2.46-3.06-4.04-4.61-.64-.63-1.31-1.28-1.96-1.97-1.14-1.2-1.75-2.54-2.09-3.88.49.51,1.02.95,1.59,1.27,1.92,1.08,4.04.62,5.9.21,1.19-.26,2.22-.49,2.95-.25.31.1.58.2.81.3-.99,2.91-2.06,5.98-3.17,8.94ZM171.38,129.25c.38-1.12.75-2.22,1.09-3.27-.14,1.12-.17,2.03-.18,2.69-.01.47-.02.85-.07,1,0,0,0,.02,0,.02-.07-.03-.18-.09-.28-.15-.14-.08-.32-.18-.55-.29ZM168.36,113.64c.43-.46.49-1.15.16-1.81-.29-.58-.91-1.13-1.65-1.04-.48.06-.83.53-1.33,1.19-.89,1.19-2.24,3-5.36,3.99-2.48.78-3.73.8-4.35.68-.42-.24-.66-.39-.67-.4-.09-.06-.2-.05-.29.01-.08.06-.12.17-.09.27.01.04.09.26.42.44.12.06.26.12.44.16.4.23.94.52,1.59.84-.95-.2-2-.7-2.99-1.31-.13-.28-.27-.55-.42-.78-.76-1.18-3.15-3.89-3.92-3.59-.12.04-.31.18-.24.57.14.86,2.02,2.74,4.17,4.1.63,1.42,1,3.4.6,4.43-.13.35-.34.55-.63.63-.72.19-1.45.08-2.11-.31-.67-.4-1.57-1.28-2.05-3.21-.29-1.14-1.08-1.97-2.04-2.6-.24-.79-.94-1.53-1.98-2.09-.87-.47-1.65-.79-2.56-1.08.47-.31,1.41-.66,3-.94,1.24-.22,2.09-.14,3.08-.04.92.09,1.96.2,3.48.04,1.19-.12,2.56-.84,4.12-2.14.04.04.08.07.14.08.01,0,.02,0,.03,0,.12,0,.23-.09.25-.22,0-.02,0-.12,0-.24,1.27-1.12,2.65-2.59,4.18-4.47.34-.42.54-.95.64-1.53.03-.03.04-.07.05-.11.23-1.15.91-4.96-.21-5.45-.23-.1-.38-.02-.45.03-.29.22-.22.74-.05,1.91.09.64.2,1.41.23,2.18-.29-.84-.67-2.15-1.05-4-.08-.37-.12-.82-.13-1.33.44.16,2.06.85,3.05,2.77.85,1.65,1.06,3.94,1.2,5.45.06.63.11,1.13.18,1.45.15.64.66.8,1.14.95.53.17,1.13.35,1.63,1.16.99,1.61,1.69,4.25,1.69,4.27.02.06.06.12.12.15.02.01.47.27,1.12.53.71.28,1.66.02,3.38.27.59.09,1.04.19,1.41.27.1.02.19.04.28.06.08.15.16.28.24.41-.15.26-.29.57-.41.92-.14.42-.39,1.22-.73,2.29-.31.99-.71,2.23-1.16,3.66-.06-.14-.14-.27-.24-.39-.88-1.08-3.2-1.06-6.64-.9-2.48.11-5.08-.62-7.17-1.46,3.42-.79,8.21-4.02,8.9-4.76ZM158.61,118.04c-.67-.29-1.26-.58-1.76-.84.81-.05,1.93-.26,3.49-.75,3.28-1.03,4.74-2.99,5.61-4.16.4-.54.72-.97.98-1,.41-.05.89.27,1.14.77.09.18.35.78-.08,1.24-.7.75-6.16,4.38-9.38,4.75ZM153.35,116.06c-1.72-1.22-3.08-2.66-3.18-3.27.54.21,2.23,1.83,3.18,3.27ZM142.74,115.21c-.13-.09-.24-.19-.34-.32-.36-.46-.47-1.16-.46-1.96.1.03.19.05.29.08-.06.23-.04.57.37.96.37.35,1.07.64,1.96,1,.82.34,1.78.73,2.62,1.26.03.16.04.31.02.47-.07.64-.58,1.16-1.37,1.38-1.78.5-18.1.86-20.76-6.36-.18-.49-.34-.96-.48-1.42,1.78,1.37,5.31,3.46,10.93,4.31,1.44.22,4.86.73,7.06,1.09.3.17.65.28,1.06.32,1.15.12,1.24.12,1.28-.15.03-.21.04-.29-2.18-.65ZM151.77,97.88c-.16-.31-.15-.59.03-.84.04-.06.1-.11.15-.16.07.06.14.11.21.14.24.1.48,0,.63-.24.18-.3.02-.48-.04-.53-.16-.14-.42-.12-.67-.02-.2-.38-.33-.95-.22-1.44.03-.14.07-.28.11-.42.06-.22.11-.44.15-.65,1.61-.69,3.1-1.51,4.54-2.92-.76,2.14-2.19,5.54-4.1,7.42-.1.1-.21.2-.32.31-.18-.2-.34-.41-.46-.65ZM152,92.44c-.17-.2-.44-.28-.8-.24-.11.01-.2,0-.27-.02.44-.1.85-.18,1.19-.23,2.1-.32,3.95-1.53,4.89-2.26-1.51,1.74-3.1,2.69-4.83,3.46,0-.28-.03-.53-.19-.71ZM137.02,88.85s-.35-.41-.64-2.04c-.04-.25.02-.5.14-.72,1.89-.75,3.18-1.37,3.36-1.97.04-.15,0-.29-.11-.38-.47-.36-2.09.61-2.11.61-.38.23-1.08.71-1.48,1.33-.39.15-.77.3-1.09.42-2.11.81-6.71.73-7.44-.12-.36-.41-1.3-1.05-2.16-1.53.59-.18,1.3-.49,2.11-.85.63-.28,1.28-.57,1.53-.59.41-.03,1.02-.12,1.8-.24.81-.12,1.82-.27,2.93-.4,1.47-.17,3.81.14,5.37.34.75.1,1.29.17,1.56.17.69,0,1.43-.59,1.55-.89.04-.09.01-.26-.06-.33-.15-.15-.38-.05-.45-.02-.45.2-1.11-.1-2.95-1.32-1.72-1.15-3.92-1.73-5.23-2.08l-.46-.12c-.79-.22-.99-.13-1.43.17-.22.15-.53.36-1.1.61-.47.21-.83.21-1.08,0-.35-.29-.42-.92-.36-1.19.01-.05.02-.06.02-.06.07-.03.36.03.6.09.34.08.81.18,1.41.23.62.05.91-.23,1.05-.47.45-.81-.21-2.35-.82-3.19-.12-.17-.22-.34-.29-.52.01-.03.03-.05.04-.08.27-.55.59-1.17,1.48-1.51,1.24-.47,2.3.06,2.52.48.06.12.02.14,0,.16-.13.09-.34.16-.57.21-.03,0-.06-.02-.09-.03-.64-.19-1.2-.36-1.56-.13-.06.04-.26.17-.25.38,0,.07.04.2.21.29.28.13,1.02.12,1.66,0,.91.27,2.08.55,2.9-.28.48-.48.67-1.16.56-1.97-.16-1.16-.98-2.48-1.83-2.95-.11-.06-.4-.22-.62-.05-.24.19-.13.57.02,1.1.11.4.29.99.16,1.21-.02.03-.04.06-.12.08-.39.09-.91,0-1.45-.1-.84-.15-1.8-.32-2.53.2-.61.43-1.03,1.09-1.15,1.79-.06.38-.03.77.08,1.15-.18.32-.29.43-.55.4-.4-.05-.94-.26-1.45-.51,0-.01,0-.02,0-.03.01-.08,0-.15-.06-.21-.53-.61-1.26-1.32-1.66-1.25-.13.02-.23.1-.29.23-.04.09-.06.24.05.43.17.29.68.68,1.28,1.02-.03.02-.06.04-.09.06-.21.12-.53.1-.92-.05-1.39-.53-1.33-2.22-1.31-2.56.05-.6.75-2.24,1.31-3.55.17-.4.33-.78.46-1.1.52-1.27,1.6-9.75-1.38-13.4-2.51-3.08-9.09-1.16-11-.51-.34.1-.52.18-.54.19-.06.03-.11.09-.13.15,0-.94.04-1.87.08-2.05.13-.19,1.28-.97,2.01-.76.35.1,1.34.19,2.6.31,1.8.17,4.52.42,4.99.74.51.36,1.06.41,1.4.13.23-.19.54-.69,0-1.9-.71-1.61-2.41-1.78-3.78-1.93-.22-.02-.43-.04-.63-.07-1.37-.19-5.66-.33-6.79-.06-.05.01-.09.02-.12.02-.02-.28-.05-.54-.08-.77-.01-.11-.1-.2-.21-.22-.11-.02-.22.04-.27.14-.06.12-.34.77-.04,1.13.04.05.08.08.13.11.24,3.39.05,9.5-1.19,14.44-.58,2.34-1.39,3.9-2.11,5.29-.12.23-.24.46-.35.69-.05-.16-.08-.25-.08-.26-.02-.08-.09-.14-.17-.17-.03,0-.94-.3-2.28-.85,0-1.09-.03-2.43-.08-3.92,1.42-.74,2.64-1.4,3.52-2.86,1.91-3.19,1.99-8.6,2.06-12.94l.02-1.14c.07-3.95,3.77-7.77,10.41-10.76,4.14-1.86,3.96-4.2,3.79-6.45-.03-.34-.05-.69-.06-1.04.55-1.07.8-2.21.77-3.26,1.9-2.78,7.51-4.73,14.38-4.88.04,0,.08,0,.12,0,4.37,0,7.49,5.44,11.11,11.74,2.5,4.35,5.08,8.85,8.42,12.19,5.77,5.77,7.47,9.53,8.15,14.05-3.2-1.18-6.73-3.08-10.29-6.51-2.45-2.36-4.05-4.79-5.19-7.18.47-1.19.66-2.32.47-3.16-.07-.33-1.11-4.85-4.2-8.6-1.05-3.2-2.57-5.94-6-7.96-6.98-4.11-12.75-1.24-14.9.19-1.21.81-2.46,1.97-2.39,2.55.15,1.16.7,1.46,11.94.73,5.11-.33,8.58,1.97,10.9,4.74.39,1.19.72,2.45,1.06,3.76.64,2.46,1.32,5.1,2.57,7.78-.29.69-.67,1.4-1.12,2.09-1.69-2.23-3.36-4.25-4.93-5.69-2.64-3.6-6.31-7.17-10.86-8.08-8.91-1.77-9.08-3.34-9.09-3.42,0,0,0-.02,0-.02.03-.13-.04-.26-.17-.3-.13-.04-.26.03-.31.16,0,0,0,.02,0,.04-.05.21-.36,1.84,1.16,3.77.66.85,2.64,1.37,5.37,2.1,3.86,1.03,9.14,2.43,12.88,5.51.22.18.45.38.68.59,1.94,2.66,3.31,5.34,4.05,6.94-.09.1-.19.21-.28.31-2.07-1.32-6.09-3.64-8.33-3.26-2.2.38-9.04,2.09-9.39,3.15,0,.02-.69,2.34.02,2.87.16.12.44.19.87-.12,1.23-.88,7.6-3.87,9.89-3.78,1.35.05,3.93,1.09,5.92,2.09-1.44,1.18-2.86,1.66-4.06,1.34-1.35-.36-2.8,0-4.12.63-2.87.34-3.68,1.66-4.3,2.68-.09.15-.18.3-.28.44-.08.12-.23.33-.05.49.18.16.29.07.8-.36.7-.6,2.25-1.92,4-2.76.61-.06,1.31-.08,2.14-.04,4.35.21,5.79,2.62,6.13,3.38l-.76.3c-.53-.51-2.74-2.5-5.05-3.02-.27-.06-.54-.1-.79-.12-.04-.02-.09-.04-.13-.06-.97-.37-2.71.01-3.46.76-.43.43-.68.98-.91,1.5-.18.39-.35.77-.58,1.08-.17.23-.43.54-.68.85-.83,1-.92,1.11-.72,1.31.19.19.4,0,.68-.22.7-.58,1.93-.44,3.8-.23.6.07,1.25.14,1.98.2,2.31.2,5.18-.8,6.75-1.55-.05.33-.25.75-.84,1.09-.31.18-.6.41-.92.65-1.06.82-2.26,1.75-4.78,1.18-.05-.01-5.52-1.22-5.79-.51-.02.06-.07.25.19.4.23.13.66.2,1.41.31.94.15,2.53.39,2.76.86.24.48.55.77.92.87.38.1.82,0,1.29-.33.89-.59,1.16-.65,1.21-.62.02.15.08.26.18.32.16.11.34.05.49.01.24-.07.29-.08.36.15.28.92.53,1.32.86,1.39.13.03.33.01.52-.22.26-.3.34-.65.41-.91.03-.11.06-.26.08-.28.02,0,.07,0,.11-.01.18,0,.61-.03.61-.68,0-.31-.12-.57-.21-.78-.15-.34-.13-.35-.03-.41.1-.06.2-.16.25-.3.08.04.18.08.28.13l.13.06c.48.22.87.26,1.18.25.07.09.13.18.21.27.52.68,1.24,1.6,1.21,2-.1.09-.69-.04-1.01-.11-.71-.16-1.45-.33-1.65.22-.1.27,0,.54.25.74-.22.13-.41.29-.43.5-.01.11,0,.32.31.47.11.05.23.12.36.2-.42.1-.87.13-1.23-.02-.89-.37-2.21-.22-2.48.27-.09.17-.09.41.2.61.32.23.54.88.47,1.38,0,0,0,.02,0,.03-.34-.05-.72-.04-1.18.14-.24.09-.75.29-.63.65.16.48,1.34.23,1.62.14.2-.06.36-.18.48-.35.08.02.16.05.24.08.18.06.37.12.57.16,0,.03.02.06.04.09.07.14.18.23.32.27.18.05.39.02.64-.01.64-.08,1.07-.1,1.23.48.13.46-.04.73-.15.85-.07.08-.14.12-.2.15.12-.24.16-.48.1-.66-.05-.17-.18-.29-.35-.33-.08-.02-.34-.08-.49.11-.16.2-.05.46.07.73.02.05.05.11.07.17-.02.02-.04.05-.06.07-.17.19-.64.61-1.36.4-.87-.26-1.62,0-1.99.39-.21.22-.28.46-.21.67.04.12.17.33.56.38.36.05.67-.04.9-.18,0,.01.02.02.02.04.3.44.71,1.05.65,1.73,0,.1-.03.2-.05.29-.02,0-.04,0-.07,0-.69,0-1.41.02-1.41.69,0,.39.24.65.6.67.42.02.94-.31,1.22-.87.35-.01.72-.04,1.08-.14.01.55.21.95.6,1.19.76.46,1.03,1.21.97,1.57,0,.06-.03.13-.07.14-.21.05-.55.05-.98-.01-.12-.02-.29.05-.33.17-.27.12-.9.31-1.4.29.01-.02.02-.04.03-.06.22-.46.45-.94.2-1.3-.21-.32-.59-.4-.94-.2-.44.25-.7.9-.38,1.54.09.17.22.3.41.39-.06.21-.08.41,0,.6.07.18.22.32.43.4.37.15,1.14.28,1.81.34-.04.09-.07.18-.09.28-.13.55-.03,1.19.42,1.3.4.1.62.24.64.26,0,0-.02.04-.14.11-.27.16-.51.14-.72.11-.18-.02-.54-.06-.61.31,0,.01-.13.7-.09,1.36-.2.18-.37.43-.48.79-.22.73.11,1.08.33,1.23.08.05.17.1.26.13-.27.24-.47.55-.53.87-.11.54.17,1.02.77,1.32.71.36,1,1,.96,1.42-.17-.25-.38-.44-.53-.48-.14-.03-.3.02-.42.15-.13.15-.23.41-.13.68.05.15.22.42.71.5.08.01.15.01.22,0,.01.05.02.11.02.16,0,.2-.1.34-.31.45-.63.32-.92.46-.97.72-.03.21.11.36.33.57l.14.13c.46.44.68.72.65.82,0,0-.01.02-.07.04-.46.18-1.01.48-1,.86,0,.11.05.31.37.43.06.02.11.29.13.44.01.08.03.17.05.26-3.53.88-9.07,2.82-12.24,4.35-3.78,1.83-8,0-9.89-1.38-.76-.55-1.15-1.49-1-2.45.19-1.3,1.23-2.36,2.85-2.92,1.27-.44,2.55-.58,3.65-.58,1.84,0,3.2.38,3.22.39.11.03.22-.01.28-.11.06-.09.05-.22-.03-.3ZM137.26,85.24c.68-.56,1.54-.95,1.99-1.06-.33.31-1.12.69-1.99,1.06ZM136.13,69.29c-.04-.15-.1-.34-.12-.47,0,0,0,0,0,0,.64.35,1.42,1.48,1.58,2.59.06.45.04,1.09-.42,1.55-.45.45-1.07.47-1.69.34.01,0,.02-.01.03-.02.27-.19.33-.5.16-.81-.34-.65-1.66-1.28-3.14-.72-.8.3-1.22.81-1.5,1.28,0-.11,0-.22.03-.33.09-.57.44-1.11.94-1.46.56-.4,1.37-.25,2.16-.11.6.11,1.16.21,1.65.09.19-.04.34-.15.44-.31.24-.4.05-1.04-.11-1.6ZM120.16,55.11c-.02-.05-.05-.1-.1-.13,1.45.51,2.52,1.62,3.24,2.37.27.28.47.49.63.6.14.09.18.16.19.17-.04.03-.18.07-.37.02-.59-.15-1.66-.06-3.09.25-1.32.29-3.78.82-4.93.16-1.18-.69-1.55-1.12-1.49-1.81.03-.38.94-.86,1.74-1.16-.12.52-.2,1.35.22,1.97.34.49.93.74,1.75.74.94,0,1.61-.28,2.01-.82.67-.94.23-2.3.21-2.36ZM114.18,55.55c.1.12.22.17.36.17-.22.14-.41.29-.56.46.03-.3.05-.59.08-.88.03.11.07.2.12.25ZM114.16,48c.06,0,.13-.02.2-.04,1.01-.24,5.17-.13,6.61.07.2.03.42.05.65.07,1.3.13,2.77.29,3.37,1.63.34.77.3,1.19.14,1.31-.15.13-.48.06-.79-.15-.53-.37-2.59-.59-5.23-.83-1.13-.1-2.2-.2-2.51-.29-.13-.04-.26-.05-.39-.05-.73,0-1.57.46-1.97.82,0-.94-.03-1.8-.08-2.54ZM119.54,57.18c-.29.41-.83.61-1.6.61-.64,0-1.09-.18-1.33-.53-.5-.72-.03-1.97-.03-1.99.03-.09.01-.19-.05-.26,0,0,0,0,0,0,.18-.06.37-.11.57-.15-.41.6-.4,1.35.02,1.83.3.34.87.56,1.58.19.53-.28.64-.63.65-.87,0-.38-.26-.75-.57-1.07.41.12.78.32.94.41.08.28.28,1.21-.17,1.82ZM117.51,55.14c.1-.14.24-.23.39-.27.46.33.95.79.94,1.13,0,.16-.13.3-.38.44-.39.21-.75.18-.98-.08-.22-.25-.31-.74.02-1.22ZM117.51,54.15c-.07.03-.12.08-.14.15-.91.14-1.61.45-2.13.67-.27.12-.61.25-.68.24-.13-.18-.17-1.08-.18-2,0,0,0,.02.01.03.05.12.19.18.32.13.01,0,.19-.07.5-.17.65-.18,1.98-.42,4.12-.26.72.06,1.41.28,2.03.6-1.87-.18-3.73.55-3.85.6ZM128.36,21.03c.02.09.08.16.16.18.08.03.17.01.24-.05.07-.06,6.87-5.65,17.1-4.22,6.02.84,10.94,8.06,15.69,15.04,3.42,5.02,6.65,9.77,10.19,12.04,7.87,5.07,8.51,7.55,9.96,17.04-1.27-.73-3.02-1.11-5.05-1.54-1.78-.38-3.82-.82-6.03-1.59-.66-4.73-2.34-8.6-8.33-14.59-3.3-3.3-5.86-7.77-8.34-12.09-3.73-6.49-6.96-12.09-11.67-11.99-6.65.15-12.16,1.99-14.44,4.66-.03-.2-.07-.39-.12-.58-.46-1.67-1.73-2.68-3.38-2.72-2.37-.05-3.64,1.35-5.41,3.29-1.61,1.75-3.61,3.94-7.23,6.02-5.64,3.26-6.96,7.99-6.73,13.54-1.18,1.12-2.36,2.36-3.46,3.67-.26-3.11.82-5.51,2.6-8,3.03-4.24,3.61-7.99,4.38-14.24.22-1.81,1.25-3.38,3.07-4.68,3.4-2.43,9.21-3.48,13.83-2.51,1.33.28,2.46.18,3.42-.17-.73,2.08-.46,3.38-.45,3.47ZM154.34,44.67c1.15,2.31,2.74,4.65,5.11,6.93,3.72,3.58,7.4,5.53,10.72,6.71.2,1.52.3,3.15.41,4.97l.05.77c.05.82.07,1.59.05,2.32-.87-1.29-2.14-2.4-3.69-3.15-2.77-1.34-6.35-6.36-10.14-11.68-1.19-1.67-2.4-3.36-3.59-4.95.43-.63.79-1.28,1.09-1.92ZM154.31,43.42c-1.1-2.49-1.74-4.94-2.33-7.24-.22-.85-.44-1.69-.67-2.49,2.39,3.39,3.22,7.04,3.29,7.33.14.64.03,1.48-.28,2.41ZM127.39,24.54c-.22.34-.38.69-.5,1.04-.24.74-.29,1.48-.27,2.19-.53.99-1.33,1.91-2.43,2.61-1.73,1.09-3.38,2.19-4.97,3.27-2.69,1.8-5.46,3.67-8.81,5.58-1.38.79-3.16,2.15-4.98,3.83-.16-5.27,1.19-9.6,6.51-12.67,3.68-2.13,5.71-4.34,7.35-6.12,1.72-1.88,2.87-3.13,4.93-3.13.03,0,.07,0,.1,0,1.44.03,2.51.89,2.91,2.35.09.32.14.68.16,1.04ZM105,44.16c.12,1.98.42,4.07.78,6.22.68,4.09.98,8.71,1.11,12.43-.2.1-.41.21-.62.33-.72-3.4-1.75-7.39-3.09-10.27-.88-1.88-1.39-3.53-1.6-5.01,1.07-1.31,2.23-2.56,3.41-3.71ZM106.43,66.58c-.78-.35-1.63-.78-2.51-1.27.69-.58,1.36-1.02,2-1.4.2.96.36,1.87.51,2.66ZM106.38,63.65c.18-.1.36-.19.53-.28.04,1.29.06,2.46.07,3.43-.16-.92-.36-1.99-.6-3.15ZM106.27,50.3c-.39-2.32-.71-4.52-.81-6.58,1.87-1.77,3.73-3.21,5.2-4.05,3.36-1.92,6.15-3.79,8.84-5.6,1.59-1.07,3.24-2.18,4.96-3.26.94-.59,1.67-1.32,2.21-2.12,0,.1.02.21.02.31.17,2.28.32,4.24-3.49,5.96-4.83,2.17-10.6,5.87-10.7,11.2l-.02,1.14c-.06,4.29-.15,9.62-1.99,12.69-.76,1.27-1.8,1.88-3.11,2.56-.13-3.69-.44-8.23-1.11-12.26ZM149.99,31.31c-2.2-2.27-5.27-4.04-9.48-4.04-.33,0-.67.01-1.01.03-10.31.67-11.32.45-11.42-.28.02-.3,1.19-1.62,3.27-2.73,2.45-1.3,7.43-2.96,13.27.48,2.87,1.69,4.35,3.93,5.37,6.54ZM149.61,42.85c.99,1.12,2,2.39,3.03,3.75-.18.26-.37.51-.57.75-.54-1.14-1.36-2.75-2.45-4.5ZM152.02,48.46c-.05-.04-.11-.07-.17-.11.03-.03.05-.06.08-.09.03.07.06.14.09.2ZM146.29,39.09c-3.72-2.63-8.5-3.9-12.07-4.85-2.44-.65-4.55-1.21-5.11-1.92-.79-1.01-1.03-1.91-1.09-2.52.87.83,3.2,1.94,9.02,3.09,3.71.73,6.82,3.31,9.25,6.2ZM151.23,54.81c-.17-.45-1.52-3.64-6.66-3.89-.24-.01-.46-.02-.68-.02.79-.21,1.58-.26,2.33-.06,1.4.37,3.05-.18,4.67-1.57,1.1.58,1.94,1.11,2.17,1.4.54.67-1.06,3.47-1.51,3.92-.05.05-.16.13-.33.22ZM151.02,48.47c-.07.06-.13.13-.2.19-2.07-1.07-4.81-2.18-6.32-2.23-2.5-.07-9.09,3.09-10.2,3.88-.19.13-.27.13-.28.12-.23-.17-.11-1.52.15-2.3.28-.57,5.58-2.23,9-2.81.15-.03.3-.04.47-.04,2.1,0,5.52,1.96,7.42,3.17l-.04.03ZM140.74,51.81c-.75.48-1.42,1-1.95,1.43.4-.55.95-1.08,1.95-1.43ZM141.4,54.35c.28.53.8.83,1.4.82.52-.02.97-.29,1.16-.7.18-.4.09-.93-.25-1.39-.17-.24-.4-.43-.64-.56.25-.05.53-.08.84-.07.17.14.32.39.43.73.22.66.22,1.47,0,1.81-.23.36-.79.77-1.43.83-.6.07-1.18-.16-1.7-.69-.47-.47-.64-.92-.5-1.33.11-.31.39-.57.71-.75-.23.42-.25.9-.04,1.29ZM141.98,53.15c.09-.12.21-.23.37-.33.37.02.72.22.97.56.22.31.3.65.19.89-.11.24-.39.4-.72.41-.41,0-.75-.19-.94-.55-.16-.29-.11-.65.13-.97ZM140.87,55.5c.79.79,1.58.89,2.11.83.82-.09,1.51-.61,1.79-1.06.34-.54.29-1.53.05-2.24-.06-.18-.13-.35-.21-.49.05,0,.1.02.15.03,2.32.52,4.63,2.71,4.9,2.97-1.56.62-3.78,1.26-5.56,1.11-.72-.06-1.37-.13-1.97-.2-.89-.1-1.64-.19-2.28-.19-.43,0-.81.04-1.14.14.25-.31.52-.63.69-.86.27-.36.45-.77.63-1.17.05-.11.1-.22.15-.33-.02.39.13.9.69,1.46ZM151.09,57.68c-.17-.03-.37-.08-.59-.19l-.13-.06c-.17-.08-.3-.14-.41-.18.08-.05.16-.1.23-.15.17-.1.32-.21.45-.32,0,.03,0,.05.01.08.04.21.19.47.43.81ZM149.22,58.68c.08.18.17.37.17.57,0,.13-.02.17-.02.17-.02,0-.08.01-.12.01-.12,0-.29.01-.43.15s-.18.32-.22.53c-.05.23-.12.49-.3.7-.02.03-.04.04-.05.05-.04-.03-.22-.18-.48-1.04-.14-.44-.4-.54-.64-.54-.14,0-.26.04-.34.06-.01,0-.03,0-.05.01-.03-.11-.08-.19-.13-.25,1.1-.19,1.86-.71,2.51-1.21-.14.27,0,.57.09.79ZM145.62,59.18c-.24.12-.52.3-.84.51-.35.23-.65.32-.89.26-.23-.06-.43-.27-.6-.61-.18-.36-.64-.59-1.28-.77.65.11,1.37.25,2.15.42.54.12,1.02.18,1.46.19ZM152.31,57.56c-.13,0-.27.03-.39.06-.07.02-.14.03-.21.05-.28-.37-.51-.72-.54-.89-.02-.11.01-.14.03-.15.18-.12.78-.02,1.25.28.54.34,1.1,1.61.83,2.36,0-.04,0-.08-.01-.12-.05-.42-.12-.93-.35-1.26-.18-.26-.39-.34-.59-.34ZM152.73,59.03c-.19-.26-.41-.55-.65-.87-.01-.02-.03-.04-.04-.06.31-.07.35-.07.46.08.13.19.19.54.24.85ZM149.25,65.13c.03-.16.1-.4.23-.75,0,0,.16-.04.65.31.07.05.06.07.06.09-.04.12-.35.35-.93.35h0ZM147.63,68.72c-.12.08-.31.16-.57.12-.11-.01-.15-.04-.16-.05,0-.02.02-.1.15-.21.13-.11.33-.22.58-.26-.02.03-.03.05-.04.08-.03.1-.02.21.03.32ZM148.25,71.71c-.2.24-.43.37-.6.35-.05,0-.12,0-.12-.17,0-.14.22-.17.72-.19ZM148.3,74.63c-.03.06-.05.11-.08.17-.07-.04-.11-.09-.14-.15-.21-.41-.02-.76.19-.88.05-.03.1-.04.13-.04.08,0,.13.06.14.09.09.13-.1.52-.24.81ZM150.61,86.44c-.1-.02-.21-.07-.23-.17-.01-.04,0-.08,0-.11.06.06.15.16.22.28ZM150.62,91.51c-.05-.33-.11-.71-.45-.83h0c.09-.08.29-.22.65-.36.26-.1.35-.28.37-.4.08-.4-.31-.81-.8-1.28l-.17-.17s-.07-.07-.1-.1c.13-.09.44-.24.65-.35.42-.21.63-.58.58-1.04,0-.09-.03-.18-.06-.27.07-.08.12-.18.16-.29.21-.67-.17-1.66-1.19-2.17-.4-.2-.57-.46-.51-.77.07-.34.41-.7.77-.85.28,0,.52-.05.6-.11.08-.07.12-.19.08-.29-.08-.19-.27-.17-.43-.16-.11,0-.22.03-.33.07-.25,0-.54-.06-.69-.21-.05-.05-.19-.19-.06-.62.03-.11.07-.21.12-.29.06.18.16.33.29.42.16.11.43.19.83-.06.52-.32.49-.68.45-.82-.08-.3-.42-.52-.83-.52-.11,0-.24.01-.36.05,0-.32.03-.65.07-.9.03,0,.05,0,.08,0,.23.03.61.07,1.03-.18.35-.21.39-.43.37-.59-.06-.4-.66-.61-1.01-.7-.08-.04-.16-.45-.01-.85.03-.08.07-.16.12-.22.33,0,.58-.02.66-.09.07-.06.1-.17.08-.26-.04-.17-.22-.22-.35-.25-.21-.05-.4-.01-.57.09-.61-.03-1.53-.14-2.01-.33-.12-.05-.14-.1-.15-.12-.03-.07-.01-.17.02-.29.3.03.67,0,1.08-.1.52-.12.79-.24.92-.34.25.03.69.06,1.02-.02.24-.06.4-.26.44-.55.09-.59-.3-1.52-1.2-2.07-.26-.16-.38-.46-.36-.9,0-.02,0-.04,0-.05.05-.03.11-.06.16-.09,1.05-.63,1.26-1.58,1.07-2.02-.1-.24-.33-.36-.57-.29-.41.12-.97,1.14-1.13,2.05-.3.11-.63.15-.95.17.02-.07.03-.15.03-.23.08-.86-.41-1.58-.73-2.06-.02-.04-.05-.08-.08-.12.01-.02.02-.04.03-.06.08-.15.09-.29.05-.4.05.01.1.02.15.04.65.2,1.3.03,1.79-.45.01-.01.02-.02.04-.04.02.01.04.02.06.03.23.08.55-.03.79-.26.17-.16.53-.61.32-1.38-.2-.73-.73-.88-1.22-.88.2-.12.35-.28.4-.46.08-.24-.01-.48-.24-.65-.46-.33-.82-.45-1.08-.38-.15.04-.26.15-.32.3-.11.28-.22.59-.27.86-.14-.03-.27-.08-.4-.12-.07-.02-.13-.04-.2-.07,0-.02,0-.04.01-.07.11-.69-.19-1.53-.67-1.86,0,0,0,0,0,0,.23-.15,1.1-.3,1.81,0,.6.25,1.35.13,1.98-.09.1.06.2.12.3.18.65.38,1.07.5,1.37.39.17-.06.3-.18.37-.36.25-.59-.01-1.13-.39-1.36-.27-.16-.57-.13-.74.08-.08.1-.42.32-.86.5-.02-.01-.04-.02-.06-.04-.24-.15-.46-.29-.68-.41.09-.08.29-.17.49-.25.4.11.85.14,1.02-.03.11-.1.12-.26.05-.39-.12-.2-.39-.25-.84-.16,0,0-.1.02-.23.06-.13-.05-.26-.11-.33-.19-.07-.07-.06-.11-.04-.14.05-.13.79.04,1.07.1.6.14,1.11.25,1.42.03.09-.06.19-.18.21-.39.01-.14-.02-.29-.08-.47.15-.06.25-.22.3-.32.6-.98-.13-2.72-.91-3.21-.46-.29-1.1-.48-1.55-.38.12-.28.16-.55.16-.79.29-.16.5-.3.59-.38.39-.39,2.39-3.54,1.55-4.59-.26-.32-1.08-.86-2.17-1.45.03-.02.05-.05.08-.07.04-.04.08-.08.12-.12.57.37.93.63.95.64.09.06.21.06.3,0,.09-.07.12-.18.08-.29,0-.03-.19-.47-.52-1.21.23-.27.45-.55.66-.83,1.16,1.55,2.33,3.19,3.49,4.81,3.83,5.37,7.45,10.45,10.33,11.84,1.72.83,3.08,2.12,3.88,3.61-.2,3.49-1.15,5.97-2.38,7.82-.75.34-1.42.44-2,.3-.9-.23-1.28-.99-1.29-.99-.04-.09-.14-.14-.24-.14-.1,0-.19.07-.22.17-.01.03-1.16,3.42-2.81,7.13-1.4,3.15-2.74,5.59-3.98,7.25-.02-.03-.05-.05-.08-.07-.09-.06-.22-.05-.3.03-.02.02-2.47,2.25-5.29,2.68-.4.06-.87.16-1.39.28-.01-.07-.03-.13-.04-.22ZM150.21,80.59c.14-.06.25-.07.32-.07.2,0,.33.09.35.16.01.05-.05.15-.23.26-.06.04-.21.12-.28.07-.08-.06-.13-.21-.16-.42ZM150.56,70.7c.19-.63.52-1.18.63-1.26.02.02.05.11.03.27-.02.14-.12.58-.67.99ZM151.84,62.6c.35-.18.62-.37.73-.5.02,0,.12.02.21.13.07.08.22.31.08.64-.03.06-.05.07-.07.08-.1.04-.35,0-.94-.34ZM171.07,68.24c.19.53.31,1.08.36,1.64.16,1.86-.56,3.51-1.98,4.52-.1.07-.19.13-.29.2.93-1.63,1.64-3.68,1.9-6.35ZM162.03,82.14s-.02,0-.03,0c.05-.12.11-.24.16-.37,1.3-2.92,2.29-5.65,2.66-6.71.25.29.67.66,1.31.82.5.13,1.04.11,1.62-.06-.81,1.05-1.7,1.88-2.56,2.58-3.35,2.72-2.73,13.46-.58,18.51.99,2.32,2.65,4.1,4.4,5.99,2.21,2.38,4.5,4.85,5.63,8.62.2.67.42,1.26.65,1.76-.35-.08-.78-.17-1.33-.25-1.71-.25-2.7-.01-3.26-.24-.45-.18-.81-.36-.96-.45-.14-.52-.8-2.8-1.72-4.3-.6-.97-1.36-1.21-1.91-1.38-.49-.15-.72-.24-.8-.59-.07-.29-.12-.8-.17-1.39-.14-1.55-.36-3.89-1.25-5.63-1.04-2.02-2.69-2.78-3.27-3l1.63-13.65c.02-.13-.08-.25-.21-.28ZM152.9,98.58c2.38-2.33,3.98-6.77,4.59-8.67.07-.09.15-.17.22-.26,1.22-1.49,2.52-3.73,3.89-6.65-.52,2.57-2.26,11.7-1.59,14.95.65,3.12,1.29,4.7,1.49,5.16-.08.54-.24,1.03-.54,1.4-1.42,1.74-2.72,3.14-3.91,4.22-.03-.07-.06-.14-.11-.2-.13-.15-.32-.23-.54-.23-.56,0-1.95-.29-2.05-1-.02-.14.08-.27.18-.35.1.22.22.38.38.45.14.07.44.12.74-.3.29-.39.18-.63.1-.74-.18-.22-.55-.23-.9-.13-.08-.51-.1-1.23.08-1.96.12-.5.08-.88-.13-1.12.07-.11.13-.23.18-.38.19-.5-.03-.77-.19-.89-.13-.1-.3-.17-.49-.2,0-.04,0-.08-.01-.13-.09-.46-.58-.78-1.06-1.1-.28-.19-.6-.4-.69-.56-.01-.02,0-.06.03-.11.03-.05.08-.09.14-.14.48.34.95.52,1.19.39.05-.03.31-.19.11-.59-.14-.29-.4-.46-.73-.47-.16-.01-.35.02-.52.08-.05-.04-.11-.1-.16-.15.1-.1.21-.2.31-.3ZM154.97,106.7c.19-.06.34-.08.37-.08,0,0,0,.05-.09.17-.08.11-.13.13-.13.14-.05-.02-.1-.1-.15-.23ZM152.31,99.3c-.06.06-.11.12-.15.18-.13.2-.15.42-.06.61.14.28.49.51.86.76.37.24.79.52.84.77-.41.01-.81.11-.95.21-.09.06-.16.23-.12.34.1.31.61.3.93.22.2-.05.35-.14.46-.25.16.02.3.06.38.12.04.03.11.09.02.31-.04.11-.09.22-.15.31-.31-.07-.64.03-.83.12-.21.1-.31.22-.31.37,0,.19.17.35.43.4.25.05.54-.01.81-.23.07.17.02.43-.02.6-.17.72-.2,1.62-.06,2.29-.37.24-.57.58-.52.93.15,1.07,1.81,1.43,2.54,1.43.09,0,.13.03.16.06.05.05.07.14.09.23-1.57,1.35-2.94,2.12-4.08,2.23-1.46.15-2.44.06-3.38-.04-.98-.1-1.9-.19-3.22.04-1.81.32-2.97.75-3.48,1.26-.17-.05-.35-.1-.54-.15.05-.68.15-1.4.26-2.08l.03-.22c.29-1.92,4.89-6.17,8.24-9.28.62-.57,1.21-1.12,1.74-1.62.03.02.05.05.07.08ZM142.71,113.15c.97.3,1.79.63,2.69,1.11.63.34,1.12.75,1.43,1.18-.7-.37-1.43-.67-2.08-.94-.8-.33-1.5-.61-1.8-.9-.25-.24-.25-.39-.23-.45ZM161.69,98.22c.25.22.31,1.04.24,2.1-.03-.25-.07-.5-.1-.73-.07-.5-.16-1.11-.14-1.37ZM179.79,114.62c.22.15.42.28.58.37.47.26,1.44.37,2.68.52,1.77.21,3.98.47,5.22,1.26.03.02.11.09.15.37-.75-.11-1.8-.29-3.27-.65-1.41-.35-2.71-.37-3.86-.38-2.01-.03-3.62-.05-4.88-1.83.21-.28.44-.46.7-.56.48.07,1.35.34,2.2.69.05.02.11.02.17,0,.11.07.21.14.31.21ZM180.98,65.67l-.55,1.04c-2.74,5.16-4.25,8-8.65,12.11-2.75,2.57-4.31,7.6-3.78,12.23.34,2.95,1.47,5.12,3.19,6.11,4.57,2.64,7.8,10.01,8.05,13.14.15,1.96.1,2.94.04,3.39-.53-.31-1.12-.56-1.7-.56-.18,0-.36.02-.53.08-.27-.01-.49.03-.61.15-.1.1-.24.11-.52.06-.28-.56-.54-1.23-.79-2.04-1.16-3.88-3.49-6.39-5.74-8.81-1.72-1.86-3.35-3.61-4.31-5.85-2.3-5.39-2.46-15.57.44-17.92,1.06-.86,2.16-1.9,3.11-3.3.36-.18.74-.41,1.13-.69,1.56-1.12,2.36-2.93,2.19-4.97-.08-.92-.35-1.82-.78-2.66.05-.97.04-2.02-.03-3.15l-.05-.77c-.11-1.73-.2-3.29-.38-4.75,2.14.72,4.12,1.15,5.85,1.52,2.28.49,4.08.88,5.26,1.71.02.16.05.33.08.5l.07.48c-.21,1.11-.53,2.12-.98,2.96ZM182.51,62.38c.09.11.18.23.26.35,1.13,1.79.41,5.31-.95,8.55.78-2.29,1.16-5.12.64-8.53v-.05c.01-.11.03-.22.05-.33ZM154.05,10.01c3.5,2.47,5.31,3.83,6.9,5.03,1.49,1.13,2.78,2.1,5.1,3.72,4.48,3.13,7.65,6.85,9.68,11.39.86,1.93,1.12,5.01,1.36,8,.3,3.62.55,6.74,1.9,7.32.48.2,1.08,1.25,1.63,2.79,1.13,3.22,1.97,8.43,1.58,12.72-1.44-9.4-2.14-12.18-10.18-17.35-3.45-2.22-6.65-6.92-10.04-11.91-4.82-7.07-9.79-14.38-16.04-15.26-1.18-.17-2.32-.24-3.41-.24-7.29,0-12.35,3.3-13.71,4.29-.02-.57.04-1.71.65-3.23,2.49-1.28,3.67-4.23,4.21-5.74,5.02-4.09,14.59-5.61,20.39-1.53ZM129.82,16.46c.53-1.09,1.34-2.33,2.54-3.68.16-.18.32-.35.49-.52-.55,1.34-1.49,3.12-3.03,4.19ZM99.19,38.8c1.68-3.22,3.08-5.55,4.33-7.62,1.88-3.11,3.23-5.36,4.11-8.43,1.34-4.65,12.05-13.91,16.93-13.91.2,0,.4.02.58.05,3.94.72,7.42,1.53,8.31,1.82-.03.09-.07.2-.13.35-.02.06-.04.13-.07.2-.46.38-.88.78-1.25,1.2-1.49,1.67-2.39,3.18-2.93,4.45-.98.46-2.16.64-3.58.34-4.74-1-10.72.09-14.22,2.6-1.9,1.36-3.03,3.1-3.27,5.02-.76,6.17-1.34,9.87-4.3,14.01-1.94,2.72-3.09,5.35-2.64,8.84-.84,1.04-1.62,2.11-2.28,3.18-1-4.35-1.6-8.21.42-12.1ZM97.4,59.33c-.95-1.87-.3-4.42,1.17-7.1l.08.33c.73,3.08,1.53,6.46,1.63,10.25-1.19-1.02-2.22-2.18-2.88-3.48ZM99.13,52.45c-.07-.28-.13-.57-.2-.85.64-1.07,1.39-2.15,2.23-3.21.26,1.4.77,2.95,1.58,4.69,1.34,2.88,2.37,6.91,3.08,10.31-.75.43-1.54.94-2.36,1.65-.91-.53-1.82-1.13-2.67-1.81-.05-4.02-.89-7.57-1.66-10.79ZM102.03,66.28c-.13.09-.21.24-.25.46-.47.56-.94,1.19-1.42,1.92.08-.46.15-.94.21-1.45.14-1.15.21-2.26.22-3.33.73.56,1.5,1.06,2.26,1.52-.26.25-.53.51-.8.8-.1,0-.17.04-.23.08ZM106.38,74.21c-2.03-1.98-3.37-3.28-4.02-6.49-.08-.37-.09-.61-.09-.76.06-.06.11-.13.17-.19.11.06.28.2.54.48,1.1,1.22,2.79,4.2,3.41,6.97,0,0,0,0,0,0ZM105.84,81.15c.42-.91.85-2.19,1.17-3.96.09-.49.11-1.03.06-1.58.36.37.74.76,1.13,1.19-.48,1.83-1.47,3.31-2.37,4.35ZM108.5,74.47c0,.6-.05,1.18-.15,1.73-.48-.51-.93-.97-1.36-1.4-.56-3.48-2.98-7.57-4.21-8.42.25-.26.49-.5.73-.72,1.07.61,2.11,1.11,3.03,1.52.28,1.65.43,2.73.43,2.76.02.13.12.23.26.22.13,0,.23-.11.24-.24,0-.03.02-.9.02-2.33.98.4,1.71.64,2,.74.04.13.11.34.2.64-.7,1.49-1.22,3.06-1.19,5.5ZM114.55,93.25c.4-5.49-1.63-11.72-5.17-15.88-.21-.25-.42-.49-.62-.71.16-.69.25-1.42.24-2.19-.02-2.06.36-3.49.92-4.78.53,1.66,1.47,4.52,2.59,7.64-.02,0-.03.02-.05.02-.17.1-.38.37-.32,1.47.09,1.76,1.01,3.79,2.17,6.36.14.3.27.61.42.92.1,1.2.16,2.52.16,3.94,0,5.04.14,8.34.28,10.4-.42-1.88-.81-4.49-.61-7.19ZM112.7,77.85c.44,1.21.89,2.44,1.36,3.65.19.87.36,1.88.5,3.02-1.04-2.31-1.85-4.17-1.92-5.73-.03-.56.02-.83.06-.94ZM119.54,92.52s-.1,1.47-.28,5.9c-.06-.49-.15-.96-.25-1.4-1-4.56-2.49-8.11-3.79-11.02-.06-.77-.15-1.49-.24-2.17.88,2.13,1.76,4.06,2.57,5.46.66,1.14,1.38,2.14,2.13,3.03-.08.04-.13.12-.14.21ZM117.99,89.02c-1.07-1.85-2.28-4.65-3.43-7.61-.45-2.06-1.01-3.4-1.45-3.9-1.3-3.61-2.38-6.94-2.88-8.52.18-.38.38-.76.58-1.15.73-1.41,1.55-3,2.15-5.39.4-1.58.69-3.29.89-4.99.23.58.8,1.02,1.64,1.5,1.32.76,3.9.2,5.29-.1,1.81-.39,2.57-.33,2.86-.26.42.11.82-.02.95-.3.05-.12.13-.44-.36-.78-.12-.09-.32-.29-.56-.54-.71-.73-1.89-1.96-3.46-2.5-.41-.14-.83-.23-1.24-.26,1.06-.24,2.58-.4,3.79.2,1.34,1.05,2.19,2.28,2.21,2.3.01.02.03.04.05.05.23.19.37.13.45.04.19-.2.22-.23-1.45-2.06-.29-.31-.61-.56-.96-.74-1-.78-2.26-1.47-3.68-1.57-.39-.03-.75-.05-1.09-.05,2.58-.51,5.87-.69,7.38,1.16,2.68,3.29,1.92,11.39,1.3,12.9-.13.32-.29.69-.46,1.09-.61,1.42-1.29,3.03-1.34,3.71-.09,1.15.29,2.55,1.63,3.06.54.21.99.21,1.34.02.13-.07.22-.16.3-.25.58.29,1.18.52,1.61.57.4.05.65-.11.84-.35.06.11.13.21.2.31.69.93,1.06,2.17.79,2.64-.03.06-.14.25-.57.21-.56-.05-.99-.15-1.34-.22-.45-.1-.75-.17-.98-.02-.12.08-.2.2-.24.38-.09.42.01,1.25.53,1.68.28.23.79.43,1.6.07.61-.27.95-.5,1.17-.65.35-.24.41-.27,1.02-.1l.47.13c1.28.34,3.43.91,5.08,2.01,1.38.92,2.19,1.39,2.82,1.45-.19.11-.42.2-.64.2-.24,0-.79-.07-1.5-.17-1.58-.21-3.96-.52-5.49-.34-1.12.13-2.13.28-2.95.4-.77.11-1.37.2-1.77.23-.34.03-.94.29-1.7.64-.75.34-1.87.84-2.58.96-.42-.2-.76-.32-.9-.28-.09.02-.18.11-.21.2-.05.18.1.32.19.4.19.18.47.23.81.2.82.41,2.09,1.16,2.55,1.69.93,1.08,5.84,1.09,8,.26.22-.08.43-.16.63-.24-.04.18-.05.37-.01.56.15.85.32,1.41.46,1.75-1.14-.24-3.86-.63-6.62.33-1.8.62-2.96,1.83-3.19,3.32-.17,1.14.29,2.27,1.21,2.93,1.99,1.44,6.41,3.36,10.4,1.43,3.16-1.53,8.71-3.47,12.2-4.33.16.25.42.43.9.38.12-.01.29-.01.37.07.09.11.09.34.05.61-.59.25-1.19.48-1.81.71-1.75.67-3.74,1.43-5.93,2.76-5.28,3.2-12.6,5-15.1,2.59-.78-.75-1.74-1.45-2.85-2.25-2.51-1.82-5.64-4.09-8-8.16ZM122.52,95.15c1.1.94,2.19,1.73,3.18,2.44,1.1.79,2.04,1.48,2.79,2.21,2.75,2.66,10.29.76,15.71-2.52,2.15-1.3,4.12-2.06,5.85-2.72.51-.2,1.01-.39,1.5-.59-.02.1-.05.19-.07.29-.04.15-.08.29-.11.43-.14.6.01,1.32.28,1.8-.51.42-.63,1.02-.32,1.63.14.26.33.51.55.75-.52.49-1.11,1.04-1.73,1.61-3.6,3.33-8.08,7.48-8.4,9.57l-.03.22c-.1.68-.21,1.37-.26,2.02-.78-.2-1.68-.4-2.76-.64-1.22-.28-2.68-.61-4.5-1.04-7.36-1.77-8.75-5.94-9.2-7.3-.32-.95-.55-1.64-.81-2.06,0-.04.01-.07.02-.11.18-1.01.33-1.81.23-2.51-.14-1.01-1-2.32-1.92-3.48ZM124.05,102.09c.16.41.33.9.48,1.37,1.3,3.9,4.43,6.4,9.56,7.63,1.81.44,3.28.77,4.5,1.04,1.12.25,2.04.46,2.84.66-.02.89.08,1.68.48,2.27-1.38-.22-3.39-.52-6.32-.96-6.11-.92-9.74-3.4-11.24-4.66-.82-3.19-.61-5.53-.31-7.36ZM123.1,101.51c.22-.24.34-.28.39-.28,0,0,.01,0,.02,0,.05.01.1.05.15.12-.19,1.09-.41,2.42-.38,4.07-.05-.33-.1-.66-.15-1-.2-1.24-.4-2.52-.04-2.91ZM123.71,108.87c-.1-.1-.15-.16-.16-.16-.05-.05-.12-.08-.19-.08-.03,0-.05,0-.08.01-.02,0-.04.01-.05.02.03-.24.07-.49.12-.76.04-.21.06-.44.07-.68.07.52.16,1.07.28,1.65ZM123.56,109.43c.1.1.22.21.36.33.18.68.4,1.39.68,2.14,2.76,7.5,19.53,7.18,21.37,6.67.99-.28,1.63-.95,1.73-1.81,0-.05,0-.11.01-.16.7.54,1.25,1.2,1.46,2.04.52,2.1,1.53,3.07,2.28,3.52.76.45,1.65.58,2.49.37.44-.11.78-.44.97-.93.4-1.01.16-2.75-.36-4.19,1.17.66,2.38,1.13,3.4,1.17.17,0,.36,0,.55-.01,2.25.97,5.24,1.94,8.15,1.8,3.19-.15,5.5-.18,6.23.72.21.26.31.63.29,1.12-.66,2.04-1.42,4.38-2.26,6.85-.24-.1-.5-.2-.81-.3-.86-.28-1.95-.04-3.21.24-1.78.39-3.8.83-5.55-.15-.74-.42-1.42-1.06-2.04-1.82-.18-1.12-.21-2.23-.23-3.23-.03-1.25-.06-2.32-.36-3.11-.57-1.47-1.72-1.98-2.52-1.71-.52.17-.93.72-.7,1.55.38,1.35,1.55,4.46,3.34,6.72.29,1.7.92,3.45,2.4,5,.66.69,1.33,1.35,1.97,1.98,1.66,1.64,3.2,3.15,4.16,4.87-2.21,5.86-4.51,11.21-6.4,13.85-2.58-1.69-6.04-4.31-7.77-6.79-2.48-3.55-2.32-9.95-2.22-14.19.01-.47.02-.9.03-1.31,0-.28,0-.54,0-.79-.11-2.58-1-3.56-1.64-4.27-.2-.22-.38-.42-.48-.62-.83-1.56-1.62-3.49-1.43-4.01l-.03-.06c.08.06.19.44.29.78.39,1.3,1.12,3.71,3.93,5.66l.79.54c.12.08.24.16.36.25.36,1.07.65,2.19.86,3.33.92,5.17,6.17,11,9.02,11.05.66-.02,1.51-.27,1.81-1.66.96-4.44-6.71-9.9-11.26-13.03-1.39-4.09-3.62-7.42-4.98-8.26-.33-.2-.62-.27-.86-.2-.37.11-.66.53-1.1,1.16-1.41,2.03-4.05,5.81-12.78,4.83-9.18-1.03-11.88-5.85-12.49-7.3-.16-.38-.25-.7-.31-.96.23-.13.49-.26.75-.39,1.29-.65,1.94-5.54,2.13-7.27ZM158.69,126.18c-1.45-2.12-2.41-4.72-2.72-5.82-.13-.47,0-.82.38-.94.09-.03.18-.04.28-.04.55,0,1.23.46,1.62,1.46.28.71.3,1.75.33,2.94.02.75.04,1.56.12,2.4ZM153.45,128.59c4.49,3.11,11.38,8.18,10.52,12.14-.19.86-.61,1.28-1.31,1.27-2.63-.05-7.67-5.76-8.54-10.64-.17-.94-.4-1.87-.67-2.77ZM120.69,116.24c.19-.25.4-.36.64-.49.15-.08.3-.17.45-.28-.18.4-.37.68-.57.78-.2.1-.4.2-.59.3,0-.16.03-.27.06-.31ZM118.03,118.71c.39-.27.61-.43.63-.45.06-.04.1-.11.1-.18.07.05.17.05.26,0,.1-.05.39-.17.59-.08.13.06.22.22.26.47.3,1.78,3.15,9.4,10.78,11.43,7.33,1.95,16.59,2.38,19.28.99v3.33c-.52.48-4.43,3.55-16.09.37-13.82-3.76-15.62-11.34-15.78-12.19-.26-1.36-.13-2.89-.03-3.71ZM117.48,119.1c-.09.89-.14,2.2.08,3.41.17.88,2.02,8.74,16.14,12.58,12.9,3.51,16.51-.42,16.66-.59.04-.05.06-.1.06-.16v-3.89c0-.1-.06-.19-.15-.23-.09-.04-.19-.03-.27.04-1.68,1.45-11.08,1.35-19.24-.82-7.38-1.96-10.13-9.32-10.41-11.03-.07-.41-.24-.69-.52-.83.12-.07.25-.15.39-.23.07.28.17.58.3.9.64,1.52,3.44,6.55,12.9,7.6,9.03,1.01,11.88-3.08,13.25-5.04.34-.49.63-.9.83-.97.09-.03.26.02.45.14,1.2.74,3.19,3.69,4.54,7.34l-.58-.4c-2.67-1.85-3.37-4.15-3.74-5.39-.19-.62-.29-.96-.55-1.08-.08-.04-.2-.07-.36,0-.1.04-.24.14-.31.34-.34.95,1.16,3.84,1.46,4.41.14.25.34.48.55.71.6.66,1.41,1.56,1.52,3.96.01.24.01.49,0,.76,0,.4-.02.84-.03,1.3-.11,4.3-.27,10.8,2.31,14.48,1.78,2.55,5.26,5.19,7.88,6.91-.15.19-.29.35-.43.5-4.3,4.58-6.13,10.68-7.48,15.13-.26.88-.51,1.69-.75,2.41-.27.81-.53,1.71-.81,2.67-1.22,4.2-2.89,9.96-7.57,15.89-.82,1.04-1.66,2.08-2.48,3.11-5.19,6.48-9.67,12.07-9.05,14.38.24.89.82,1.7,1.52,2.37-.03,0-.05.01-.08.02-.41-.19-.98-.26-1.7-.05-.11.03-8.16,2.56-15.62,6.82-.09-1.04-.55-4.67-2.72-9.74-2.34-5.47-3.33-14.57-3.86-19.46l-.13-1.15c-.31-2.83.85-9.83,1.88-16.01.61-3.7,1.2-7.19,1.36-9.22.21-2.7.17-7.5.13-12.15-.04-4.72-.08-9.19.13-11.51.24-2.66,1.54-7.97,2.58-12.23.69-2.81,1.13-4.63,1.28-5.56.23-.16.43-.31.62-.44ZM97.34,117.21c-.42-5.33-1.21-15.26-.12-15.48.01,0,.02,0,.03,0,.57,0,2.98,2.44,4.93,4.4,2.56,2.58,5.46,5.5,7.79,7.06,5.69,3.8,6.37,5.39,6.45,5.79,0,.05,0,.14-.02.28-3.99,2.84-12.81,9.11-14.44,10.28-.61.44-.97.7-1.2.86-.56-1.23-2.91-6.69-3.43-13.19ZM94.95,135.39c2.33-1.9,12.41-8.6,15.07-10.36-.33.91-.99,2.87-2.2,6.86-1.54,5.08-1.06,12.56-.6,19.79.13,2.04.25,3.98.33,5.82.16,3.93-.71,9.88-1.63,16.18-1.01,6.86-2.05,13.96-1.68,18.47.67,8.44,6.67,27.44,6.73,27.63,0,.01,0,.03.02.04-1.24.83-2.58,1.73-3.83,2.63-.05-1.06-.15-1.97-.3-2.71-.54-2.71-1.64-6.19-2.79-9.88-1.89-6.02-4.03-12.84-3.93-17.13.1-4.08.57-8.17.92-10.8,1.44-4.52,1.06-11.62-1.1-20.17-1.77-6.99-3.38-12.5-4.56-16.53-1.28-4.38-2.21-7.54-1.93-8.06.17-.32,0-.45-.07-.48-.03-.02-.07-.02-.12-.01.54-.42,1.1-.84,1.66-1.3ZM101.11,178.82c.1-.82.21-1.66.31-2.4-.03.83-.09,1.61-.18,2.35-.05,0-.09.02-.13.05ZM92.94,137.45c-.02,1.01.61,3.21,1.99,7.93,1.18,4.02,2.79,9.53,4.56,16.51.89,3.5,1.47,6.76,1.75,9.68-1.16-4.49-4.25-12.09-6.91-16.51-2.99-4.95-4.36-11.82-4.66-14.2,1.37-1.61,2.64-2.87,3.28-3.42ZM91.65,137.95c-.61.6-1.32,1.37-2.05,2.23,0-.02,0-.03,0-.05,0-.47.9-1.27,2.05-2.18ZM99.09,277.62c-1.61,2.42-3.28,4.93-4.93,7.57-5.31,8.44-4.78,12.87-4.47,14.1h-16.74c.31-2.52,2.56-21.36,3.12-34.21.39-9.18,3.03-20.17,5.14-29,1.07-4.48,2-8.36,2.43-11.14l.06-.37c1.34-8.68,4.92-31.75,1.13-48.15-3.06-13.28-2.76-23.38.91-30.04.96-1.74,2.25-3.49,3.5-5,.42,2.78,1.82,9.23,4.67,13.94,3.41,5.65,7.7,17.02,7.29,19.32-.24,1.32-.53,3.74-.68,5.06-.23,1.99-.33,2.86-.33,3.25,0,.01,0,.02,0,.03h0c0,.28.07.29.19.31.01,0,.02,0,.04,0-.32,2.57-.66,6-.74,9.43-.11,4.37,1.95,10.93,3.95,17.29,1.15,3.68,2.24,7.15,2.78,9.83.16.79.25,1.79.3,2.95-2.28,1.65-4.19,3.18-4.54,3.96-.55,1.2-.08,3.88.38,6.48.35,1.98.67,3.84.46,4.62-.14.53-.31.99-.44,1.36-.27.76-.41,1.18-.18,1.45.17.2.45.18.65.14.24-.04.91-.66,2.22-2.04-.32,1.6-.94,3.29-1.51,4.83-.79,2.13-1.41,3.82-1.08,4.78.16.48.57.88,1.2,1.17.35.16.77.29,1.26.38-.24,3.54-.35,6.5-.17,8.18.67,6.24-2,12.83-2.03,12.9-.05.12,0,.25.11.32.06.03.12.04.18.02-1.27,2.01-2.65,4.09-4.1,6.27ZM109.19,259.54c-.91,2.81-2.33,5.67-4.09,8.67,2.26-4.37,4.38-10.21,5.73-14.23-.38,1.45-.91,3.28-1.64,5.55ZM112.32,249.33c0-.13-.08-.24-.21-.26-.13-.02-.25.05-.28.17-.04.14-3.77,12.65-7.72,19.76.76-2.51,1.75-6.8,1.31-10.95-.18-1.64-.06-4.55.17-8.05,1.71.2,4.04-.04,6.58-1.05.34-.13.68-.29,1.01-.44-.99,1.22-1.59,5.55-1.71,6.47,0,.05,0,.11.03.15-.13.22-.22.47-.28.77-.15.8-.59,1.4-.96,1.88,1.88-6.14,2.05-8.36,2.05-8.46ZM145.89,292.22c-.05-.13-.13-.35-.22-.74-1.13-4.88-.21-16.09.86-23.03.22,7.92.03,21.9-.65,23.77ZM157.16,282.35c-.56-2.62.04-8.45.79-13.04.03,4.99-.39,11.39-.79,13.04ZM177.76,257.21c-.15,1.38-.27,2.38-.2,3.06-1.18-.58-2.96-.51-5.56.21-2.96.82-7.01,1.26-9.69,1.55-1.52.17-2.62.28-3,.41-.33.11-.7,1.09-1.06,2.57-.13-1.15-.34-1.94-.64-2.15-.18-.13-.4-.11-.59.05-1.34,1.11-4.95.17-7.11-.4-.85-.22-1.52-.4-1.91-.42-.14-.01-.27.06-.39.2-.24.28-.51,1.07-.79,2.21-.04-.64-.08-1.08-.12-1.27-.54-2.59-3.57-2.01-5.77-1.59-.82.16-1.58.31-2.12.28-.41,0-.84.2-1.29.65-.96.96-1.92,2.91-2.63,5.07-.04-2.05-.24-3.95-.68-4.77-.26-.48-.56-.6-.8-.6-.03,0-.06,0-.08,0-2.29.25-12.46-1.71-13.59-2.12-.26-.09-.46.16-.53.24-.23.28-.6.95-1.05,1.92.24-1.31.37-2.1.38-2.15.03-.22-.04-.42-.18-.57-.46-.48-1.63-.42-3.51-.27-1.33.1-2.84.22-3.81-.03-.69-.17-.81-.33-.83-.38-.05-.13.2-.45.43-.76.39-.51.91-1.2,1.09-2.15.05-.27.14-.49.26-.67.89.18,3.88.74,11.54,1.9,5.63.85,10.58.67,15.37.51,1.31-.05,2.65-.09,4-.12.1.2.2.36.31.48.16.16.34.24.53.24.34,0,1.02.05,1.89.12,4.95.4,10.26.67,11.63-.85.3-.03.6-.05.9-.08.06.02.12.03.19.03.62.09,10.17-1.02,10.39-1.7.03-.08,0-.18-.05-.25-.13-.15-.17-.15-1.88.16-1.8.32-4.96.89-8.59,1.25-.21-.09-.37-.31-.48-.59.23-1.01.37-2.53.42-4.1,1.98.13,4.66.11,4.89-.43.04-.08.09-.3-.21-.5-.76-.51-3.14-.18-4.67.32.03-2.06-.1-4.13-.42-5.25,2.4-.28,5-.64,7.48-1.01,1.21.14,2.36.35,2.77.65.79.57,1.14,5.71,1.17,8.82,0,.07.03.14.09.19.06.05.13.07.2.05,2.62-.46,5.97-1.03,8.64-1.47-.11,1.39-.24,2.55-.35,3.5ZM159.43,251.91c1.18-.25,2.38-.32,2.95-.15-.52.12-1.71.17-2.95.15ZM163.99,244.84c.62-.04,1.3-.09,2-.13.58-.04,1.16-.08,1.72-.12-.81.12-1.64.25-2.48.38-.4-.05-.82-.09-1.24-.13ZM178.37,260.86c-.06-.06-.12-.13-.19-.18-.24-.41-.14-1.41.08-3.41.11-.98.24-2.18.36-3.64,1.92-.31,3.42-.54,3.9-.58.18,1.03.42,6.39.29,6.83-.16.39-2.92,1.28-4.31,1.02-.05,0-.09-.02-.13-.04ZM185.37,257.57c-.32.88-.8,2.73-1.54,5.99-.15.66.14,2.29.71,4.49-1.81-3.35-3.18-5.29-4.18-5.55-.08-.02-.16-.03-.24-.03-.19,0-.37.06-.53.18-.1.08-.19.24-.26.46-.1-.67-.27-1.22-.53-1.68,1.51.05,4.29-.67,4.5-1.41.1-.35-.04-7.03-.4-7.39-.08-.08-.17-.17-4.23.48.05-.67.09-1.39.13-2.17.3-6.38-1.23-11.48-1.63-12.68.71-.16,2.71-.58,4.47-.79,1.1-.11,2.49,1.2,3.62,2.26.79.75,1.47,1.38,2.03,1.57-1.5.44-3.15.74-3.72.83l-.7-2.1c-.35-1.06-.56-1.67-.7-2.03-.04-.17-.07-.26-.07-.27h-.04c-.11-.21-.17-.2-.28-.16-.13.04-.2.19-.16.32h0s0,0,0,0c0,0,0,0,0,0,.02.06,2.12,7.98,2.12,14.73,0,4.99.1,7.01.19,7.24.04.11.16.17.28.15.12-.02.2-.13.2-.25-.08-2.98.02-6.26.32-6.6.19-.13,1.14-.53,2.15-.95,1.93-.8,3.12-1.32,3.81-1.69.17,1.49.43,2.97.8,4.35-1.46.42-5.77,1.72-6.12,2.68ZM190.92,247.39c.04.57.07,1.08.09,1.47-.04-.5-.07-.99-.09-1.47ZM192.26,233.18c.19-.08.37-.07.56.02,1.01.48,1.71,3.58,2.69,7.86,1.09,4.81,2.59,11.39,5.44,18.72,6.09,15.65,1.78,18.22,1.73,18.24-.08.04-.17.09-.17.35-4.58-9.64-9.21-19.6-10.2-22.51-.58-1.71-.94-3.67-1.16-5.62.29-.2.4-.36.4-.51,0-.37-.2-3.47-.29-4.79-.16-2.46-.24-3.59-.31-4.12,0-.11,0-.17,0-.19h-.04c-.05-.26-.11-.26-.21-.26-.14,0-.25.12-.25.25,0,.02,0,.08,0,.17-.1,1.84-.21,5.48.17,9.2-.87.49-2.8,1.29-3.94,1.76-1.29.53-2.02.84-2.25,1-.08.05-.14.17-.2.33v-.47c0-3.51-.55-7.29-1.09-10.16,0,.02,0,.02,0,.02.04.12.15.19.28.17.14-.02,3.37-.53,5.42-1.38,1.08-.45,1.72-1.15,1.81-1.98.08-.68-.24-1.36-.88-1.88.72-1.87,1.57-3.89,2.48-4.25ZM189.49,238.19c.03-.08.06-.17.1-.25.42.39.62.86.57,1.33-.07.64-.6,1.2-1.5,1.57-.13.05-.27.11-.41.16.21-.27.42-.71.66-1.31.1-.03.18-.12.18-.24v-.22c.13-.31.26-.66.4-1.04ZM189.17,237.62c-.02.05-.04.11-.06.16v-.2s.04.02.06.03ZM192.7,228.26c-1.65,2.89-3.9,4.5-3.93,4.52-.07.05-.11.12-.11.2l-.05,4.15c-.46.35-.25,1.48-.08,2.15-.32.79-.62,1.45-.83,1.56-.35.18-1.32-.73-2.1-1.47-1.27-1.19-2.73-2.53-4.02-2.39-2.2.25-4.77.85-4.79.86-.07.02-.13.06-.16.12-.03.06-.04.14-.01.21.02.05,2.02,5.57,1.69,12.75-.04.81-.08,1.57-.14,2.27-1.92.31-4.63.77-8.47,1.44-.03-1.88-.22-8.1-1.38-8.93-.28-.2-.78-.36-1.41-.49,2.13-.33,4.11-.65,5.75-.91.37-.06.73-.12,1.07-.17,1.78-.16,3.02-.31,3.38-.46.12-.05.23-.21.2-.33-.07-.26-.08-.28-3.65.29-2.3.2-5.35.41-7.7.57-3.18.21-4.4.3-4.6.36-.11.04-.21.17-.2.29.03.25.06.26,1.61.38.12.01.26.02.4.03-1.89.27-3.8.53-5.59.73-.06-.12-.13-.22-.21-.28-.18-.14-.39-.15-.58,0-.14.1-.28.25-.41.42-2.81.29-5.22.44-6.65.3-1.44-.14-2.63-.24-3.62-.31.03,0,.07,0,.11-.02.11-.05.18-.19.15-.31,0-.08.02-.57.05-1.12,0-.14.02-.29.03-.45,6.28-.26,24.57-1.23,25.88-2.46.64-.6.25-2.37-.4-5.31-.88-3.95-2.21-9.92-1.14-15.42,1.78-9.14,3.5-38.86,3.07-44.32-.6-7.51-.6-12.39-.02-13.75.62-1.45,4.27-8.78,5.57-11.39.02,3.41.06,12.86,0,20.14-.04,3.78.03,6.92.09,9.7.08,3.91.16,7.29-.09,10.97-.16,2.36-.48,6.2-.86,10.65-.6,7.14-1.35,16.03-1.61,21.36-.37,7.45.28,11.04,1.04,11.23.19.05.57-.06,2.28-.59,1.87-.57,4.7-1.44,6.58-1.7,1.37-.19,2.8-1.24,3.94-2.88,1.46-2.1,2.08-4.67,1.63-6.7-.23-1.06-.48-1.77-.68-2.34-.51-1.47-.68-1.97.59-5.35.06-.17.13-.34.18-.5.09.86.19,1.72.29,2.58.5,4.27.97,8.3-.08,10.13ZM194.04,208.3c-.71,2.17-.86,2.94-.99,3.62-.07.37-.14.71-.29,1.24-.06-.82-.1-1.62-.11-2.39-.06-4.74,2.09-9.35,3.14-11.3-.19,1.82-.67,5.53-1.76,8.85ZM195.94,198.21c-.04.06-3.87,6.18-3.78,12.56.02,1.16.1,2.38.21,3.62-.14.41-.32.89-.54,1.48-1.33,3.55-1.13,4.14-.59,5.69.19.56.44,1.25.66,2.28.42,1.9-.17,4.32-1.55,6.31-1.06,1.52-2.37,2.5-3.6,2.67-1.92.27-4.77,1.14-6.66,1.72-.85.26-1.73.53-1.99.57-.16-.24-1.12-2.09-.68-10.71.27-5.31,1.01-14.2,1.61-21.34.37-4.45.7-8.29.86-10.66.25-3.7.18-7.09.09-11.01-.06-2.77-.13-5.92-.09-9.68.08-8.26.01-19.32,0-21.17.01-.07.06-.27.15-.62,1.17-1.92,2.44-3.77,3.79-5.36,1.92-2.27,4.48-5.64,6.95-8.9,2.72-3.59,5.95-7.85,7.61-9.62.01.09.05.18.15.21,0,0,.05.02.14.05-1.26.58-6.25,11.64-8.31,26.15-2.12,14.91,1.83,20.63,2,20.86.06.09.17.12.28.09.08-.02.14-.08.16-.16.05,1.22.15,2.62.26,4.16l.11,1.56c.26,3.8,1.21,11.85,2.76,19.25,0,0,0,0,0,0ZM208.76,238.35c-2.53-11.67-7.43-24.85-9.56-30.32-3.2-8.21-5.13-23.43-5.52-29.12l-.11-1.57c-.31-4.34-.55-7.77.31-8.62.13-.13.28-.19.46-.19.03,0,.05,0,.08,0,1.67.15,8.88-.15,9.86-2,.21-.39.15-1.39-.07-2.72.04.01.08.03.12.04.61.17,1.85-.74,3.69-2.12.4-.3.78-.58,1.11-.81.44-.31.77-.66,1-1.03l.22,11.64c0,.14.11.25.25.25h1.62c.13,0,.24-.11.25-.24.01-.31.15-3.59.17-7.74,0,.03,0,.06,0,.09.35,4.38.96,10.21,1.41,13.84-1.32,2.27-3.05,4.48-4.99,5.14-2.57.87-4.12.48-4.98,0-.74-.42-1.1-.98-1.16-1.26-.13-.6-.11-2.34.54-2.86.24-.2.56-.2.98,0,2,.91,4.24.06,6.01-2.29,1.63-2.17.27-3.95.25-3.96-.05-.06-.12-.09-.22-.09-.08,0-.16.06-.2.13,0,.01-.62,1.11-3.09,3.25-1.42,1.23-3.29,1.08-4.75.74-.06-1.32-.1-2.58-.13-3.69.47.1,1,.12,1.58.05,2.32-.29,4.9-1.98,5.53-2.8.9-1.17.74-3.64.73-3.74,0-.12-.09-.22-.21-.24-.12-.02-.22.03-.27.14-.01.02-.31.5-2.83,2.47-2.17,1.69-3.66,1.65-4.08,1.6l-.55-1.73c-.04-.12-.15-.19-.28-.17-.12.02-.21.12-.21.25,0,.02,0,1.42.05,3.47-.15-.07-.28-.16-.41-.26-1.92-1.51-1.95-1.49-2.13-1.28-.13.14-.05.29.03.38l.08,4.32-3.92-1.26c-.07-.02-.15-.01-.21.03-.06.04-.1.11-.11.18-.84,6.97-.77,6.99-.53,7.08.11.04.24,0,.3-.1.4-.57,4.46-4.83,5.2-4.83,0,0,.01,0,.02,0,.17.02.49.12.86.23.29.09.63.2,1,.3.01.25.03.51.04.77.09,1.66-.05,2.84-.16,3.79-.2,1.71-.33,2.84,1.15,4.77,2.35,3.08,5.45,2.44,9.67.41,2.31-1.11,3.57-3.85,4.24-6.22.19,4.64.58,9.84,1.38,11.71.53,1.23,1.15,1.87,1.86,1.91.61.05,1.15-.42,1.47-.8l1.26,6.31c-.56-.13-1.66-.54-2.18-1.75-.45-1.04-1.02-1.3-1.45-1.49-.35-.16-.52-.23-.58-.66-.17-1.18-1.48-7.74-1.53-8.01-.03-.13-.13-.2-.27-.2-.13.01-.23.12-.23.25s-.05,3.15-3.23,4.1l-3.15.94-.19-.78c.33-.1.65-.22.97-.38,4.37-2.1,5.5-6.67,5.65-7.4.01-.05.02-.09.02-.1.02-.14-.07-.26-.2-.29-.13-.03-.26.06-.29.2,0,0-.01.06-.03.16-.12.49-.59,2.11-1.96,3.82-1.39,1.73-3.45,2.3-4.03,2.43l-.84-1.3c-.07-.1-.2-.14-.31-.09-.11.05-.17.17-.14.29l.57,2.31c-3.83.84-7.86-1.99-8.83-3.18-.29-3.83-.56-7.82-.77-11.2,0-.13-.12-.23-.26-.23-.13,0-.24.11-.24.25,0,1.03-.06,10.07.72,11.29.02.03.04.06.06.09.51,6.74,1.16,14.07,1.64,14.88.36.62,1.51,2.28,3.7,3.12l.19,1.05c-1.56-1.23-2.79-2.73-2.81-2.75-.07-.09-.2-.12-.3-.07-.1.05-.16.17-.13.28l2.86,12.43-1.73,1.18c-.09.06-.13.17-.1.28l1.87,6.21c.02.08.08.14.16.17.08.03.16,0,.23-.04.01,0,1.11-.86,1.95-1.44.91-.64,1.19-1.45,1.2-1.49.01-.04.02-.08,0-.12l-2.49-13.51c1.08.68,2.25,1.13,3.3.95,1.15-.2,1.96-.26,2.51-.27.2.6.56,1.23,1.19,1.81.41,2.09,1.46,5.46,4.16,8.1,4.27,4.18,9.38,5.19,11.38,5.43,1.73.21,1.67,3.08,1.66,3.51-1.12,1.96-2.96,4.72-3.67,4.82-.22-.2-.4-.61-.59-1.04-.45-1.03-1.07-2.44-2.88-1.91-.94.28-2.78,1.09-4.74,1.94-2.91,1.27-6.2,2.72-7.38,2.81-2.04.17-2.66.34-2.69.35-.11.03-.19.14-.18.26.04.5.13,1.54.26,2.8ZM199.82,171.25c.25.18.65.49,1.29.99.22.17.46.31.73.42.03,1.12.07,2.39.13,3.72-.3-.08-.58-.17-.83-.25-.43-.13-.74-.23-.96-.25-.91-.08-4.02,3.21-5.21,4.52.1-1.21.4-3.89.63-5.81l3.97,1.27c.07.02.16.01.23-.04.06-.05.1-.12.1-.21l-.08-4.36ZM211.41,235.44c1.26-.11,4.46-1.5,7.54-2.85,1.94-.85,3.77-1.65,4.68-1.92,1.29-.38,1.74.4,2.28,1.63.21.48.42.94.72,1.21.12.11.29.16.46.13,1.16-.19,3.55-4.3,4.01-5.13.02-.03.03-.07.03-.11,0-.08.07-1.03-.16-2,.65,2.08,1.28,4.05,1.84,5.82,1.17,3.67,2.1,6.57,2.42,7.89.39,1.56.96,4.11,1.62,7.15-.21-.16-.52-.3-.88-.46-.35-.16-.75-.35-1.14-.58-.68-.41-.05-1.82.36-2.75.3-.68.43-.99.34-1.21-.16-.4-1.49-1.82-2.33-1.87-.27-.01-.47.09-.59.31-.36.65-1.34.68-1.88.41-.5-.26-1.32.4-3.87,4.38-.09.14-.15.24-.19.3-.28.43,0,.76.31,1.11.27.31.63.73.94,1.42.44.99-1.76,3.32-3.25,4.56-.06.05-.09.11-.09.18,0,.07.03.14.08.19l1.84,1.75c-.9-.48-2.21-1.15-4.11-2.07-.45-.22-.89-.37-1.33-.46.68-1.24,2.28-4.17,3.99-7.54,2.22-4.37,4.71-5.58,4.73-5.59.1-.05.16-.16.14-.27-.2-1.04-.26-2.3-.03-2.52,0,0,.02-.02.06,0,.79.22,1.98-.92,2.56-1.62.71-.86.59-1.11.54-1.2-.02-.04-.07-.22-.1-.36-.21-.79-.4-1.4-.84-1.42-.33,0-.59.29-.88,1.04-.66,1.73-2.72,2.01-3.4,2.1-.23.03-.3.04-.38.11-.05.05-.06.06-.41.94-.68,1.69-2.11,5.2-3.2,6.94-1.37,2.17-1.75,2.44-5.39,2.27-2.09-.09-3.98.88-5.38,1.59-1.01.52-1.89.96-2.22.68-.67-.56-1.48-7.48-1.85-11.87.31-.06,1.02-.17,2.39-.29ZM210.6,248.02c.59.42,1.49-.04,2.72-.66,1.42-.72,3.21-1.63,5.12-1.53,3.72.17,4.32-.08,5.84-2.5,1.12-1.77,2.55-5.31,3.24-7.02.13-.33.25-.62.29-.73.03,0,.06,0,.1-.01.75-.1,3.03-.41,3.8-2.41.23-.59.37-.7.37-.72.15.1.33.79.4,1.05.05.2.08.32.12.41-.07.26-.84,1.28-1.69,1.86-.35.24-.64.34-.81.3-.2-.05-.39-.01-.54.12-.5.46-.28,2.08-.15,2.79-.62.36-2.8,1.81-4.79,5.72-1.79,3.52-3.44,6.54-4.07,7.68-.35-.04-.7-.04-1.04-.02-.94-.18-2.32-.11-3.62,1.3-.16.17-.31.34-.46.5-1.51,1.21-2.55,2.66-2.87,3.13-.72-3.15-1.38-6.29-1.96-9.27ZM212.68,257.82c.07,0,.13-.03.17-.08.01-.01,1.11-1.25,2.93-3.23,1.05-.83,2.33-1.53,3.74-1.65.49.12.81.31.84.33.06.04.13.05.2.03.07-.02.12-.06.16-.12,0,0,.04-.07.1-.18.45.08.9.23,1.36.45,5.1,2.47,5.87,3.09,5.9,3.11.1.09.26.08.35-.02.09-.1.09-.26-.01-.35l-3.2-3.04c.9-.78,3.84-3.47,3.17-4.96-.34-.76-.73-1.22-1.02-1.55-.33-.38-.33-.42-.28-.51.04-.06.11-.16.2-.3,2.41-3.76,3.08-4.19,3.23-4.21.82.41,2.06.26,2.54-.61.02-.03.04-.05.12-.05.56.04,1.78,1.25,1.89,1.53,0,.11-.18.52-.32.85-.49,1.09-1.22,2.75-.16,3.38.41.25.82.44,1.18.61.37.17.92.43.93.55,0,0,0,.03-.05.08-.23.26-.37.87-.61,2.01-.33,1.52-.78,3.6-1.71,5.08-.36.58-.85,1.42-1.41,2.37-1.73,2.97-4.35,7.46-5.45,8.02-.6-.38-.77-4.73-.6-8.71,0-.1-.05-.19-.13-.23-.04-.02-.08-.03-.12-.03-.05,0-.1.02-.15.05-.04.03-4.51,3.3-7.92,4.21-3.34.9-4.38.68-4.39.68-.08-.02-.17,0-.23.06-.06.06-.09.14-.08.23l.55,3.11c-.62-2.26-1.2-4.59-1.74-6.9ZM226.42,262.87c-.19-.39-.33-.63-.35-.66-.02-.03-.04-.05-.06-.07-.21-.17-.93-.24-3.5,1.08-2.38,1.23-6.29,2.47-7.35,2.79l-.74-4.17c.56,0,1.82-.06,4.27-.72,2.91-.78,6.46-3.15,7.67-4-.04,1.23-.1,3.73.06,5.74ZM214.95,266.59s.06,0,.09,0c.05-.01,4.91-1.47,7.7-2.91,2.15-1.11,2.83-1.13,2.94-1.13.24.43,1.47,2.76,1.48,5.53-5.71.86-10.08,3.9-10.13,3.94-.08.06-.12.17-.1.27l.46,1.75c-.88-2.32-1.69-4.83-2.45-7.44ZM227.15,268.58c0,.07,0,.14-.01.21l-.24,3.33-8.7,3.01-.74-2.8c.78-.52,4.71-2.98,9.69-3.74ZM227.91,299.45c-.47-1.43-3.83-11.35-8.3-20.29-.54-1.08-1.06-2.24-1.56-3.47.02,0,.04,0,.06-.01l9.11-3.15c.09-.03.16-.12.17-.22l.25-3.49c0-.11.01-.21.02-.32,1.09-.14,2.22-.2,3.38-.13,6.18.35,8.23.82,8.73.96l.43,2.88c-1.52-.37-7.25-1.66-9.83-.67-2.81,1.07-3.5,1.48-3.39,2.47,0,.08.01.26.02.5.02.7.06,1.37.12,2.02-.78.35-1.61.65-2.41.91-.34-1.83-.55-3.05-.56-3.08-.02-.12-.12-.21-.25-.21h-.02c-.13,0-.23.11-.23.24l-.16,3.23-3.15.97c-.13.04-.2.17-.17.3.03.13.16.22.29.18.14-.03,1.85-.36,3.86-.98.12.63.25,1.32.39,2.04-2.16.61-3.04,1.26-3.08,1.3-.09.07-.12.18-.08.29l2.38,6.38c.03.08.1.14.18.16.02,0,.95.21,2.3.05.11.47.21.93.32,1.38,1.5,6.26,1.27,9.25,1.27,9.28,0,.09.04.19.12.23.08.05.18.05.26,0l3.68-2.29,2.59,2.02c.09.07.22.07.31,0,.09-.07.12-.19.08-.3-.03-.07-.79-1.84-1.75-2.8-.38-.38-.09-.73.81-1.64.5-.5,1.07-1.08,1.53-1.8.83-1.3.2-1.76-1.04-2.69-.88-.66-2.09-1.56-3.58-3.22-.01-.01-.03-.03-.04-.04.77-.59,1.54-1.37,2.27-2.37,3.18-4.39,4.4-8.53,4.71-9.82l1.73,1.45,1.09,23.64-12.83.07ZM230.22,286.39c-1.23.85-2.43,1.25-3.43,1.42-.54-2.41-1.07-5.01-1.51-7.28.55-.14,1.18-.28,1.9-.41.14-.02.28-.05.42-.08.54,2.68,1.42,4.8,2.63,6.35ZM227.64,276.86c.88-.41,1.67-.88,2.29-1.39,2.26-1.91,3.1-2.48,3.4-2.65.22.72.97,2.66,1.65,4.37-.84.35-3.93,1.61-6.99,2.27-.15-.81-.26-1.68-.35-2.59ZM232.91,296.22c.45.45.87,1.12,1.17,1.67l-1.86-1.45c-.08-.07-.2-.07-.29-.01l-3.43,2.13c.01-1.08-.11-3.98-1.3-8.96-.1-.43-.21-.88-.31-1.33,1.07-.19,2.35-.61,3.64-1.5.02.03.05.05.07.08,1.52,1.7,2.8,2.66,3.65,3.29,1.28.96,1.48,1.14.92,2.03-.43.68-.98,1.23-1.46,1.71-.81.81-1.57,1.58-.8,2.34ZM226.29,287.87c-.95.1-1.67,0-1.95-.05l-2.26-6.07c.32-.2,1.17-.66,2.72-1.1.44,2.25.96,4.83,1.5,7.22ZM227.09,279.63c-.71.12-1.35.26-1.91.41-.14-.74-.27-1.43-.39-2.07.78-.25,1.6-.55,2.37-.88.09.87.2,1.69.34,2.47-.14.03-.28.05-.41.08ZM224.22,277.62c-.08.02-.16.05-.23.07l.05-1.06c.05.3.12.63.18.99ZM241.24,299.38l-1.09-23.77c0-.07-.04-.13-.09-.18l-2.13-1.79s-.1-.06-.16-.06c-.03,0-.06,0-.08.01-.08.03-.14.1-.16.19,0,.05-.97,4.86-4.72,10.03-.7.97-1.44,1.71-2.18,2.28-1.17-1.49-2.02-3.55-2.54-6.15,3.63-.78,7.28-2.38,7.32-2.39.12-.05.18-.2.13-.32-.66-1.67-1.73-4.42-1.77-4.67,0-.1-.08-.23-.17-.27-.2-.09-.42-.2-3.99,2.8-.54.46-1.24.87-2.01,1.24-.05-.59-.08-1.19-.1-1.82,0-.26-.02-.45-.03-.54-.06-.55.18-.84,3.07-1.95,2.79-1.06,9.82.76,9.89.77.08.02.17,0,.23-.06.06-.06.09-.14.08-.22l-.51-3.4c-.01-.09-.07-.16-.15-.19-.06-.02-1.57-.62-9.02-1.04-1.17-.06-2.3-.01-3.4.12,0-.76-.1-1.48-.24-2.14.11.01.22,0,.33-.07,1.08-.57,3.17-4.05,5.59-8.2.55-.95,1.04-1.78,1.4-2.36.97-1.56,1.43-3.69,1.77-5.24.18-.83.35-1.61.51-1.79l.03-.03c.13.6.26,1.21.4,1.83.64,2.93,1.34,6.14,2.03,9.24,1.6,7.11,2.99,37.01,3.13,40.12h-1.37Z"/>
</svg>